<mxfile host="65bd71144e">
    <diagram id="JPwOmys66IPJRtIeChqZ" name="SPRINT 1">
        <mxGraphModel dx="1416" dy="644" grid="0" gridSize="10" guides="1" tooltips="1" connect="1" arrows="1" fold="1" page="0" pageScale="1" pageWidth="827" pageHeight="1169" math="0" shadow="0">
            <root>
                <mxCell id="0"/>
                <mxCell id="1" parent="0"/>
                <mxCell id="4" style="edgeStyle=none;html=1;entryX=0.5;entryY=0;entryDx=0;entryDy=0;" parent="1" source="2" target="3" edge="1">
                    <mxGeometry relative="1" as="geometry"/>
                </mxCell>
                <mxCell id="2" value="SPRINT 1" style="rounded=1;whiteSpace=wrap;html=1;" parent="1" vertex="1">
                    <mxGeometry x="40" y="10" width="90" height="60" as="geometry"/>
                </mxCell>
                <mxCell id="6" style="edgeStyle=none;html=1;exitX=1;exitY=0.5;exitDx=0;exitDy=0;" parent="1" source="3" edge="1">
                    <mxGeometry relative="1" as="geometry">
                        <mxPoint x="170" y="140" as="targetPoint"/>
                    </mxGeometry>
                </mxCell>
                <mxCell id="7" style="edgeStyle=none;html=1;" parent="1" source="3" edge="1">
                    <mxGeometry relative="1" as="geometry">
                        <mxPoint x="85" y="240" as="targetPoint"/>
                    </mxGeometry>
                </mxCell>
                <mxCell id="3" value="Create first table&amp;nbsp;&amp;nbsp;" style="rounded=0;whiteSpace=wrap;html=1;" parent="1" vertex="1">
                    <mxGeometry x="25" y="110" width="120" height="60" as="geometry"/>
                </mxCell>
                <mxCell id="5" value="Name : Recipies_table&lt;br&gt;1st coloumn : id (primary key)&lt;br&gt;2nd coloumn : Recipe_name&lt;br&gt;3rd coloumns : Time" style="rounded=0;whiteSpace=wrap;html=1;" parent="1" vertex="1">
                    <mxGeometry x="180" y="110" width="170" height="70" as="geometry"/>
                </mxCell>
                <mxCell id="9" style="edgeStyle=none;html=1;" parent="1" source="8" edge="1">
                    <mxGeometry relative="1" as="geometry">
                        <mxPoint x="180" y="280" as="targetPoint"/>
                    </mxGeometry>
                </mxCell>
                <mxCell id="11" style="edgeStyle=none;html=1;fontFamily=Courier New;" parent="1" source="8" target="12" edge="1">
                    <mxGeometry relative="1" as="geometry">
                        <mxPoint x="90" y="360" as="targetPoint"/>
                    </mxGeometry>
                </mxCell>
                <mxCell id="8" value="Create second table&amp;nbsp;" style="rounded=0;whiteSpace=wrap;html=1;" parent="1" vertex="1">
                    <mxGeometry x="30" y="250" width="120" height="60" as="geometry"/>
                </mxCell>
                <mxCell id="19" style="edgeStyle=none;html=1;fontFamily=Helvetica;exitX=0.5;exitY=1;exitDx=0;exitDy=0;" parent="1" source="10" edge="1">
                    <mxGeometry relative="1" as="geometry">
                        <mxPoint x="160" y="600" as="targetPoint"/>
                        <mxPoint x="270" y="330" as="sourcePoint"/>
                        <Array as="points">
                            <mxPoint x="270" y="600"/>
                        </Array>
                    </mxGeometry>
                </mxCell>
                <mxCell id="10" value="Name : How_to_make&lt;br&gt;1st coloumn : Recipe_id (foreign key)&lt;br&gt;2nd coloumn : Ingredients&lt;br&gt;3rd coloumn : Method&amp;nbsp;" style="rounded=0;whiteSpace=wrap;html=1;" parent="1" vertex="1">
                    <mxGeometry x="190" y="240" width="150" height="80" as="geometry"/>
                </mxCell>
                <mxCell id="13" style="edgeStyle=none;html=1;fontFamily=Helvetica;" parent="1" source="12" edge="1">
                    <mxGeometry relative="1" as="geometry">
                        <mxPoint x="90" y="450" as="targetPoint"/>
                    </mxGeometry>
                </mxCell>
                <mxCell id="12" value="&lt;font face=&quot;Helvetica&quot;&gt;Write a database initialisation script. Create a SQL script that will:&lt;/font&gt;" style="rounded=0;whiteSpace=wrap;html=1;fontFamily=Courier New;" parent="1" vertex="1">
                    <mxGeometry x="30" y="350" width="120" height="60" as="geometry"/>
                </mxCell>
                <mxCell id="15" style="edgeStyle=none;html=1;fontFamily=Helvetica;" parent="1" source="14" edge="1">
                    <mxGeometry relative="1" as="geometry">
                        <mxPoint x="90" y="550" as="targetPoint"/>
                    </mxGeometry>
                </mxCell>
                <mxCell id="14" value="Drop any existing tables (if they exist)" style="rounded=0;whiteSpace=wrap;html=1;fontFamily=Helvetica;" parent="1" vertex="1">
                    <mxGeometry x="22.5" y="460" width="135" height="50" as="geometry"/>
                </mxCell>
                <mxCell id="17" style="edgeStyle=none;html=1;fontFamily=Helvetica;" parent="1" source="16" target="18" edge="1">
                    <mxGeometry relative="1" as="geometry">
                        <mxPoint x="90" y="650" as="targetPoint"/>
                    </mxGeometry>
                </mxCell>
                <mxCell id="16" value="Recreate all the tables based on the schema" style="rounded=0;whiteSpace=wrap;html=1;fontFamily=Helvetica;" parent="1" vertex="1">
                    <mxGeometry x="30" y="560" width="120" height="60" as="geometry"/>
                </mxCell>
                <mxCell id="18" value="Populate the tables with some intial seed data&amp;nbsp;" style="rounded=0;whiteSpace=wrap;html=1;fontFamily=Helvetica;" parent="1" vertex="1">
                    <mxGeometry x="30" y="660" width="120" height="60" as="geometry"/>
                </mxCell>
            </root>
        </mxGraphModel>
    </diagram>
    <diagram name="SPRINT 2" id="xeyBfloghB4HSX9A5RlJ">
        <mxGraphModel dx="1416" dy="644" grid="0" gridSize="10" guides="1" tooltips="1" connect="1" arrows="1" fold="1" page="0" pageScale="1" pageWidth="827" pageHeight="1169" math="0" shadow="0">
            <root>
                <mxCell id="kqk9PrzO4SxZUDdawp0W-0"/>
                <mxCell id="kqk9PrzO4SxZUDdawp0W-1" parent="kqk9PrzO4SxZUDdawp0W-0"/>
                <mxCell id="kqk9PrzO4SxZUDdawp0W-2" style="edgeStyle=none;html=1;entryX=0.5;entryY=0;entryDx=0;entryDy=0;" parent="kqk9PrzO4SxZUDdawp0W-1" source="kqk9PrzO4SxZUDdawp0W-3" target="kqk9PrzO4SxZUDdawp0W-6" edge="1">
                    <mxGeometry relative="1" as="geometry"/>
                </mxCell>
                <mxCell id="kqk9PrzO4SxZUDdawp0W-3" value="SPRINT 2" style="rounded=1;whiteSpace=wrap;html=1;" parent="kqk9PrzO4SxZUDdawp0W-1" vertex="1">
                    <mxGeometry x="40" y="10" width="90" height="60" as="geometry"/>
                </mxCell>
                <mxCell id="kqk9PrzO4SxZUDdawp0W-4" style="edgeStyle=none;html=1;exitX=1;exitY=0.5;exitDx=0;exitDy=0;" parent="kqk9PrzO4SxZUDdawp0W-1" source="kqk9PrzO4SxZUDdawp0W-6" edge="1">
                    <mxGeometry relative="1" as="geometry">
                        <mxPoint x="170" y="140" as="targetPoint"/>
                    </mxGeometry>
                </mxCell>
                <mxCell id="kqk9PrzO4SxZUDdawp0W-5" style="edgeStyle=none;html=1;" parent="kqk9PrzO4SxZUDdawp0W-1" source="kqk9PrzO4SxZUDdawp0W-6" edge="1">
                    <mxGeometry relative="1" as="geometry">
                        <mxPoint x="85" y="240" as="targetPoint"/>
                    </mxGeometry>
                </mxCell>
                <mxCell id="kqk9PrzO4SxZUDdawp0W-6" value="Create first table&amp;nbsp;&amp;nbsp;" style="rounded=0;whiteSpace=wrap;html=1;" parent="kqk9PrzO4SxZUDdawp0W-1" vertex="1">
                    <mxGeometry x="25" y="110" width="120" height="60" as="geometry"/>
                </mxCell>
                <mxCell id="kqk9PrzO4SxZUDdawp0W-7" value="Name : Recipies_table&lt;br&gt;1st coloumn : id (primary key)&lt;br&gt;2nd coloumn : Recipe_name&lt;br&gt;3rd coloumns : Time" style="rounded=0;whiteSpace=wrap;html=1;" parent="kqk9PrzO4SxZUDdawp0W-1" vertex="1">
                    <mxGeometry x="180" y="110" width="170" height="70" as="geometry"/>
                </mxCell>
                <mxCell id="kqk9PrzO4SxZUDdawp0W-8" style="edgeStyle=none;html=1;" parent="kqk9PrzO4SxZUDdawp0W-1" source="kqk9PrzO4SxZUDdawp0W-10" edge="1">
                    <mxGeometry relative="1" as="geometry">
                        <mxPoint x="180" y="280" as="targetPoint"/>
                    </mxGeometry>
                </mxCell>
                <mxCell id="kqk9PrzO4SxZUDdawp0W-9" style="edgeStyle=none;html=1;fontFamily=Courier New;" parent="kqk9PrzO4SxZUDdawp0W-1" source="kqk9PrzO4SxZUDdawp0W-10" target="kqk9PrzO4SxZUDdawp0W-14" edge="1">
                    <mxGeometry relative="1" as="geometry">
                        <mxPoint x="90" y="360" as="targetPoint"/>
                    </mxGeometry>
                </mxCell>
                <mxCell id="kqk9PrzO4SxZUDdawp0W-10" value="Create second table&amp;nbsp;" style="rounded=0;whiteSpace=wrap;html=1;" parent="kqk9PrzO4SxZUDdawp0W-1" vertex="1">
                    <mxGeometry x="30" y="250" width="120" height="60" as="geometry"/>
                </mxCell>
                <mxCell id="kqk9PrzO4SxZUDdawp0W-11" style="edgeStyle=none;html=1;fontFamily=Helvetica;exitX=0.5;exitY=1;exitDx=0;exitDy=0;" parent="kqk9PrzO4SxZUDdawp0W-1" source="kqk9PrzO4SxZUDdawp0W-12" edge="1">
                    <mxGeometry relative="1" as="geometry">
                        <mxPoint x="160" y="600" as="targetPoint"/>
                        <mxPoint x="270" y="330" as="sourcePoint"/>
                        <Array as="points">
                            <mxPoint x="270" y="600"/>
                        </Array>
                    </mxGeometry>
                </mxCell>
                <mxCell id="kqk9PrzO4SxZUDdawp0W-12" value="Name : How_to_make&lt;br&gt;1st coloumn : Recipe_id (foreign key)&lt;br&gt;2nd coloumn : Ingredients&lt;br&gt;3rd coloumn : Method&amp;nbsp;" style="rounded=0;whiteSpace=wrap;html=1;" parent="kqk9PrzO4SxZUDdawp0W-1" vertex="1">
                    <mxGeometry x="190" y="240" width="150" height="80" as="geometry"/>
                </mxCell>
                <mxCell id="kqk9PrzO4SxZUDdawp0W-13" style="edgeStyle=none;html=1;fontFamily=Helvetica;" parent="kqk9PrzO4SxZUDdawp0W-1" source="kqk9PrzO4SxZUDdawp0W-14" edge="1">
                    <mxGeometry relative="1" as="geometry">
                        <mxPoint x="90" y="450" as="targetPoint"/>
                    </mxGeometry>
                </mxCell>
                <mxCell id="kqk9PrzO4SxZUDdawp0W-14" value="&lt;font face=&quot;Helvetica&quot;&gt;Write a database initialisation script. Create a SQL script that will:&lt;/font&gt;" style="rounded=0;whiteSpace=wrap;html=1;fontFamily=Courier New;" parent="kqk9PrzO4SxZUDdawp0W-1" vertex="1">
                    <mxGeometry x="30" y="350" width="120" height="60" as="geometry"/>
                </mxCell>
                <mxCell id="kqk9PrzO4SxZUDdawp0W-15" style="edgeStyle=none;html=1;fontFamily=Helvetica;" parent="kqk9PrzO4SxZUDdawp0W-1" source="kqk9PrzO4SxZUDdawp0W-16" edge="1">
                    <mxGeometry relative="1" as="geometry">
                        <mxPoint x="90" y="550" as="targetPoint"/>
                    </mxGeometry>
                </mxCell>
                <mxCell id="kqk9PrzO4SxZUDdawp0W-16" value="Drop any existing tables (if they exist)" style="rounded=0;whiteSpace=wrap;html=1;fontFamily=Helvetica;" parent="kqk9PrzO4SxZUDdawp0W-1" vertex="1">
                    <mxGeometry x="22.5" y="460" width="135" height="50" as="geometry"/>
                </mxCell>
                <mxCell id="kqk9PrzO4SxZUDdawp0W-17" style="edgeStyle=none;html=1;fontFamily=Helvetica;" parent="kqk9PrzO4SxZUDdawp0W-1" source="kqk9PrzO4SxZUDdawp0W-18" target="kqk9PrzO4SxZUDdawp0W-19" edge="1">
                    <mxGeometry relative="1" as="geometry">
                        <mxPoint x="90" y="650" as="targetPoint"/>
                    </mxGeometry>
                </mxCell>
                <mxCell id="kqk9PrzO4SxZUDdawp0W-18" value="Recreate all the tables based on the schema" style="rounded=0;whiteSpace=wrap;html=1;fontFamily=Helvetica;" parent="kqk9PrzO4SxZUDdawp0W-1" vertex="1">
                    <mxGeometry x="30" y="560" width="120" height="60" as="geometry"/>
                </mxCell>
                <mxCell id="kqk9PrzO4SxZUDdawp0W-19" value="Populate the tables with some intial seed data&amp;nbsp;" style="rounded=0;whiteSpace=wrap;html=1;fontFamily=Helvetica;" parent="kqk9PrzO4SxZUDdawp0W-1" vertex="1">
                    <mxGeometry x="30" y="660" width="120" height="60" as="geometry"/>
                </mxCell>
                <mxCell id="D1iThEawHDq5ufX6zuD0-2" value="" style="shape=image;verticalLabelPosition=bottom;labelBackgroundColor=default;verticalAlign=top;aspect=fixed;imageAspect=0;image=data:image/png,iVBORw0KGgoAAAANSUhEUgAAAggAAAGrCAYAAAClnG++AAAAAXNSR0IArs4c6QAAIABJREFUeF7s3QnYdlP1P/DTPOCnQfOgDP1QKpUhKf0MIRGVmQwZQ1ISlVmp9BMNNBDRRClEhkiiASUqZChNkuZRs/7XZ//+67nOe9zDOec+930/z/PudV3v9b7v85yzzzlrr73Wdw177Xv95z//+U+RKXMgcyBzIHMgcyBzIHOgxIF7ZYCQ5SFzIHMgcyBzIHMgc6DKgZ4A4fLLLy/+9a9/ZW5lDmQOZA5kDmQOZA7MEw6ssMIKxaMe9ajaX9MTIPzXf/1X8YhHPKK4//3vX3ughfXC3/72t8Xf/va34rGPfezCyoJZ9d15PppNxw9/+MPi0Y9+dPHgBz+42Y356tocuPnmm4snPelJC50+/clPflI85CEPKdiTTNPngPn48Ic/XGy99da1X6YvQPjmN79ZPOUpT6k90MJ64f/+7/8W11xzTfHxj398YWXBrPruPB/NpuO///u/iw9+8IPFC1/4wmY35qtrc4CBXBj16f/8z/8Uu+yySyODVJup+cLGHGgzHxkgNGbzgjdkgzQiAzu+Pc9HM4ZmgNCMX22uzgChvsfahr/5nnocyAChHp86vSobpE7ZOfJgeT6asTADhGb8anN1BggZILSRm67vyQCha47WGC8bpBpMmuAleT6aMTsDhGb8anN1BggZILSRm67vyQCha47WGC8bpBpMmuAleT6aMTsDhGb8anN1BggZILSRm67vyQCha47WGC8bpBpMmuAleT6aMTsDhGb8anN1BggZILSRm67vyQCha47WGC8bpBpMmuAleT6aMTsDhGb8anN1BggZILSRm67vyQCha47WGC8bpBpMmuAleT6aMTsDhGb8anN1BggZILSRm67vmShAOOWUU4qf/vSnxROf+MRi++23n/mWP//5z8W73/3u9H8NGTRhOeaYYwZ+6+Me97ji9ttvH3jNfe5zn+JNb3pT8ZGPfGSBa/38QQ96ULHkkksWz3ve8xp1iepiAuoYpAsvvLC46qqrZh5373vfu3jAAx5Q+G7vjIdN6O677y40vdB8Bdljff7556d/v+Utbynuda97NRluXl1bZz7K/IqPx7NFFlmkWHbZZYvVV1+9eNjDHjan+fLvf/87rZNhslUHIHz1q18tvvSlLy3ADzK82GKLFe5/7nOfm5vhDJCWugDhD3/4Q3HeeecVX/va14rvf//7xVOf+tTiRS96UbHOOuskfVEm619HvOrPBwltVW+MW8DrGCQ2hC0pk3X4mMc8plh55ZWLZZZZZtyvWXv8K6+8srjoootSE8Hdd9+99n0uxPubbrqpWH755dN9Z555ZnHDDTek/7/iFa9oNFbbi+vMR3Xs1n0QXvCCFxRaMq+44orFd77znZlx77zzzgQKEMO40korFY985CMHfhOlfMsttwz9budKUUbf+MY3el770Ic+tLj22muHKsWhD2pwQR2D9NrXvrY47rjj+o5K8FZZZZVaT/31r39dvPKVrywAsa985SvpHo1uQmAJYgYIgxtXnXDCCcWrX/3qgfymgJ/whCfUmpPZdpF3X3vttYu11lorycYgqgMQ3vnOdxZvfOMb+w7z8Ic/PIGRJsZqtvFsnO9TByD86le/Kh7/+McX//jHP+7xKnTtpZdeWgBl1vd73vOeYr/99it0wRwGAGOwXnpjnN9s7DoGCRjiJPUj37r33nuP+1VrjU+H0+VPe9rTiu9+97u17nEREPTiF784AbqLL7443bf55psXn/70pxM48PckqM58VN9j7ABhjTXWmIkoePhb3/rW4q9//WtB6KFjtMQSSxQEOOhzn/tc8a1vfasQHTjssMPSjxk9EYQACFDca17zmtTm+Nxzz00TZvEwtAzupKgJQACUvPPf//734rLLLksAC+gBqChYCmAY7bvvvsWxxx5bPP/5z88AoQez6sxHAAStxA8++OA0Co/7jDPOSKjenAAQ73//+4dNx6z8/dOf/vS0HnbdddfOAYL1SE6d1WKdhnOw1157Fe9973tnJT+m/VJ1AMKznvWs4tvf/nZqx3zyySenSJZoII8VnX766cmo/OUvf0nRGrruxz/+cW2A0EtvjJsvdQxSGSAAPaIHPO1zzjmnuOuuu5KscTrZiGnTBRdcUJx22mmJ50cddVTt1xFJ/+QnP5lAewAEwIedWm211SYGgOrMx8QBQoCAeLCJ/s1vflNQ0v3CNH7O8xFeqkYWAiBYUEAEotA322yzFLaRavjRj35Ue/JGvbCOQYoIQhV5Ss2ceuqp6RXuuOOOBBQoXgDgrLPOKv70pz8lwOP/Fo7FtMceeySlTEh32mmnxEPXBi+Nc+ihhya+ve51rys23HDDUT9xTt1fZz4CIPB8y8DUh0rbULzPec5ziquvvjp9O2WshznlQHEDeSJjZfrd736XlAZPz3y/7GUvK3jegC0Qcv311xef+cxnClEu96Pf//73M5GlN7zhDTPnIejdLy3HYFAu++yzzwLP4m0a84orrkipkNe//vXFxhtvnK4hC1tuuWUCod7xpS99acE49OuH3zSC8M9//rO4733vO8MXaQaK3PhC5EEf+9jHEs/IKaAC0JbJ7ylN0Q5K8vDDD09hZYSXFCgiw+9617uKL3/5ywm0bbHFFguMY+17jnVkPrfZZptkSIN+/vOfp9/f7373S1GQt7/97cn40BfGDlAOIPIQP//5z6fnr7/++sVBBx2U1l2ZzKHxfO+OO+6YPMNhNAwgkC/OENp2222TnCHfhicM5Kabbpp+/ra3vS39QeTM/GqT3UZv4A1emM83v/nNaczrrrsuyZB3JjfI2EceeWQybgDKy1/+8iRzUruDqI5BKgOEctTOmSrmEznPwf8jMsrjZh/Ykle96lXFuuuuu8BriKwef/zxxfe+972UAgNq6d4yccjoCqkz68Q1EY3xTl/84heLZz/72cWtt96aHFDrjazjF+eULNaRU/qATNLLIkQ777xzmjcOovUtxVCVV7ylLzbaaKOkK+JwJfPAwUbehyzSE894xjOKQw45ZGb99JuTOvNRvXfkCII8GYYG/fKXv0xKFEkxTAIgeJZQDYDg/AgIdFJUxyDVAQiMBWW19NJLFwxAmR74wAcmQeXRVpErQRKJCIBAEVLiQYSNgl1YqM589AMIjIQoD2XEyDJgjB6gWgUSFj0jh5zFISJGeQYBe7/4xS/Sfyn6D33oQ8Vuu+22AOgFZJ/85Cena4xPIVLEjGV5DoEKynPRRRdNyptxq562Ssl5DwYr6lHiXRiCML5VORgFIBhXGoaBY6i8G5J2pJyDyDU94L1cu9RSSyUQViZGCigAgMl66BBGSMQxaL311it4csg6sd6tnTKp7cELcwnkAdlRYyI1F8SwUuDu904Ufpl484AJp4RsAI1SmGV65jOfmWqAwsD3WmfDAIJ7AIDgn7niPDAOjJF3Nz5++7YyMWwMeRu9od5h//33n5FR/yDT2223XZpXMgecmAvOSpkc7kXvM079qI5B6gcQjPmOd7yjOOCAA9Lw1iE+rrrqqgvUc+GNWoWIGm+yySbJiFtzQa6Rlo1aB2uME2VOg8if2jmRMM/0bOAQ+DWW6DV5KqcY6sip8aqRSLIvWlJNMQA7auzKJG1HH5gnoJ8tQNZYOc3h52TTeh5lPqr3jgwQ+r7NmAGCyaMoCQ6Pi6FECnqgv0lRHYMUAMGi8s4MyW233ZaUGOGDVCmZk046KSFMSkBokZGggBBjpXiOoAg3WpgMnd/zngIg8Fopa4KJDxY3/iwsVGc+AiAwXCJOiLJgIEIRUlwMA88ewIL+zYnoF8Pi+igy4sHwrlwTkR/KMaguQGCQGAfywSPgTR544IHJUxAxIyPLLbdcmk8KS2SBIRa6ZATPPvvs9A08jx/84AdJDnjN5KvfyaxNAUIUxvp+QMq7Uk4/+9nPEsAJWfdvhhw/1UJQwBSY+yNELgLIOyLTjBUFaf7KileKkjfI2TAX6FOf+lTyuoIXfsaQeycRBmCLoZACCYDgGvMkDQKIGBNR1iJyeMYj5UEDX3gKTPDUgBb34DewZl35HjxXMwBkDDrsqg5AwCdggBEoE0Ntrq1vzxI1ouPIlO8DWvCmjd543/veNxQgcLo4X3SXefF+wB7Qxlkho6MYpEEAgXdvHhAwyNAy7CIKwKb5Jh/WMVmiC0XUrAFrRm0D3WgtmV8pRO9tPswxIOD9jel6aw8IC4DgufjueRyCSy65pC9A6CenZIRjQGbMFTmyloGwMkD4+te/nvQ78nwOCpBC71u7fs8ZD4DgZ2TBd9A15kU0IaI+veakDmAbC0CAvoNMgHAKGmcEoRcDKDtIcvHFF5+YPaxjkAYVKZrwG2+8cWZHAv4RcEZAuDN2gESxzrAaBIiX1/WJT3wiCXWvMPrEmDOFB9WZj0FFinhGYUT1NKXDaEjnRKGeBc4wRpqMAgFUywVVMU9YUBcgWPAMGwJ4GSHV7Aw9T+KPf/xjMrZ2FYgUAYnehZIrh/DHWYNQnVKhVgotCjojRcP73XPPPdPlQvkAgJP98IiCBn4pZKFf4XzfEMXMZYBQDjtToBSla4VaA9wBAZQv4oEBGhSoORLGpaR54NaVMLG/Y5cKcMA4R6EcXSbsax6kd+IYbGH1z372s+k5cXIr4MCI+TsARy+RrwMQ3GftAz8cBXMcZK6PPvroBFD61SC00RvGHBZBEK5fc80106uI1vgDhOHHOFMMngf0BdAGEDbYYIMEkhlX9RkIgOMweR9GXuRO1MOatA6sC9GYiEhxygBmBOyTA1Fva5w8+b4yQAASI81ULVKsI6fSQr1qEKpFitJwUleeZZ1HQSoQLF3sneilAAgcwQDM1hB94ffAUD+aCkAYtothXCmGxz72sQktYSRlQKFTnv08pXHZqjoGKQAC4RXyF/Ki8ClIIeFYaBY5QYHa/dt1ESrj+YgKDAMIUDWe8CYpOR4PT29hoTrzEQCBEuGBA2iRx7QgRQMilGueelWWh+E74ogjZhSIvKJUA6Lot9pqq/TvMkBggHj3SBQpwDWvl4fUb4EDCxSHuWQoGc4yCb3yZMnSOAGCynmRAEqXYZXaAGzCkIaC7iVvEQWh3Cj4cprE/TxlufCy4vW9ZBjhJ75aM4wbj4qse494vrlcYYUV0vX4zAgACPQC/pnPcs6fYQAIAJoPfOADC7y255544ompnsR3VtMLcTHFW90GWh5oGECwZjkE8uI8UUaAPPBYhaJFZ3wrWe0FENrqjV4AIQBWpBgUgQvPVyvt6S5AhtEexSANiiCYD+AL+W5z0C8ayh7gn/QCg1xO91k75NVcRqrPmNY18FWlAAhkJfSwawYBhH5yChjXAQhkCCACVK2nINEicsBxwe8ACCISfoeiwJXuABJGmY/qvSOnGKYFEMpFin05MoFf1DFI/WoQqq+nKEp+TNiVEWNsCD5BDm91GECIbY4WCs8zA4R7CkGvGgR9KqQU8I+XqK7DYgyP2AKNfh+8CvUAippErfBYHpu3ECHXcu4xCumAv1Bk3grqj+IpBgGo4/3ydqOOwPu4nyKjRBhEyohijZ0wkX9lXMlPAAQeO4U4iJqmGKJIkRcd30pOvQtiWBg0oVmGFQl/UrYie4y17xES5g3ylKUifD/vibFn2MPjs0VM6gYJNzPEFK7vBK6AaDVHcX2ExPHLPAEAnhkRGEDB86M40e/xy3fhoz+2UVs/1p20Aw+TowM48j6jDki0DjAx/xHB6MXrYQChvDVcQVy5sFjUQNQlgGUvgNBWb0idhRcaekMRp7RWAIQwpCI3DJdojcgw4ACU9tty7r46Hms/gMAw8+bJktSLeh4633wJv4volWULMAauEI/bPFrD5gyoRWRJ3U9E2yKCYO3iBVum2Fddh/A+B6JclzIIIPSTU+skAAIHlrFH1QiCqIj6D1E03xoFmbGWAUUyHwDBXETUKwOE0qrrtYthAjig7yO6BAhRaKmqmyKU4w7FQzh5OZET5+nKqTFg0gnVPggZIHy875z1AgiMBk8pCg8jYhMLV4SKEaSgeXOUlu1oDEegf4tZmFOKLcKyXiLyxWEwzS2FD3CEYWUgGTRKMQAhj5lSUDxF7nkYAIW0g9A+Q0VRUxC8J/vFGRNFW4wvhcRL5FGHYqkypS1AME4oPv8Wfldox7h94QtfSMAJyGF4vY/nq773c4ACTyg58o3ncuiMOICgLiAMviiYNcZ7F0ZGPCngRJQH3xR68nCNCcjxMqMAMWoQBgEESlsahKGXkhAFYXTxLlISCsVip4Wwu+/xjoCidAfw14+GAYRItzBYSDEdeRMx4BAwluTJ/JcBAmBFD4hKAkZN9QZASr4Rw+ub8FsUJgACsAA0+B2+SlkyzsL65N19/agpQJCmEfK3DhhWETGGkpEnyzvssEPx0Y9+NM03kAJIA2zAHu/Z74F26T61B+q9pBTCkNKnvovhF7Uxx9aYSIV1Y/6BQdEtAIFuFeULGgQQ+skpXsVuNWuefjBnflauQQAM1Un4Fu/je9UfeEdETwBkGSD8/8KQJtsc5wtACPRe/h4eCk+FMrZoGKVAz66zUAhxBgj/x7U6gG3QNkdGR6ESwlcGS/qBl1cm1zFaPEyKWx69XGDGG44wJ8PF62ccy7shKMNI/8QuhtjiW34WpSF0SFkIf/J2yhXYrmWoeE6MG2MX3Uz9TqQiwu5dAgQ8EZ7nZTHAvgUPKECKtkzei/fmW4CgXluRY+dIOcUQudgYq9znhDGXbgGSyiQCZ068Rx2AwPsEwMJAl8cCahhJoM+zqu/N+JOD2I3SSxcNAwjuAYrwsrxjI8YSdWIk/d63Rg2H3wvBM4resaneIBPVZmBSB741AAKjCuDRQVUKEN1P/zYFCNVxpAaAQoYSUGD4AWRRhTIx7NYs48mwAhZVUktEXhBQxKkSNSmTFBewFymGJgBhkJxGgWs8C8C3lssAgVMA1IrUVCm255Z3Mcz6CALBFF6CdMv5KeGaKCxRdFENvZlACkVxCY+jF8lREgoTpFK3TLw82zssFpM8bapjkHgi3rXKq17vLqcdRVC8MUozvBNhM4sGUiZIjIIiRkYsctcQs8UkdCvMTZmElzptXk3i+XXmg0zxBoW8GZIyUfb2tyMeCKXBEPLYGVrGXiiSJ1PeIy+c6RqLGNIXDo9xoo7E2KJAQoi8LzUHgAXyHlFcCwT6nbVkjq2ViD641m4KXg6DTB7IlXtENRDwYA1SmkCI1Ee/7U91Ighklwyj6pY+7x2V09IjZI4xIbPSCN7FWvV+URjoZ6Id7qUYKXaV3tExrwwQyLkx1Q8wVLzrct6YLhFNAI4oaYaA3uH5I94wcB1V33Fv9LGgu/APOADO6Ba1EYA5Y8GrC+LZehfpKF6/1AdPelin2DoAwTMYf/MMhPi3d+UhR/FavIc6geix4dsYmzZ6g4zgL10OmABA0qH0C5AV20nJP6MKxDCqeMPolaNkvdZ2HYCgSLTcqt84ZFpUTMqs2inSe1pndKF5ighquZESnSjKhIdky1rUS6bciM76BaLNKYBIf0bLY99GXoEkkdigWAciR6K3deXUelAvgI+xVZmToo5ABFK0AuGtn/vjO11r3UUdH5mLjruibiKZiAyQc/M4KJJVZz6q89i6BmESyn4uPKOOQZoL3zFf3nG2zAdDVgUIs5HHdQDCpN+7rHiBpEnuShrHt9YFCON49jTHbGOQpvm+TZ891+S0zXxkgNBUKirXzxaDNOJnzJvbZ8t8ZIDQXqTmmuId9qUZIMzP0xznmpxmgDBspY7h97PFII3h0+bkkLNlPvSwEPYVvpzNKZ7ZGEGQGol+EAo6hVrnMmWAMD8BwlyT03kLEOSJFJjIIQ06+WsUJaLoQ644Kq7rjjVbDFLd953v19WZD8WHCp0o7kGtYtvySlg82qDaejWbT9esAxAUqsWWsMh7tuVNr/v0dJDfVjcQnUO7HH/aY00bIMT2PkCreobIOHnTxiCN830W9rHbzMesTDHwGhQsqdxVVQscKFrhjfWqpu1i4hUEKXpRYTqon3X1WXUMUhfvl8eox4E682FPseuqTUnqPWH4VeUOcIqN+m0xHD7S+K+oAxAUa9qeZY+4rXFdk0iLQszZ0tuk6++bNkCIfgd2LURL+q6/sdd4bQzSJN5rYX1Gm/mYdQDBdi9bolQ629tti08GCAurSDf/7gwQmvEsA4Rm/GpzdQYI8zPF0EYWpnnPxACCULy8qr8159D5zJZHW050qZIKsH0GWrXlS1irHGYVrrQNz35b273sQQ6ybcjWPmQriXtt44sIgr3l0gFCuPbE8gLLJ6l5J9vJbPeztcmWNGHk8vNtJ9HByxgUJMa5NkcQpim+3Ty7KUCwjUmkyhYisttrW5V91bqxkW/yHNsJ441FCawHYXIpKlvyYquv39kWB/AKz8eWOD+PLnQaBw06DbAbzvQepSlAcMCPRkG2okmfVE8XtIaie53f4QeQXya81r/Ddk9rX5OliCDYLhqdIc1HHC2Np3G8uzmI1srj5E1XYzcBCPSmrX+ipXSrnhFlIke2udK5tlna9lblr622mj9J3eCv7XQarFUjCKKl+kSQPXrWdtQuqY1B6vL5eawFOdBmPlpFECiB2E9s36Ue19F0Qntfi1pnL8QwU9r21/o35aJ7VTSjcY19qrqvMdLVfK0uYbqjAQieaXzhziB7rz0fUSL+X/69n2ssZB+sHCflZN+tPgtB+g3EUbQ5xTC3l1UTgECxxiE38dUAQ+x9Z6i0RC2fe0C27UO3956sOkRGLwOAFAHH+tPrwY6Mr2EP8KABS7TpjT3Q5TMCpsH5JgCBsfK90X5WgxrryBHMSKc9YKfcVEqvCB3orEukdwPAXm52AzhxJqxxfNGtD9n/r8MiijA5gCWyGMBhGjxr+sw6AIFRl8Jh/Msk/RIHE6map+TLvKMT7duPRmmcLr1m6LEgfCWfARA4UfbeV5srRTOucr+Apt9avr6NQRrlefnewRxoMx8jAwSvpHEFpRCgwILQtIGXziNAumBBxZQlb4z3oSmIblyKxjRK0WKSsolFokGEk8OgW0KO7InWWYqXEgek6MVOeUXfcosmDhHR7EMzFghac5HoIU/BaIxBWVmEUduQAcLcXmZNAIIv5WFFu1XFeEiaK2RVgRdPGIjk2YXXrzEJWda4SyMi4NM6AAgo7CD/J5fORNBqNRr6kH0Nm3ht8dxpcL4JQPB+Gr4ARBo5WbciLhr78Gyte98LeDlQSYQuogE8Y94u4yXaomBOLQh+OIDJ/VGDAEwAYda6aCMPF/CgSwAGwGEu0TCAwGBzWsiRa+lCsibKgrRc1qnRaYNkU1MguovccLgQPUd3xoFWeKb5jznSVIdjFABBBDaiM/gpIkY3Ail4HGcajMrjNgZp1Gfm+/tzoM18jAwQwoMvRxV09tKprnxaHc+D0Mf53gAF70LYUEcuhVwiABSCwkRUrUHwM15K9GmnxHXLonCkKuLUN4ib0Ue6oQUCB1IsPgpJ6FPoFwlxRp/3DBDm9hJrAhAoWnLIYyqfEy/9RSmTFR4+QAskULKUKTkCXMkRo0/OyzJXPqMgIhQMqTUCYJBfXrIIBPmfZGV5dXabAATrzfr0d7QwNp4Ii8hA7EAIwO53YdiFyxm8aHoEHMVWRhEbvegDIOD30ksvnV5VpFHvfH8A/XKL2bkiqcMAgl1a0flREahIAhI5pdcYfUCV4SarUjOR5qI7gQSAjDx6FtKqPrrqxTUBEBSASxUBHbHbRlrXHJQjsqPyt41BGvWZ+f5ZBhA0hIlWmXE0bpxIJhQWvb71ZucVCLP2Il4/gGCLWD+AYPxy33WtW4U75dso+9iyVu6+JjIQLXEVO1o0lFt5IZRPd8sAYW4vsSYAoQwSGe/wgLVUFaEir1rdai8ctP/++6f2p3Lg6mEAW55XOTVx1llnzbQRj10MamVE1EQZRLcYRTILOE+TmgCEOADJ+5bXFWMvhSKNiOLER/+WUtGuGijinSpARqIOPGIUu0oCILhfhAEgkD70LC2qjdHvuN9p8nDYs4cBBLpRa2MEbKp1qVI03gLO6MlIsajd4AyJoIoixPHhZDPqNLQsdqZEAATz2K83x7Cjq4d9a/n3GSA04db4r20zHyNHEBQVytMihthiplxFCqoAQb5SuBUR2jJBxiIPgyII1W2OZYCgYCe2J5aVDw8kCqnk8HiFAAVUHmc5UOKxmDJAGL+gjvMJTQBC+TQ6RokiB0B5uv7o6V4t7NI+mbIma2SFkSezcfCKb9PnXT97FAAhDoiiyIXahX2FicvnmIyTL/3GbgIQRDqi1gIwj7MVREWkCuJkQDrAWkVxFLGCYsWe4fmKEsQBR5EaLG9zlG6UpqRT8Ay4L+fjp8Grts8cBhDIT5wlgI/OhkCiMiInIk1AmChnRFqjBiyiAYCs5lxRsFg+fjiuCVmONK75w+My0ZXVn7X97jYGqe2z8n3DOdBmPiYKEBhuypHAW/A8fgrSYS+KD+VuLZZA07wSodl+2xzLAEEYTYrBjoeyZyi0KQ8ax7byRBwraiEIjQImDo3i9aEMEIYL2my+oglAMPfqWMiOlIIdL8guGJ69UxzJKiApBEs2FckpyJXfVdRFhqXO1CiInPF64xjiMkDwc/LKs4uT3xSUhUc9LZ42AQjeUTSFMSq3khZBse4Yf9G4AEsMHBDA4xUx4UwEEBc+B5JEbkQG6IYyQAAypCP83hwYt5y6mBa/2jx3GEAASgNQAQH4R15EUvHVKa/qPoAsxNEij+4DJqRi1cKIeEVkQWpHPw68Mwf4GwAhjnAGJtyLzCkeO4yqfFpsm++Ne9oYpFGel+8dzIE28zFRgECB2KIk989gU6RxcpkFYCeDYiUo2d+uJ/ixi2FQBEHxkzPAI91B8VoclDBSVS5PJ0QZkQYK2+IFROLEvQwQ5vYyawIQfKkaA9Encsjw85KloMixd33wAAAgAElEQVSOgjxeL6VLWfOa5YsRxS0MXo4WkGcGrVzFX26UZOdDnNQZEYhpc7spQGDgAXjRQVEX4Iohsn6A/0jHSC0Gv/COZywaoBDPmkauAQTimOUyQDAe4yfSgBTVCYvP5q6U/eZyGEBwH3AZu2cYbvLlj1oVWxrJmsLWOF2wzF+6VGrCtcAsfRn8BSIijRUAoXyGgHHoW88g/5Ee7kIu2xikLp6bx+jNgTbzMRaAQKnKc1VTDFHgJWIQlbWUrxCYKtpAv0KVfo/UCvi9AqjI+8bnR3hXygBAACoAASHLOLddBAJwgKhDuVA0wrsqgi082yIhcrULTb2UOgYpC+zkOFBnPiLnDZTK2YooIREDhV4ROicPvDfHwvLoyI/COuHv6GdAqSoII3MMJqMmnWAsREGrnUFSb/HzclHj5Lhzzyc1AQh2DwHTeIQUavr2KDwUSVAUbEsiYIREBu1Uilok/LLl2FjAFEAmHYN/joYHzoLsfHAEMQKsFH/ORaoDEAAieoiDE7zj1Tt2OCJbZAlvRa7oOiRyZUdJ1HOQQXMSR2fbaSNiYFwRiChKtK0UP0W/EJBhd4h0cVcgrI1BmovzO1feuc18tAIIXTCEIEO2lEsUEZbH5VUADG2OerXYjO3+UPbVd6aoeHoRaWj7TXUMUtux833NOdBmPoT9AYDYBVN9KsUsXE6W+rVNdj+POdJjvd5coZjaG4BBZKvf85p/dfs76gCE6uh2cTAiUTHfj1++L0Ln1WuACakHIL+fQYraBPeq3B/E2/YcGP+ddQBCvAXdRS+RM7qvF2/ImsJGEYN+/KVfI107yOCLiIlUALxdN+tqY5DGPxsL7xPazMfUAMJ8maY2Bmm+fPts/I7ZOB8K9RTyiVxR3HYxSKfNBmoDEMb93sEvkcHIi4tCzFVqAhDm6jf2eu82Bmk+ff9s+5Y285EBwoizOBsN0oifNKdvn43zIZwuhYYUzWooVm2POy2mz0aAUOaXvf8KiKO74rT4NMpzM0CYm6mhUeZ8Nt6bAcIUZmU2GqQpsGHWPHK2zof0g3DwbDvZcTYCBFED4XEh9tjON2sErMWLZICQAUILsen8lgwQOmfp8AFnq0Ea/ubz84om8+EwMI14ePTRyS64oipc0Zi8rK2xUUAr/y70LV1gR4ziWYVidudUjZkKfWcL2J8uh65Kn0esaVK57kblv8JetOeeey5wEJFdEvLN0hKKzBQGIrsB7MAYlZoABAWbCi0VEFe3ZypIjvNN8CsKM+XT7XLQ7U+lvJ0OChcVJ1Z7/uMX3uomaDxFevhlB4Ni4iBtrlXb47divHLu3JwqpFTciM8Kno1rLrsqvmvK8wwQMkBoKjPjuD4DhHFwdciYTQzSFF5voXtk3fmIffuqv+1cqVIcpuTn0ZlT85nqaY9xX+xfDyMEEBhbQVmVVPQzmNExz2FG0YVQ58Fyt1GGVF8GTZvs/tGV0DX2vGvaNCrVBQiKChUJOlhJK+oq6RLJICOAxo4lbaQZ6l488L3mKkCCniSAQPlgrHiGSIJnejYqb+UDqLQNDrI1FchwyJuKf2AGSPBvP5sGZYCQAcI05K76zAwQpjALdQ3SFF5toXxk3fmwVeywww5Lp9ppn1wHIIgWXHfddcmo8ZYZegZKIy+k8JCnX+7MCTDYUqsZF6/XFkE7aNzL0/X7MkAwjn3qcRZBFSC4lzctDG8XwKgh+LoAAQByZok/vqUOQHAQluJMwMIWOrsaNOHREwHFke2+SXREZAA/8BD4EXmwZTROivW9Ij1lgCB6EOkIY1YBQrQxFtFwfxdRl6YLKwOEDBCaysw4rs8AYRxcHTJmXYM0hVdbKB9ZZz54w3H0t21evbbZViMIrgljvMsuu6TTGVE09FJjEN5stAn2e108dfYs9+DQIwQ5l8Ee9ipAiK6MrqkCBD+TqgBKoqPeKBNdFyBEG/V+2w17RRCkIaQYRD5EQBDwJCJgNwewJGVizvSmQNVvsh0UmMLn173udenaMkBwjy16WqoDC1WA4PdxDoZiR+mNSVMGCBkgTFrmej0vA4QpzEIdgzSF11poH1lnPnj6jLAGNNEopsqwXikGx4/7OdIemJcLLDAAogoMFCAgtSBUrrEXr7WcI+f5a9DkSHNNmuTlqwDB+NEYqBdAcHS5kLnmN1oej0J1AEI0eNJWWrqjF/UCCM5j0coasPIcTc8cloYfajqCL3Gao/kQoanWCkhTRNMkqYYqQPA+cTpkL4CgxbNGaFoOR2fGUXjW9N4MEDJAaCoz47g+A4RxcHXImHUM0hRea6F9ZJ354Inqjqj7pnx1L+oFEMoHf5XvcZjQkUceWWy22WbJ042Cxn79DtQYSG0IvfPIAyAIszMmjC3vW6GkMH25BsFzo12xFtHqIkahOgABmAKqBgGSXgDB+RaKEqMzoPdk/JdffvnUIdDvUJyXAjidf/759/gcB6yJ2OCNItEACFo4A1lAgx0iuqfqDliuQTBY+ZyNfhGjUXg47N4MEDJAGCYjk/h9BgiT4HLlGXUM0hRea6F9ZJ35iFbeg05T7AUQMFVxo50PjHTUHvi57YsnnXRSCpkHQOAZR+/88oREoaHQuBB8GSCotnfKpMK+3XffPeXwqwBBO+IwruWjldtMeh2A4D11Jq0WUJaf1wsg+L3vU1ApIqK9bxAeKdQEgKJWoR+gkopRi4DHul5KTThvAEAScQCm8EF9g7qOKkAQzYlWxNqrT7qnQgYIGSC0WZtd35MBQtccrTFeHYNUY5h8SUccqDMfG2+8cdp6aIucE0SDGDOtf4W+L7jgglQsh3itPFThadfYeielID9uHOcqMKDO+7D9MQ4kk2vXorm6nc+hYTxluxhECcoAQeFenLbHIKqVMHbsYvA+5eOBjT9Ky+ZhAEFKhIHjeZePdlc46L2i/fHll1+evh/5uUJK36ZI0IFOSLTDFkY1Cc5hEHGxLRGo8rci0DLoinmJGoI4zCkiCBFB0YRKcyWkHTaexC4GP4tCRf+eRsvmDBAyQOhIvY00TAYII7Gv3c11DFK7kfNdbThQZz622mqr5IU6VVCfgbLBZdQY7vLJoLxTtQIOvkFx5HG8H2+W0QoDJ30QWxV5+w4hCip7/2EgqwDBvn3pBu8SVAYIgEl0YhRpGGUnwzCA4PkMnMiJML+aCyeeqhdg5GMLqAiB0yqRnwnrA1LoiiuumNkC6f+2QPLk43Am6RntlVGcuhrfrR8Cvosc7Lzzzmk3RBUguFaqocyvMkCIM1dclyMIbVZVu3vaGKR2T8p31eFAm/nIrZbrcHbANXUM0oiPyLc34ECd+dDIR29/kQQeLeMTjXhs57NHn4FxLLnthrYdyqPLeYsmIBXxEeK2e8GBTrb/2QboGp613RLIPn1pA9v7eM8KFx/ykIcUt99+eypkrAIE90QhZS+AIO0gLK+6v1ffgAbsSsWDTv+LnRW97vU7kREHTTHm+OX9AQTFf1IA6hMYaNEMRhjhF+8d4LJbA0/s6hC5EYFQbMn7N546DjUeoibmENjybYoagRM/F11xWmYvgCDyoJYhei6UAYK0Q/ScyDUITaRjtGvbGKTRnpjvHsSBNvORAcKIMlXHII34iHx7Aw7UmQ+dE9Uf2H4IBKDoi1B+lNQAAxYNdjT+YZhFFKrEo9cNkaFDDCqwITpRJUZUaiM87l4AwT2Mr7A+KkcQ1AKoYxAJYSxHoToAIfgFKETHRyDKe1cpekH4uaiCnQsBlMrX2lEgshCREOPiB5BQJWDEs0R8UC+A4OcAGuCGygAh6kk8CyibNOUUQ04xTFrmej0vA4QpzEIdgzSF11poH1lnPuJYZrUGPMrYbscIHXvssckL1VDHTodNNtlkAV7yZu1+4BlHgaAcuUK86tG78veiFbY08pKNue666yZjX+69IN0hxC6tYLtekPC6RY0AguicGNv+pEfCaLad8DoAgbfv2/BFdCSOedZoym4EP/c9wv/VSIS6De8oGiDioDjRVkS9IqpNi0RhpGbUdQAVfo+3wFS5zsLv7UQRoVDoGGQ+gD68VrColgOJbkgZARZA1aQpA4QMECYtcxkgzAaOF0UKh15zzTXJW8o0fQ7UnQ8GhHHT3dA2vrlEPGF5dUAnjHXb968DEIwtMiJFYkshgDJXCOgAbtRpSO1M47CsDBAyQJgN6yVHEKYwC3UN0hRebaF8ZN35kLNWFS9lYIveXKGoTTjiiCPS7olRqS5AiF4Ce+yxR3H88ceP+tiJ3R/1GvojTAvEZ4CQAcLEBH7AgzJAmMIs1DVIU3i1hfKRTeZjr732SgV6wuaKBecC6eCoaDJ2D4z6znUBgufYrghMSRcI788FkvLQR8LWy1F2e4zyrRkgZIAwivx0dW8GCF1xssE4TQxSg2HzpS050GQ+dD2U654r4ABL7KbQjbCrUHkTgCDH74+Q/bSOTm4qFlIMakGq9SFNxxnl+gwQMkAYRX66ujcDhK442WCcJgapwbD50pYcyPPRjHFNAEKzkfPVwYEMEDJAmA2rIQOEKcxCNkhTYPqAR+b5aDYfGSA041ebqzNAyAChjdx0fU8GCF1ztMZ42SDVYNIEL8nz0YzZGSA041ebqzNAyAChjdx0fU8GCF1ztMZ42SDVYNIEL8nz0YzZGSA041ebqzNAyAChjdx0fU+nAEFrVK1kMw3mwKc//eni5ptvTm1oM02fA3k+ms2BJka6Dj7jGc9odmO+ujYHXvKSl6TGUAubPtXMSo+Rtddeuzav8oXj44D50N7clt+61LfVsgNVqp3O6g66MF3n5DiV0tEydmH69tn4rXk+ms2KToeOS55LOzmafeH0r+ZAOAtiYdOntsNqkz1qM6/pz+D8eAPzodtpJwDBiXXRV35+sGc8X5FD2uPha9tR83w041xOMTTjV5urc4qhvsfahr/5nnoc6DTFkAFCPaZng1SPT5O6Ks9HM05ngNCMX22uzgAhA4Q2ctP1PRkgdM3RGuNlg1SDSRO8JM9HM2ZngNCMX22uzgAhA4Q2ctP1PRkgdM3RGuNlg1SDSRO8JM9HM2ZngNCMX22uzgAhA4Q2ctP1PRkgdM3RGuNlg1SDSRO8JM9HM2ZngNCMX22uzgAhA4Q2ctP1PRkgdM3RGuNlg1SDSRO8JM9HM2ZngNCMX22uzgAhA4Q2ctP1PRkgdM3RGuNlg1SDSRO8JM9HM2ZngNCMX22uzgAhA4Q2ctP1PRkgdM3RGuNlg1SDSRO8JM9HM2ZngNCMX22uzgAhA4Q2ctP1PVMDCI6AveOOO4o///nPxeKLL170arL0l7/8pbjrrrv6fvN97nOf4mEPe1jx61//Oh3P2o8cM7vEEkt0zbvW4zUxSM6k/8Mf/lAss8wyrZ+XbxzMgTrzobHVn/70p2KxxRbreWwyGVx00UUX+B35/fGPf1yssMIKC7zAb37zm3T0Mdmdi1QHIFi3vv/hD394ce973/sen2m94tkiiywy0YZLjur+6U9/Wtx9993FUkstVdz3vvedlVPQBCA4zpuOIJv42Yv8ns41H72O3f7Xv/5VkEvPneYx13UMkrnzrlW63/3ul77f310T/vzud78rHvrQh85amYk1pdEUHphzxL62pTrzUR27byfFOn0QfMTpp59e7LHHHsXvf//7mbEt1I9//OPFZpttNiPAb3vb2wa2I7bAf/CDHyTFTBn1Ix3f/vjHPxYAxWygOgYp3nP77bcvbr/99uLiiy+eDa8+L9+hznx87GMfK7bbbrti4403Ls4+++x78IFifctb3lLsv//+M7/70Ic+VBxxxBHJIAVZtMBqKByLea5RHYDwzne+s3jjG99Y3HLLLT3BrbVP2R5zzDHFvvvuO5QFrtf29YMf/GBrA8AZefKTn5yACbKuZms30zoAgaF8+9vfXhx00EEJ8KCdd965ePe73510IgKI9txzz+Kkk05K//e9l1xySbHccsvN8Py6664rXvjCF87o47322ivNyzgM7bCJrmOQfvnLXxaPetSjeg7lnX3/q1/96p5AqNdNwD8d8KpXvSp1CO1F1157bbHSSisV3/ve94qnPvWpwz5jKr8HFNk6+omeetGLXpQc7CuuuKL1+9SZj+rgIwEESpaytQCOPfbYwgt85zvfScrk+9//frHDDjsUJ598cnpmAARnFvRayPqUY4RWkNAxYkg/97nPFa997WuLZZddNv1Mu1KT3ws5t+bcCDfWMUiGZ0QI/Cc+8Yliq622GuGJ+dZBHKgzHwEQjHPWWWcVL33pSxcYshdAWGWVVYqnPe1pxUc+8pGZa51hcNxxx6WI15FHHlkceOCBc25yugAIgNLSSy+dFDMQPIw22mij4txzzy0owQc+8IHDLu/5+0svvbRYa621CmfGbL755imC0yu60Wrwjm+qAxDIDoDwmte8JoEsckZnks0zzzwzvRF9euqppxYnnHBCOjvDdwOsjKyorX8/8YlPTGc+nHfeecWFF15YHHDAAUl/mptJUx2DFADBe5pP9O9//7u48cYbi0MOOSRF+nzLi1/84lqv78wLDuttt92W2lv3ouuvv75Yc801i2984xuzNpo75wHCz372sySMz3/+8wuLtbw4KczVV189ITQTXAYITVAb5Uu4gY4VV1yxloBM+qI6Bsk7ff3rXy9e8IIXJKU4W0Ohk+bdOJ5XZz7KAEEEQOqnTFWAcOeddyZv5IYbbiiWX375mUsZRXJOMQuTfve73x3HJ411zC4AQtMX7AIgfOYznykcNDUobdn0vcZ1/TCAEMZg1VVXTUYriOfM4HGYfvGLXyTDv+uuu6bIC6JbAaN3vOMdKSIDYBx66KEpwhrnPgSoYIgnnZptAhBEnKtnBDhXRRrFd5cjd4PmqQ5AGNc8dznunAcIsch//vOfF495zGPuwRsHlAjlRJohIggLK0B461vfWpxzzjnFlVdemU5/ZFie/exnF5dddllazN/61rdS3nGdddYpfvSjHyWlILQoAiOyghy28dznPrewcIAwObqDDz642GeffWb47/6rrroqHSAl/7jBBhsUn/zkJ1PEBXIG6Cy2yG+K9Ky22mrJM/EcyNq9wsnCuO4X5nrf+96XEL2fSe884QlPKK655pqZcXgzF110UVLYnsvzMeakqQlAEDqXRlhjjTWKyy+/fOZVKXSRLpEwdMEFFyTPGFAIEsoVpnR6pPqbvffeO0W85trJdV0ABBGEJZdcMnm8jNogOWXghMiF0eVTRRLwv0rWCRmK3Ku1IZ3J6Ijc8KIpUWOQ2V6poknLXr/nDQMIePHtb387rZtyjYtownvf+97iH//4R9IP1j7H7HGPe9zMo+iQRz7ykcX555+fZA+QsM6DgNanP/3pU5HNUQGCOgEAqAwQ8IFchA4UOaF3pFmAxm233TalYsgLeaQnRaWF6/FYGtB69m7AmPtELLbZZpvEwzDM7Ja0Ir2Jf1Lgoo1BUvB0LeeYHjjxxBOTvpAe5wCaxy9+8Yt9awY8x3fQ1eE0kmXfIlI5pwEC4xUIVei8Tj1AAIT3vOc9SZlUad11171HQc18iiCIHjzzmc8sfD+jHJ6o/OCtt96aQtWUNWXwqU99KiHno446KqVw1GYIlz3nOc9JCoAgI97C5z//+VRwYwE873nPS5EKoIIyEZqjTC2a0047LUViCDMPIwACZUIgLa6Xv/zlxbOe9ay0kAAJx9RaBLwPgNDRrebRCYD+L38H8AEHDKUFRVl/+ctfLnbbbbcFvJ1JKesmAAHA8c7+4NX666+fXrMKEHhnX/va1xbw7nh7FrfIAfmnpOUJzcdcoi4AQrUGYZCckr0tt9yy+MpXvpKMnudXi/EiVE5PfPazn02pOTJs3QAOojlAr7A8RQ1I9wsnz4a5GAYQer0jA6jGwtr86le/mpwL6zPSr3EPmQMaRLfwS/qWDghi/BisaaQ2mwAEoJEeQd6ZTpTClmoI3YQnotaiySIFCOD07WSQcwL0S/dJrwBPdKEjjq1P9R033XRTSlGXaxCAf/IESHDcvvSlLxW777570nVkbJdddkkAQJGy56Mdd9wxzYn1T5bjW6WHOAwAhvmjI3qR+0855ZSUQvc9QLUUiygPRwTImbM1CFCSRYnpZa8Kijch5V0IPDH522FFipRC9bz0+QIQCBFeKTBhuAMgEHKGFMk5ElzGPwxVRAHCEDtd8wEPeEAqTAreQ8GMsp9TRFCsBRIkH2dOhCMttjoAAQBQ/BWpEGBBNIgiiipa7+tnFqTn+g7gJ2pDpIY++tGPJvAySWoCELy/BU+pSpFRQMHHiCCQZb8XaSgX4PlmCo3iQMLdFBkAN5eOtx0HQBgkpzy4YSkGSvld73pXSv1E4Sd5lNIR5QJ25eUZkPmQYqiuD1E6egL4BtY5FhwFRYt0QpmAeMCfgbE2ebvlaJhrrWNpCfplktQEIPR6L04oJ4kusT7DERFhDSczwCTjf/jhhyfgUK5BIEcAgqjBeuutlx4j+oen+CsCISIjWhN1Gtb8JptskgCAuQA+2Cb2yHX0ucLKTTfdNEW1osiSfqQ/EMP/spe9LIE1EdoqcUoC4MTvgAbOIRDN8Z6zAAG6ieIiaC/qDxgieTDkGogLMuMxBEDgqUXBYZlp0FY1Nz9fAAL0Lg0ATOFVAIRyesbih6JFAcqFW8AA4jkoBCXsPFbo2LUQtDAZZBx/l4/pZrSgWcaQ8a4DECjmcs6PEbEghb+qRJgpcSCmXI1MYUlT+GZgZlLUFCAo9uKhCXOL8vAeVOQHQKBEKBOGP3K4Uie8Dso5FBXw5V4gQlRortA4AEIo5V5yii/DAAJlTCmTrXJtk/kRjge05ytAsG7sQmBsfCNeoTPOOCMBInq1TFKACvLoFMbO2ifPZcJDoEoYfZLUBCBEkSKDTA9+4QtfKN70pjct4OxwNK+++uoF0njsj4ilSIt0Sj+AEKnPKkCwrkVJ2aSIDrgm9Jff02sAG9kTwaJTt9hii8R36XUOAR67Jsh3uJY+EoHsRd6bPeSQAT0imnT/nAcIEJYcC6GE7IXDqxRGsAoQFsYaBMaEwEQ1Mt7gH0GILUxCqAp1CFOvIkZRAaFW3oFwPuGyINzv33J18mRCczytIHkzSBeShUirACG2/JRTDJQzoQ1iRCieXuFzYAIA4EH32lbEYPbbbjQOZdUGIJBn789Ls2AB2gAIai/kuyOvS0kACuazukUK760Fi32u0DgAgm/vJ6eA7TCAQNaA5ypAEILFd2Hb+QgQwvhZ57xXDkCQNc7glg2d3wmJ0xfC3FI7DKaoQxCgoV5IrYcU4SSpCUAoFymKksjPA9zsxyte8Yr02tKfjDKnqEo8934RBNEFOf2gcgTBmhUtkL4p6824FkgRmVELInognSGiwYHybylhAIFzFhGK8rsBtb34HvUl7rMm/G3NmMc5DxAwgMEhwMIiUFt1n61FLE+bAUKRDDfDb08y6gUQYq+5lAG+IcZIhTKDJMJgS5cQIqFDhEl6AQDgIRBUebSddtppRkbt5xemg4TVEsh3AXXR2EdIy7bLQQDB+9hnDjRE7YkCHMafHBhLPQSjWlZoQp9yeXHPJJRTG4DgvURoAB3giDcg4iVdI6QtQhIFlwARwHPYYYelXgllwmcKReESL3Au0DgAAlDVT07VFOApsNlvm6NQOLCmQDGiaa61jniRUpnzDSAwfIARL1bUsFpTIRrn90LTcuIhszxYkQX9AqxHhtZaj8hL6BU6x1xPktoCBO8ojy+qTAeKQorqMcCimGWnVLpbapO8McQRQaCr3C+aNQggABaiB3qclNczQCUCThbJIGBm3YvGSq9y2Og7gIzelaYAGMK5M590KjBc7lPh26QP6BRbN6UoRHZ9p1QEp29eAARel9y0cJZCGSEiwmryICGKErPk1IVwIsXAkFnoVcIkDCr3N5gPKYYI/Zf35fYCCBYBBUCYLHKolREWFgQsINgIZ/MmgAa8F2I8+uijEwAh6BaGgjrKAFImoMJvgEfk6wimnKT6AMqaxzsIIMS2QIuCwae4FZUyqu7lSfsmVfxQPmXGA7AIhN4nSW0BgnfkwfHILGCpMmkhi59Rk05Aai0o6Wo1ud/FXCtApSzmAjUBCJRZtU4IOKQ4y42SBsnpfvvtlwoOyTj5leKpFilG4awtevQGY0cZCz0r7BKRm08AgRfKmImaiBxUI7IiA3igAyvDKepn/auLwY/Ic1v3kXbEN2CWTqVXhLsn3TtmFIBg7UQen4NCVnwD4M3bZ/iR6J5vFSmly8gV+ZKSEXGS9h4EEOguPKKzjEFXWrtSjlI2HKNwfuli6WK7TdQhRJdK4MJuMqlFkUi1THQ2B06BebXvD1AhmsvRo1ul4sgz3QqwAAhxzZxulGSCbO+iOMp7yTGUsWKEYgvTsCLFyL2UIxHzASDwrE1+eY98L4CAl1IHtolFdzhKgcCq9ga2CAvlGFu/CJa8F8Dg34SWgSPsAByFQDnwSCBcQsewu97v8Vq4TmQiAAJlRMDLKQbvxmvhRVNmiLcNCBpf2NciAwaiCxywqJJ40v0rRgEIvku4EZ8BBMYL0PF9eBXFudI6Ig29du9QZoBZeS/6bAYKdQBC1BT0+g4AldIEENTIAFXD5FR+mTInjxQ5r6xKwsXmIELDFKriszAM8wkgANkAQj8KMApArLzyyglIIMaEfuGcBdlOLboVux0YJ86BNMOkaVSAQD6kYm0L5yxxNBljURFrElmXsRXb/xl0OonHbwcX8Mp4l4tZI8UAiBpfmoHTRG8GieRI1ZRbqNOj3kEReewki+tFL0Q3OBfINktzwT72IhFhRdxxvToHRZh0MT1ubudskWKvD+YBRwhauGcarT0nvQA8b5hBYtzxAk/qEi+BsKoXIGhVYogZccaoV72CHQuEm/Lv1caU8uB1ABdN5in2azMGvaJAlLltZ5Rd1dOs++2jXjdsPpqMD/2bi++ohIwAACAASURBVF779JuMM5uvrQMQ2r7/IDkFNBk+0YZB26SBacYAWGsiq23feRz3tdnmOOg9pBAYNWC+VydK69T6BuJFHSYdOYh3rwMQ2vKbfhQBJRexcyDG4vywRXRQ9XeDnkfOFApybnv19hn2rp5L3zPsIsHDOntyIqRhAZpJFHK3mY+RWi0PY9jC8PsuDdLCwK9xf2Oej2YcHidAaPYm8/fqrgHCXOFUG4M0V75tLr5nm/nIAGHEmc4GaUQGdnx7no9mDM0AoRm/2lydAUI+7rmN3HR9TwYIXXO0xnjZINVg0gQvyfPRjNkZIDTjV5urM0DIAKGN3HR9TwYIXXO0xnjZINVg0gQvyfPRjNkZIDTjV5urM0DIAKGN3HR9TwYIXXO0xnjZINVg0gQvyfPRjNkZIDTjV5urM0DIAKGN3HR9TwYIXXO0xnjZINVg0gQvyfPRjNkZIDTjV5urM0DIAKGN3HR9TwYIXXO0xnjZINVg0gQvyfPRjNl1AIK99rbV2VOub4FDaPQ80GnOnnsNejSNsUfctdH4yJYxe8FtfdX8RxMfzbbiwC/b1DSX0d7av/1e85/YEmzPu+Y4GubEFkf/1gxH3w7bdXUR1RjHnnJb33QU1NTK7+0pt4fetls9FDS6seXPeQb6KejmaHu252rsVj5q2Xfo52A7sa10mtjYK9+GMkDoDxDMvWZHOsLqm0MezYut2nphaLes/4imfP4fR13bIuv4eb1YbCe05dPvY/u1OdZVVidfcqqBm54E+sAghzfp+KkrYmwxtOWQHGjmR0b1JTDnmlfpY0MedZ31fro36qNgm64eMZp62a5ri6nmVRogxVZ1rZk1bQrS34N8Rmdb3RqtqXFTBgjj5nCP8bNBmgLTBzwyz0ez+agDEOLsBP0v7BGnaPSS92/dMik4zbsoeP3s9eCgtO1Dt0/ftZrTaLSlcQ/lbs+4Jlr2qzv4RiOfaBOsfwLFq0OrBjl688d+dsoV6GBA9N2w5xzZSw6kAC7Oe2EMGH7teTW10SxIIxsgRgc7XTOducGgeG60Etc9T4ttzXh0w2M8GBnv1OQcmfIsZIDQHyBEa2RyAojpP6Dxln9rCKWhEP6RLUCBsQc2zaGOh9pLayzH0Osr4BoywWAz9MCi9ty6oQKscVouA6+pV/lkSLJG5vQ+IQeeq8ESgEnOtWL2f62tNazSVE0zOB0TNQsEKLyPsT2X/GnoBSADukAM2TUOUKGdNsBtbeifAMSMkzJAGCd3+4ydDdIUmJ4BQmdMbwIQnKIYBwhRrpS2U+/CAwMMHDyj5TZFzyNnsAEEnjuvnaJkcClj3hnQQOGi6L/PS9SkqglAABh0uAQ8NAfSitizEKPhZwALr1IDsvKZBqIEgItTOwEJ3fOAEoaHsdGinOeonXkbTy8DhOEAgVGNroO8bx1jL7vsspkmZZoYMdq6ImrXDVA4xAmY4LmTTdEsZ8uQAdearzjCWUSBXDHwgMTxxx9fGyDw9I1nXJ1tURzephMi2SIz3tdaAE5ERZDfA6G6I5JRrZ2BEmNqgieCJQqmhbtvHidlgDBO7maAMAXuNn9kBmzNeNYEIISi9ARAgRE/8MADF3gg71uoV6qAQuYFRrtbCp3hBha0V44wK+UbJA0AYFCcdQGCSIZUAmLUjcdLExKuEiMifcDIlLt9MlCMiOiG3/sGBoGyB3DwKaIVzThcJE+UF1k+hr3pGHPx+joGKSII+ANcIuDTz0VxysT71kremQlxcBMjq6WyKBY501nWmR0iD+WD74xz4oknplQTgAAo1okg6EQbbeelwQAB3j+AWaU4cZMMizAEiVo4wM1zpTWsDakIoFP6AWionkcyjvmuMx/V5+ZGSSPORDZIIzKw49vzfDRjaBOAUD5qWEqAMe3VTpZyjpCw6ACFztgi7cHVLFBWQrMREo63BjAoX8q4LkCgkHmdKA4k4yEyBlUSAVDH0Ou9gRfABEk7OBeF1+fdnUgqDBweZBMuZ4AwPIIQpy/ia5z22WuO8F9InoFlaNWcmB9/RJDMn9oTv5OCcHBakBSTcxsYaiCiDkBw7oI0ARLhEmmqnvwY45N5tSoAcLW9tSiHNJw0GPkDMkSu4kwcrbEDIDWRrSbXZoDQhFsdXZsNUkeM7GiYPB/NGNkWIKy99trJiDOaZWKgeeaUe/TD93uHW+25554pauBgN+kGR5nLKTsYJ0iNgIKwcgShDCLe8IY3JO+yXINQBggO+OFFlsPLxhZRMKYaCVEPxqN8DC/lDyAAAmobKG9pEs8GaBgKXqvitqaUAUIzgAAkMuDlAwDxXDqLgVawai7VpQAF0g+iA2TDgXeiCubL4Url4kARCNGhAAhSGqJgUdjoXnUE5RqEMkAI2dp6660TgAwyriJeKQJGGKCQNggi++RKlEDqyndFusP6cUKl+oPqWmoqZ8OuzwBhGIfG8PtskMbA1BGGzPPRjHltAcJRRx2VjK7dA3YRIJ4bpav6n0KkXClk1eZICJbCpiApaakBXr6jzJE8smp1Fe2uBShEAhSXqRsAJuxw4D32AwjGcT+FrbCQcea5CQ0bQ9U8ACPFQcnz9BwIxTPlbfJOGRg/Zyj8Wx5ZxMT9TqJsShkgNAMIPH1gLI65x+84ih14IDPm0EmrolMIoJNa4p2LPAESimCBBIBREapiQ3JJ9uxMYMQBC+kJQFANCrnpBxA8R8Gu1IUdCgoX7aTxtzoE76i4VlrCNeokgAM/I0OeC6BK1Ym+kUmgw3u5x/3jpAwQxsndPmNngzQFpg94ZJ6PZvPRFiBQqBTxVVddlYw2r5uhpYQYYUoZGFAoqCJdiJWHJDcrteD/Kr4VMXoHhljkgJK3W8A2MxEKip5SV/F92223JW+P1zcIIAAUns3TlPcXyVAkxgONeghhYsqacr/pppuSNwoc8OxECRzfS7H7v6iI+xkuJ6A2pQwQmgEERjOOQwbcyAqZIAtqFcgI8CiS5Pdkx+956GTQ/08++eRip512SsDOfWpUnCBqjs27ZwAZgAUZEZFgsMnCIIAAdDrdFUhVhAu0Ah/GB3gVSUqriUaJjIWsKmBcbbXVUi1CABi/9yx/bJ0sRzuaylid6zNAqMOljq/JBqljho44XJ6PZgysAxDsRWecY693PEFR37nnnpsMOw+Jhy1/HD0LhH4pvmuvvTblXnlovL5yfpbiBCIUF1L2vLryEedSAQy2KAAFKy1g7/srX/nKpOTtOfcN1SO5KW1AJfogiBiUj9SV85U6cHQyxe69gYcg3hzvk7cnsiAM7Lo2lAFCf4Bgfsynra7SBUEMsGJVYA9QZMTNIV4injvARnYYfiDUtkNyFkQuyS5gyMMne8BCEFAg4sDIk00GlLxKIfD+7bABEs19mciECERsx1V8Wx4XSPHudisAmLY8lmXHevDuZM932bJZ7sHRRsbq3JMBQh0udXxNNkgdM3TE4fJ8NGNgHYDQbMR8dZUDGSDkToqzYVVkgDCFWcgGaQpMH/DIPB/N5iMDhGb8anN1BggZILSRm67vyQCha47WGC8bpBpMmuAleT6aMTsDhGb8anN1BggZILSRm67vyQCha47WGC8bpBpMmuAleT6aMTsDhGb8anN1BggZILSRm67vyQCha47WGC8bpBpMmuAleT6aMTsDhGb8anN1BggZILSRm67vyQCha47WGC8bpBpMmuAleT6aMTsDhGb8anN1BggZILSRm67vyQCha47WGC8bpBpMmuAleT6aMTsDhGb8anN1BggZILSRm67vyQCha47WGC8bpBpMmuAleT6aMTsDhGb8anN1BggZILSRm67vyQCha47WGC8bpBpMmuAleT6aMTsDhGb8anN1BggZILSRm67v6RQgaGWaKXMgcyBzIHMgcyBzYH5wwPkjOkXWpXzcc11O9bkue6wjMrDj2/N8NGNojiA041ebq3MEob5BasPffE89DnQaQXAohj7RmQZzIBuk2SUheT6azUcGCM341ebqDBAyQGgjN13fkwFC1xytMV42SDWYNMFL8nw0Y3YGCM341ebqDBAyQGgjN13fkwFC1xytMV42SDWYNMFL8nw0Y3YGCM341ebqDBAyQGgjN13fkwFC1xytMV42SDWYNMFL8nw0Y3YGCM341ebqDBAyQGgjN13fkwFC1xytMV42SDWYNMFL8nw0Y3YGCM341ebqDBAyQGgjN13fkwFC1xytMV42SDWYNMFL8nw0Y3YGCM341ebqDBAyQGgjN13fkwFC1xytMV42SDWYNMFL8nw0Y3YGCM341ebqDBAyQGgjN13fMzWA8Ic//KG4+OKLix/+8IfF8ssvX6y++urFwx72sAW+76c//Wnxs5/9rO833//+9y+e/exnF1deeWVx9913973u3ve+d7HKKqsU97rXvbrmX6vxmhikr33ta8X1119f7LLLLq2eNR9uOuKII4p99tmnoDTL9IMf/KD47W9/W6y88so9P/Pvf/97cc011xQMWlW2yjfUmY9f/epXxa233losvfTSxSMf+ch7PI8MPvnJT17gd+T3jDPOKF7/+tcvcL3twGTyWc961pycnqYA4fbbby9+8pOfJP48+tGPnpPfPOmXbgIQfvGLXxQ33HBDks0nPvGJ99Bz//nPf4obb7yx0MjuOc95TnGf+9znHp/zl7/8pSCX5naac1THIP3zn/9M71olPPP9iy22WOfT9ec//7n47ne/WzzjGc8oHvzgB3c+/mwdsM58VN99pEZJDPlmm21WnHfeeQUFHkRh+vmpp55aMPzobW97W/HmN7+5L++WWmqpgpFYdNFFCwLej0zoH//4x54LYxoTU8cgxXttsMEGxUMf+tDiE5/4xDRederPPOecc4qXvvSlxV133VU86EEPWuB99t5772SA77zzzp7vySgtueSSxXHHHVe85jWv6fstdebjYx/7WLHddtsVK620UgIdvZTTW97ylmL//fef+dXhhx9enHLKKQkEB1HkK664YgK03//+95NCnmvUFCC8+MUvLs4///zi5S9/efGZz3xmrn3uVN63DkD429/+VqyzzjoFJwIIQE996lOLT37yk0nGEGD7whe+MAEItMgiixTve9/7ih122GHmu97znvckuQ19/PSnP7245JJLiiWWWGLi317HIP3yl78sHvWoR/V8N3bEGBdccEFx3/vet9b7//jHPy623XbbpGOf8IQn9Lzn2muvTWv/e9/7XuLxwkJ15qPKi9YAgVKEYL/97W8Xu+66a/HqV786KXATfvLJJxdvf/vbizXWWKO4/PLL0zMDIJx++ukJHVcJUtSYyXgRQdAW8t3vfncCGiussEK6hdCY3NlCdQySd/3973+fwMGll16aFvnCSBD70572tMK8VglfbrrppmL33XfvyZpxAAQPOuCAA4qjjjpqgWdS6GWAQB4pG3J+yCGHzFwLBH/1q18teCQ77bRTceyxx865aW0CEHznYx7zmOIRj3hEcccdd6RIgn9nGsyBYQABIKArgQMg+vnPf35x3XXXFVtuuWXyokW0/v3vf6coFSDqOpGBfffdt/j0pz89Y+iAXVHYV77ylcXRRx+dHK711lsvjf2FL3xh4tNUxyAFQKDnN9544/SO+PHrX/+6+NCHPlR85CMfKY488siBzmX5wz7wgQ8Ue+yxR3HbbbcVT3rSk3p+M6DFpuy4444Do5ETZ9iYH1hnPjoDCF/5yleKNddcszjwwAOT8a/Sq171qoKnJhoA/QVAaILaeIuvfe1ri+985zszKHrMPGw8fF2AwOvaZpttkuBD91Asg3n22WcnJQs04JMFI+Qm3M5zcE2ZLHog6l//+lfyWKtg6R//+EdxxRVXpHSOBSJkH976X//613TvqquuOhOB8S7f+ta3EjjjZXgvYUuhP2G4tdZaawaJu9f88Vye+9znJmMR5H2+/vWvJw9b+Fka6IEPfODM741HUUpFPe95z0vKS7SA0nMdY+P/5RSD53ufxz3ucenPcsst12kEwZi/+93v0jOWXXbZmXetAgTf5Pc///nPZ7wdSoySNqe8Fkrb3xExayxIU7qhCUCgqA866KBkxCjzXuBqSp8xqx87DCBIF7jmZS97WXHmmWfOfMvrXve65CDRoVIPHCuGf7/99kvXWOtkEHDlkIkcnHjiiUnHcKSQlN7BBx+c1pso7SSpjkEKgNDrjACR4sUXXzz94WAFWY/WLOD+zGc+s1hmmWXSrxh+3/ve9743ASepbusU7wAtkQg8BKLoPPdGiiHSMj/60Y/SeO6NNPZVV12VdGOZf6FL6djHPvax6fneSXSHI8h5HgaePRMQ9D3mnw6m48ZFdeajE4CA6TxBzKBgH/KQh9zjmxg4Cl9NAlrYAYJFDeF/6UtfSl4A/j3+8Y9PRgX5m7AIjxF8i0K+V77+mGOOSQue0G+11VYJ9QbKZqAAMQQUMNy8O8bb3wTu85//fDLagBZAYeEx8khNhHcRLhY2ZrDNG2OIHOxx2mmnJa/EIhYONLf3u9/9UmoJsLEwgcWbb745GXLPFfHxe/+PxeteCsFi8x2f+tSnZpB+NcUQis21FqNxjN9likH4Fr8pj3LqwGKVDnvjG9+Y3l3Uy78pj6DPfvaziV/Ct9bAK17xiqScAeO5RE0AgrVs3skRkGcuzclsqQearXwfBhC8tzouUYJyfQ3ZJGciNyKx1prryvU71jtQetlllyVQDvDTI0EReTv33HOLDTfccKIsqmOQBgEEdUKAOZ3EoCMpFHVA9CO5o8ve9a53FfQH4EqvSGHiI0DLCL/zne9M13oWZ4lzyxEJZ5UMW8v+pjfpYgb+y1/+ctKT5J7+5bAE8OLwveQlL0l6Q+RcmuejH/1o0un0o/voNw5WL/Js80F3eqZ3o+ekjPpFUUedvDrz0QlAIIS8vvA0Q0EwWvEnHhRFNAEQtt9++57IikKuAo35FEFgMAkvDwxAIHQQpoUL3b/oRS9KCFXEANKFbE844YSUuvF/oUL3EDyIFs8PPfTQ4q1vfWsCEgwpAyyXKQIBGPDo1T0AAKIKdQECJMwgWgDQNEMqnHnYYYclb4RQG59iAiTk8RhPoVBRDwrKwrCwv/jFL84ARF4OT8AiY3S9D6/HYi8DhN/85jfJM2J0gRPfZLyrr766U4DgO7/xjW+kBYmXkT6oAgSK2jdfeOGFM+sH4PKeFrbIj0WOV3g+l6guQDC/vjlAkPDvbrvtNiObc+mbJ/2udQBC9Z3IJeMvzWD9iSwA6+VaL/dY3/RHGDc6RNqrTNabkDo5niTVMUgBEDhQnAwEKDG8IijenT6hw0Qw6RRF3lIJbM1ee+1VnHTSScmoW4PVFAPw8IY3vCGBJ7+je+li0QNG2r/DuQEI6DVAgCO10UYbJYDGdkk5er77PNe34Tn9x4EDWqRDpC2AlnXXXTdFLlzzgAc84B5sX3/99ZMepwOBCsDP3NF146qxqzMfnQAEqEwxoQrwclGZcHuEv8qe1qabbjoTQXBPr4ITyj9CNXHvfAEI8mEm/5ZbbklGJACCaIJJQ0KHjCVDbjEgkQRI2B/GyM9FCT73uc8lQwxQAWDAAi+DoeXlUypBERb2e4qkTgTBMyzcICE5CwEQCQRtsUD4QAQFCKgwGEG+x+KEii0oNSZA4Jve9KaeOqoMEI4//vhizz33LOwcsHgQwyvs12UEAUAAboT2eFqeR8mUAYIwrv/zDrbYYov0LpQ0XgN7UXhr7nzzoNznJJVz3WfVBQjmWUQo5gRgsl7JE0WXqT8HmgIEUT2ybm0zlNY5oMwwMiBlMi8MqHkhk4oSo+4rrqNvP/jBD048ulXHIAVA4NmLTklVigDQaRwiUdOoPxNBESmhiyI1IHoHuO68887Fhz/84b4AQbQ7otn4FQDBc6UdOD4ASZDUOQeNQ8MZNoeABn0aYFmKzf/9jo4GOIKkHBX0WjP+rpJr6RGAx5zSz9LpAAmAgBddU535qD6zVZGifHLkWk1oRAnOOuushKIQRCSUA/0yWAtzikFOzB9oEgVAIHwWNYqQez+hIEQEG9oNJSFqwKOTD2awGfJqrlGEAhIGPBjpOgABGInUh/cR5rNI1UtUyQIdtO0w8muiJUJvvdJRxiwDBN9IdgDRUATyqsboGiCI2AC5gAEgY9Hia6QYeGOiF5RWyLnoirBlL8Jroc65QnUBgrxqOQ8c30eRUWjlepO58u2Tes8mAIHckzf3AApR5yOCQEcArGUSWQTcGRyATU6ccQoi00C9qn73T5LqGKReKYZ3vOMdqbaNEZdaiAg1Y0rP9SJ8Ahz6RRA4WzFOGSDQT1Ec2WtcYxqbkQcyOADAlp1UdIJxzVU1shNjlSOT5fHZUJEHeoRe9G7+sKtzHiD4UNvVKELCWfX8y0YwA4SiEEGhYAM8RZiLIIjEIFXwdn/wZHspW0aLABEs96u8x1s/491SFFIMdgKUj+kWygfQ1D8wcBZd+bnSEfJx5RoEhqCckwcO1ABEuqAs6AqsgJyLLrroHgWVrvPdFjn0P0jwewGEcr41FMk4AIL3FIKV/pIGEQ0JgKAWAsiSPkEAceQ/pUDKJAVBgQNYc4XqAAQV8PKllGS58EoUwe/Ce5sr3zzp96wLEBg3KUUerfVa7gEQETTGxJoKsnYf/vCHp1QPg0z2hK2D9Eywfq1d2ygnSW0BAlBjWzHjWpYt30rmRJurRA/Skb0AgkifSGZQGSCwX3SnOi5p3irhLYCljguQsNvKHEn1eg/62DzZ0cTgV0mEInR8+XciROaUHfWNnCJpXBHgeQEQFKIJ/9r+BelG0VswgcHA+AwQiuQ1Q50Rou4FEKLeQEgtDA/h470LETL8wuEqliMUJqyowO4FL3hBUhAEFbItCyrgITwphAX9CrMFKjZXqqSNNwggKEgDJCzOKJCyoOT/yAGDqcjHXAcBMEJ+wvi2HVFacnv9qAwQ8EpdQOT83BORkHEBBJ4A7wtPEaAgUuDbRWYURyHASZrIQq56ZAAefpvLcRUada3ghwGE2K0BoJUjXt4DGDL3FCDZyNSbA3UAgmJXeWtAjA6oOgnSfnStFK5UFhJho1uk7dQHidICt4B1pHEZHzl6jke/vgDjmre2AMH7MOgcT8ZSVNTatMtDehXoiWp/cqm+QL0G/RO6IyKp0pyDAILop+dIjwIXQUAAwE/vAWT0g1QGfSsaG3YtIgj+FuWMiCcgQRfQg+WUb3ybNQMQeD+k7kKkgsM1LwCCj4qaA54r9GX7HIbyGBkDzGIYIOJIMfCme4WkhSpVcJY7g82HGgTCZF9zWbn2AgjSBvKHPAB8tQDwDHLl3WrswxMQ+rfgoWkCTcAoFAZaPpJHB3lDpiILeOrfAEB44QRRkZm58QyKZhBAEL5U8wDlejepEvlQdRWx80IIUw5NkY7FoyeASmBAEXAx/iabbDKzAIUQvatqYAu0DBAAI+CTTHhPhojBlQoYF0DwYrwzCgA/AAQLXLGkkC3ZRhSRAjIGsdp8xvu53hjlFM24FHAX4w4DCHgBBJhXgK9KATDNMwOX6Z4cGAYQGARywyjalVQFBwABILD55punHDUAKjXG+FubZI3MMYrAK0dCUy+1IdakHUhSkZOmUQCCdw29w14ASJwcOofBpheAV+CIHuNA+Xa6EJ84Uoy+Oq9BAAGvOG7S4xyZcKjoVWud/o66K86XVLG58j5hq9R8cNKiRopOFIEEGsxNtSmc9/YN5pSOZidFKun6SDH0Kmwcdf7qzEf1Ga1qEMqDKBqRRyk34jChmGmSIoc2rJOiRVFFTibDOCIUUagyKpO6vn9YHwSGDSBQIRvk/wSzvN3Q7yxwyJWyRXiiCIaHL4TGe4VGI8QGhSqu4VX4PZChcOb9739/CoUzsPjHuxDhIZg8f8oeYiWklL6IRQAEhpDxK6cYvItiG4sniheBDkqIkDPoQIlFFTlS3rX5i14HDE0Z/EXNRSg3AMHiVvmLePJAJ14h0Qpgp0uA0Ku/RoBSAEFaRXWyKAklEfUW5g4A7rW9T6W47U1Cl/06xHUtg6OMNwwg8EhVcPfrFBkFuAyU4q285bE5QIjtfP3mMSJ+1hCjF43G6FZgPKr/3c+gAeKR5gI4OBK9wtyjyE2de+sYpEHbHOkr+hMYYGMUCUr10UPRTVIKQFEzUIDwCHiiSxU6izzQTcBFUKQYonBRxMU10eiMDHsGfVMGa7El3G6SarM3qVz2jk5H3kFEsV9TP9ebS89GoiPmii62jqynrqnOfHQOEGJAE8NLZgTsVAjU1fVHzrbxhgEEBg8vevX87/cthJkxYmB6Nd4RygIGeN69+MxIe67FU039eCZkCwEzgL16ufd7LwuWwbdoehUbAiWMqd9F/tR7UnBtmrR4nnuN1+s7er3nsPloIj/mwFxMOjTb5B1HvXYYQBh1/Hx/kdJyIqvl2qBR+BL6AUDotSPMugFQeaaDCohHeYc697YxSHXGdY1oH91CR1Z1mO9ni/C9iX4LvYlnbQBVNGXimNG9w8CywkYAybWTOBOizXyMHEGoO6Hz9bouDdJ85dEkvyvPRzNuZ4DQjF9tru4aILR5h2nc08YgTeM9F5ZntpmPDBBGlI5skEZkYMe35/loxtAMEJrxq83VGSDk457byE3X92SA0DVHa4yXDVINJk3wkjwfzZg9mwCC1Jfceb+tYc2+7P92WcgJT+Mkw/K7ZoAwuwFCtI6PtGikCvxcCsP/zeE4CgebyvQo12eAMAr3Wt6bDVJLxo3ptjwfzRg7bYBgG6xta4pWKWT5WIW1ikVHJXv/Fbqqx5lmwWgGCLMbINj9YDuzHQXAAB2iIBIpAteTwVH0eh3MZcoAYQqzlw3SFJg+4JF5PprNx7QBgi1jtuvZraOwjLK2PzxaWDf7mgWvzgBhFO6Nfm8bgzT6U5uPYOfWaqutlkBpnKypgNt2feDOTgg7Enq1TG7+tOnd0WY+tmd9MwAAIABJREFUcg3CiPOVDdKIDOz49jwfzRg6mwBCszcffnUGCMN5NM4r2hikcb5PnbFj26Xtvf3Ojakzzmy8ps18ZIAw4kxmgzQiAzu+Pc9HM4bWAQj6ZujNwbvnVdnOquWy3h6aoCFpAq185fzjtFdtvTXCskXVGQP2eXuexjJxAI7teLbyagxmPN3q7A/XhwLp66E7nm3Uto/pBOp++WC1Bf5fPr1Qfw4Nh7xvFSDwDnXds3XWNZ4bLcTtO/dzB6JpmKMBlC3ExtEAZxTKKYb+KQYhfWcsOMhOPxXb/ZxnojkcsuVQAy5dVfVGsXXQdlEyEDUDtn1qykaW1J2QN82lykev64Qa/RDIkR4w0ltkSKdUcuH6tddee+ZsETKqzweZFEHQX8L7kk99DEKG9EXxPr22pI8iN13fmwFC1xytMV42SDWYNMFL8nw0Y3YdgCD3qpEW46kxD8WoIypFq6GW/1O4Oi5efPHFqchQsyj5W3806tLRjvK1b19DGl3y9tlnn2KNNdZIXUA1pKKsyzUImtHoAqhrp46AFLpaBYra+xhLh8/y2QOe4X10vywDBH1I9OLQhIYyl9oAdjQeM54WvtHOGAflnRkHzXJG3aOeAUJ/gKBDrOZt5kq/EYbYYU3RuC16CZARP9ewSzMhZ7sAnwABA665m/bGZEirec2VdJ0kp+ZWIyLzrPWxeTUeUACURg0CIKr7pMZTZFPqCwAlZ1GDQJ51PdSdEeB1noKmSlJifj6bKQOEKcxONkhTYPqAR+b5aDYfTQBCuZsiBQ44OFSIgqV4GXLKGvG0RBkoZW1+AyAw+jrRBZVrEMpFijx499vZwLOPdrUiCyIBDHgTgMBwuFc7cx5qEGPAcwUoAiAAJbqEDmt0U5fTGSD0Bwi8d50NgT8AFLhj+P1bpCDmQGQqIgZC/zorkgP3ifCQLwYwSFRCg7WQOxEKXVtjPAZdzYvur0BmFCkCGsAkeRa9Qu4BEIAK8qqrb3TGJZ9AZhwn0JXM1JWtJtdlgNCEWx1dmw1SR4zsaJg8H80Y2QQgSB1EGJUnDgxEC1xpB96fjoEOBgImXCM94RTTUNSUerlLXT+AQHEzrDy/altbX6hVeBOAELsYHJtMuXtHLY6121Wk5nyNAAh64jvXpCvKAKE/QJAecqifFBLDay7IjPNrwjiL/GidHBSni4oE+fkOO+yQolNlAhyAVNtmRYCku8rHYJevLe9iGAQQnLdAXkWzANi5RhkgTGHGskGaAtMHPDLPR7P5aAIQgIBoXcvALrnkkunES96YPKwcMSVK0fPgbBVj4AMg2HJojDINAwjOtuh1SFQABM/SIz+IEgRkqikGEQTPB1Tkq3mNvFSRAgakDBB4tCINXVEGCIO3OQJpDnsD3MwDw+7sHrLFIxdlADyDnLK4/vrrpxNepbicVRMn3FbnTNRI+st8AxS9qC5AIFuiWiIYihjnGmWAMIUZywZpCkzPAKEzpjcBCOV+AuHFyfMqCqOwKXgAAQkJU6ZqBhhhhrkXQHCegBwuhVtNMTCsfi8aEcDEAWD2qzMkaiD8XgoiCFBRC1EFCCIfQIJ6CIdPISBDGFvdg9xzRBAyQOhGvOoYJHMJNEZBoUJD4EzxqNqSCNmXo1e2xKoBAA78URxbPgLa2xtXkakaB+kDkYQ4+M3v1SgoXAQ2pJnqpBjUPoh+rbXWWunkxSA/9x5krnoSZzec7GaUOvNRfVLexTAi7zNAGJGBHd+e56MZQ5sABCeNHnLIIcn4OyKXMvcHWNh4441TsZldBJTx9ttvXzjpVX5WYWM/gGD3AA9RqoKhLhcpSjOIQkhdGBdAEUrm8dkVochMdTvFLBLhFFOFbI7prQIEux5UxDsdEBhx0A8vVRGik/eEpDNAaCY7w66uY5Ccdoj3TqEEDMyBwlUpgUsuuWQGIJhbsqTAcMMNN0wy4B6yJpIFAAKN5likQH0MGTzppJMSQJW2cKqlUx8dwiaVoa7FeNZAHYBgTE281NQofNQ7QZqKvKlPIOezmerMRwYIHc9gNkgdM3TE4fJ8NGNgE4DAA3eSKPJvx3OrJldXECkGv+O5Md533XVXupZHDiDINSsILBNgwRvjeTEOxi3neDWnUeEeqYnHP/7xyfireHfktlx1HJmrzgDgUJtQBQiiGYyRe4SwEcOiSt21DA0AYtxex4A34+qCV+cUQ/8UA76bF+mpkB3GH7gE+kQQyJMoFTlD5ggIMH8IMAAg4yh6P5N6Mq+iSWQOWCCvIUdOwvUMz/IHKAEk+tUguFekQGEjmXTstAJFpEARUI0iylFkZZz3ZoAwTu72GTsbpCkwfcAj83w0m48mAEEhGSMu3CunWyVV4hQ9cNBkT/iwI9GlAqQAGH+h5yoJL1POwMMwYgDkvNVITEqhZ4AwvNUyubLTQH1IeV4ABGF94EAdAgCps2EvAl7Vo4gI9TqOPuSIDJGlUUgEikwCxqJec4EyQJjCLGWDNAWmZ4DQGdObAoRRewJ09uJzaKAMEIYDhH7TWQYIc2jKZ+WrZoAwhWnJAGEKTM8AoTOmZ4DQGSv7DpQBQgYI45ey4U/IAGE4jzq/IgOEzlk60oB5Ppqxrw5AEP5VmChfP5sbwTT78sldnQFCe4AgHWS3yrLLLju5CZunT8oAYQoTmw3SFJieIwidMb0OQOjsYQvpQBkgtAcI811ktIq2i0NdRK/6mi6/PwOELrlZc6wMEGoyakKX5floxugMEJrxq83VGSBkgNBPbvTwAAwmcXpkBghtVu+I92SDNCIDO749z0czhmaA0Ixfba7OACEDhAwQ2qyceXBPNkizaxLzfDSbjzoAwfYzWxztKXc4kxbF7kM333xz+iNPrNGNzoZB9onrO6Bfvq1quhZWt6jZ4qjvgPGNaf96kO50uivakmgvPLLXXU2En+ln4ERG++E1vLnjjjtSXwTNcmzFvPrqq1OXRf0R7HOPbozGsd3RiZL2tTtqWn3FuCgDhP4AwXxq223boZMR9SdYeeWV01SYO3NkLs1RtQ6BXNriSjb0IqjOoboZ/QnMtXNDyEzU0Oi/QGZs19VECzk2WrdF2yTJM1knz+TKOzoUykFO+iqQLVt69dcgc64PMo7eH+6rPrcqY+UIgkPE1Fz4Fr0hyKt14Rvxx7PLz/Cu1lzdLcU5gjCuFT5g3GyQpsD0PB+dMb0OQKC4HKpDEVOsOsjpYqfl7aGHHpqUJCVOIZ999tmpqyLSefGEE05I/Qncp0mNLnROS0T67++2226p4Yztk/axOxHSsbsUudbMmiTZcx5KXG994Vj74p385z4nRnouwOAoaR3vNLNhXOybv/POO5PhoVDtsdehTydI4wIufq9D3nHHHdcZX8sDZYDQHyDobrjHHnskQ8pg4xVZcVqoNt1AKQPIyOuSud9++yU51CqZ7GimRA40y3J2g+6Yfq9HgXNA3AcwAqIMudbKOihqs+xIZweKRcOlOB6cYSfT3kXr8IsuuijJqBbd5IR8G5/BNq7xGXH/v+mmm9LvjUv2AADdP51QWQYRIR8BEAAVPRyidfgGG2yQjkwHRqQgdJHUUTRor732Sp1DdYXs1fOhlyBngDCW5T140AwQpsD0DBA6Y3pdgOBgHApXl0OdCilG/993332LY445Jp1rQAHzAnlWOiNSsq9//evTkbqMMUWsKIvSZuB1xOP1MdiUMcNPCcdRu3UBAmZomQwEAC/aKVP2OjRSzjrqaaWrmx6D5D2AFs+lXClaClf//gAvnTG4KNK3afIjgrIwUR2DFACB124ORXR40CJJzjwwR2jPPfdMYPPSSy9NRpvx1VSJwWe8gViGnHFnsI1B1gBZ4CPODnFmiH8706MOQNANFOiIw72c5aGlss6KngkY+J21cPrpp6d3YvR1eoyW4PjgxEltn/tFEKwX3ypKYWzgCBgGiHSJBEisK2vPO+ksue6666Zvrkt15qM6Vj6LoS53+1yXAcKIDOz49jwfzRjaBCDolBgd6HjtPHTpgTJRzqIEFLHQPsPsuGYKnScYYX7e4AEHHJDG0I0OiQAwDEK0lGFdgGBMnpaog78pT2AgToE0LvAhxAycUNbOcnAGRJBQLZDDi+2aMkAYHkHQipsBQ+ZKdEokoUxk1TkMQAU5c0ojY8/DNueRPgBSGdozzjgjRZOCdt111wQCRbpEqeoABJGxkC0RMM/h3Z911lkz45JlQNf7SYUcf/zxSf6CRNKAB8+tRhEigqCNM2AQBFz4nRSDA9H83t+bbrppWjNAiTVSp3tojJkBQtcru8Z42SDVYNIEL8nz0YzZTQACBRdtcClC4dRe5Ohd87D//vun6EGcfcC7cuIjJctYyw+LJAjzB4lIUOJqD+oCBAqboUBCuzxGUQ1jVcmpgY6f7kUAjchI15QBwnCAUD6Nceutt+578JEIEQAg/O66kC2Awc9FaXj8jiAXsi/XtIgoAbbkmDdfByB4XkQx4jCvfsc9iyx4p17E8/dc6Y0yBUDwPk41DZICA3CAJFEu7ZwdCkXORS68k/GMW5cyQKjLqQ6vywapQ2Z2MFSej2ZMbAIQhDZDwfG45f97nWAHRIgYUN5yw8Kg0gb2ewulypvysChAQIAnGLTzzjsn70w9QgAEOeY4Rvfwww8vjj766AVqELbZZpt0kiSiUD070hRVbuy9994plM2YAARlEokYtUd/L+5ngDAcIChIBeyQCI8UkfRAlXjg4TUDl4pUefAXXHBBiiAAGlJKjK0iQ8V+QSJZ5I5hFeUCEESMonA20hDlGgSRsDPPPDMNIf1BViOtVn03Hr5THUULotCyfI3nVBuNBUAQ0RDhCKrKPrAtMoFP5Nb/fXcTygChCbc6ujYbpI4Y2dEweT6aMbItQODhUOI87qiiFooVGaBAeT3qCXjrvDBgQRh5nXXWSSFSOVrFaeXQMgBC+fEGpTPkXs8555wFCrEoYICjXKRYBgi+3v1rrrlmOpIXeTbjA6zIY8vvlosp5bClQkQyfFPXlAFCM4Ag6iT9ZPdLFBCaEztRyJcaE8c2A3sKFZFjx13r2HAypqbBvx0XHjLgXgACQFDwZ5zyyZ1y/gceeGCqY4gixTJAMI5CROkEJ0EG2dUjuqDOxE6Lgw8+uFCrECTFoIYAcKnuOAiA4KRTICdIsSK5iSgdsCMl5p2tKbIcoLmuvGaAUJdTHV6XDVKHzOxgqDwfzZjYFiDY1UBhSxso+LITgFdjy6PdAowtj0l9AYVmFwKPTe6fchMaXWqppVKBmd0DDLjQLeNvdwMjznOTewUAdtxxx+LUU09Nf+J0v9jFUAUIxhFlAFREJIxHYfPAeGnyu+ocXCME7fmusSPjkEMOacbAGldngNAMIDDQCk79kW4iO4yu9JTokpSSSI/dCiJH5AyoUJsAfJpTsmmL7RFHHJGOJOehm38GFki0bRGgELY35+QSoFBnMAgg0C92SxiHPAOhQIW6CaBGYaXjp/1bOoO8usfPL7744r4RBJERgBrwAWrOO++8dL37kHUC4Ng+6b2l0ppSBghNOdbB9dkgdcDEDofI89GMmXUAggptirAc6vcU3r0oAC8IKRaTS+UNISkEXp697siuBaFd4VNEmTPYwv1InlVxGuUbJCTMCFCQPDfAgSIvRxCEpMtbwLyncQAAUQ3Kl1IHEhgV++c9Q/QCSZX4PSM0DsoAoT9AIA+2tpZD/eZA6gAoZOQRkGALK3kxh1deeWVKF4SHLWIFJLjH7xl5WxJtl0RSYwAjuYgwP6MuZWW3g4gBYOmaMkB4yUteklIGQYoWyRXg4T7Pco+6B9EBqTE7DwAb5PfSHUBJr3qBiCDgAZCqKFFkwM4a31fu3WFtAbynnHLKAkWQdWU2A4S6nOrwumyQOmRmB0Pl+WjGxDoAYdCIwvcAgB0AwqLVHKufC/9S8NWcf4wrtyuqwGPstVccGKA47XlvQhS4Z7uvWhxmHOOqWfD7puHaJu+RAUL7TorqVaQEgM+qgSV7UlxAYL/aEWkr0S2y1+uocttvGXXjNzmITKTBLoJB4wbQKBfhDpIbIBhQEk2LxmDl6wFjdQd24vT6/TCZzABhGIfG8PtskMbA1BGGzPPRjHmjAoRmT1s4r84AoT1AWDglZsGvls6TthOp0ADMDo42lAFCG66NeE82SCMysOPb83w0Y2gGCM341ebqDBAyQGgjN3HPdtttl9JsahCAhbbRrgwQRpmFlvdmg9SScWO6Lc9HM8Z2ARCEeqUJhHCjJXL1LYRkhfTLWxqbvencvToDhP4AQU5fGgCPyvn2trMtTC9dJawvXSX9oCC1TFIVUk5Negi0fZ8u7ovtwnVbKvd7ZgYIXcxGwzGyQWrIsDFfnuejGYO7AAh6GSgwVCWuaLEXqUC3/QxQ6IIo/ujX38V44xwjA4T+AEExnyJTu19sEVQP4GdadLehW2+9NY0TXRS1YrZVsRe5xrkJ/UBtm+fP5nsyQJjC7GSDNAWmD3hkno9m8zEpgGAbme1pig27IDsQ7JYAFGY7ZYDQHyBotAUg2I1gu6IcuwiAUHob6gcQbIXVvEiEQfGgbY+KH50fAry2Kfpr837TvCcDhClwPxukKTA9A4TOmD4pgNDZC///gTJA6Jqj3Y/XxiCNCyDEOQbxlYCC3L6thU6GtM1wvlOb+ciHNY0oFRkgjMjAjm/P89GMoXUBgj3jGiJFBzcNkPRB0LUwUgx6Czj1UZhYu2XnHmh5jHSR0wWR9xakCRLvTVSBl20Pu252QX5HiduKyMOzV10DGU1ieITqHvxM331Na2Yr5QhC/wiCA4qc1Ki5kHmUNrLdUK2K7Yk6HYo8mWsyIA+v54V0VS/qF0GoAgT3ij7ZpqhD4Tg6aM42ecwAYQozkg3SFJieIwidMb0OQHAqIuPP4KsxYKCFhe0dv+GGG2YAgpcCJJy4pwGOMw90KdSwplqDoEOco3s1f9GNEdg46KCDZroZ6q2gL4IzH9Q22A/v+YsvvngCG0LTxtVkSW9+PRhmK2WAUK8GATBw3LaiQnKhhTFAoHMgICElQA61NSYfvWoHmgAE8iLFoGEX+ZrvlAHCFGY4A4QpMD0DhM6YPgwgaHTEwOlBby92KOU4uU7rW0pWkaIcL0+Qp6fyetVVV00NlHTFqwIEXed0o9PBMGjLLbdMBt85DDrmASYa4USDJcVrPD2RDCdB5hqEzsRgLAPVMUjVIsVyiiEOR9J5E4Ake+YdCBBV6NWAqClAIEPae5PT+V6HUGc+qoKQUwwjLo0MEEZkYMe35/loxtBhAME2NOkChpxBD9KhkOeueYse8gDCaaedVmy77bYz1zikhgGQQigDBBXrnqsPvhRFkMN5gAPb3niO0hnCwL22o+UahGbzPI2r6xikQQChXCdgy6Lx1l577RS9Alh7UVOAsMoqq6RW4aIS853qzEcGCB1LQTZIHTN0xOHyfDRjYB2AIILgnAI54iAhXp693vDavwII5RMSXeccBqkGBt/pd7HNMQ562myzzVINQZWkJoytpWw/zy4DhGbzPI2r6xikQQDBO4tE2Y5ItsiNQ5YAU//u1V65CUCw5dZYUhkORprvVGc+MkDoWAqyQeqYoSMOl+ejGQOHAQRKFEDQxc1WxQjDqh9QR6DGQNQAQNhrr71S+D9IaFhRogN3yhEE/e81VXLSXTni4Bre3NZbb10ADwrWRBE8HwEZjvdVeS78nFMMzeZ60lfXMUi9AIK5VWci8iQqpVeBehRke6I6BAc39SpMbQIQHM6kiNbBSKJd853qzEcGCB1LQTZIHTN0xOHyfDRj4DCAYDSFiY7SZZijonyLLbYorr/++nQYEi8fQEBqEJZbbrm028BOA4WHTsyr1iA4cllYlye49NJLFzfeeGM6lte9jrRV7+DYXkfxikRINTjJ8ZprrkmRBbUKa665ZvHNb34zHW5TTlU048D4r85FivWKFDU4cnKonQsaHEltiSQpVL3kkktSi2FHgEsxqEnYaKON7jF5/QCCExilJxCACpgAG6IQCm0XWWSR8QvClJ+QAcIUJiAbpCkwfcAj83w0m486AMGIChAZZ3lhpEZAEaGtirHNUVGigkRRB5EGYEIRoxqCKkBQa8DACxkLIyM7ERh83qKfAQae4VRGxNDa4saIqFdYccUV0xHUtk/Gsb7Nvn4yV2eAUB8gODZZTYv5V6tCfvw/ZEAtwqabbpp2sfQqKqzTSdEYwMZTnvKUVKA4m8FllxKaAUKX3Kw5VjZINRk1ocvyfDRjdF2AYFSRAp67ugH39SIA4vLLLy8Uf5WPWFYzIOVQbbVs6xrgYbx+WxVVrqtgX3755Rc4ktezRBp4nr2OiW7GifFdnQFCs8OanNmhl4bIUNCVV16Z5t6W2Pm+22BckpgBwrg4mz3WKXC23SMzQGjGtyYAodnIC15tX7uIgILFhY0yQGgGEBY2+ZjU92aAMClOl56TDdIUmJ4BW2dMHzdAEDEQGdCI5tGPfvRCsZ2sOjkZIGSA0NmCHWGgDBBGYF7bWzNAaMu58dyX56MZX8cNEBQXyvOi1VdfPR/33Gx65vTVbQzSnP7gWf7ybeYjN0oacVKzQRqRgR3fnuejGUPHDRCavc38vDpHEHIEYTZIdgYIU5iFbJCmwPScYuiM6RkgdMbKvgNlgJABwvilbPgTMkAYzqPOr8gAoXOWjjRgno9m7MsAoRm/2lydAUIGCG3kput7MkDomqM1xssGqQaTJnhJno9mzM4AoRm/2lydAUIGCG3kput7MkDomqM1xssGqQaTJnhJno9mzM4AoRm/2lydAUIGCG3kput7OgUIDsh40pOe1PU7zrvxTjnllNRyVivPTNPnQJ6PZnOg2+Fhhx2WGhtlGg8HNPfR6XFh06fbb799sfnmmxcbbrjheBibR23EAfPh/ApnndSlvrsYDJA7Vg1no+NwdZhz+Eym6XMgz0ezOdC1TsfDXkcqNxspX92PA7pFLrroogudPnXY0v3vf/9Z3eVyYZJa8+EMik4Agp7oelVnGsyBHNKeXRKS56PZfOQUQzN+tbk6pxjqe6xt+JvvqceBTlMMGSDUY3o2SPX4NKmr8nw043QGCM341ebqDBAyQGgjN13fkwFC1xytMV42SDWYNMFL8nw0Y3YGCM341ebqDBAyQGgjN13fkwFC1xytMV42SDWYNMFL8nw0Y3YGCM341ebqDBAyQGgjN13fkwFC1xytMV42SDWYNMFL8nw0Y3YGCM341ebqDBAyQGgjN13fkwFC1xytMV42SDWYNMFL8nw0Y3YGCM341ebqDBAyQGgjN13fkwFC1xytMV42SDWYNMFL8nw0Y3YGCM341ebqDBAyQGgjN13fkwFC1xytMV42SDWYNMFL8nw0Y3YGCM341ebqDBAyQGgjN13fM1GAcOGFFxa33HLLzDfc6173Ss1AlllmmWLFFVcsLIoq3XjjjcVll11WXHLJJcUSSyxRrLfeeoWXXnzxxRe49O677y5uuummdK0/lNhaa61VrLTSSsViiy2WrtXwQZOXfqTJ06677jr2BjBNDNLHP/7x4qqrriqOO+64/8fenUDvV03/A79+JMQyi8xDvxUy/CSVeYmQDA3IUBIRKUMRhQxFYZUpMk+tyFxUCJEQfokic0jmIWPI9F+vs377+z/f2/N8nnPvc5/h+/2cvVar+jz3nnvvPvvs/d7D2Wfoua/j/R8HSubj29/+dvPJT36y2WqrrZott9zyUrx74xvf2Nz5znduNt988/Wer10Bwhe/+MXmrLPOarbeeutGh8BlIrrivPPOa574xCcuVVOiUoDw+9//PumHr3/960nn6W553etedy0W/+IXv2g+/elPN3/4wx+ae9zjHqlXzagmV//5z3+al73sZc3uu+/eXO9611vINHUxSP/4xz8a9uF973tfmsOb3vSmzQ477NDc5S53mUujJfy66KKLmmtc4xoL4dU8HtplPuJ9xnZSnNQH4dGPfnTD4OUdBDH5b3/7W7PRRhs1559/fnPta187PYfBd/273/3u1LVtww03TH/785//nEDF2Wef3dzsZjdbw6O99tqrefOb35zG1olLp0LXAhK//OUv098222yz5ic/+Um6x3P/+te/poXiN+S/LSbPmyWVGKR4PoVK4CtAmN2MlMzHscce2+y2225Jcf74xz++lAKi0J/73Oc2z3rWs2b3oksycleAQH6/8IUvJGDPUC0T7bvvvs1rX/va5DjQK8tCJQDh17/+dZJHeovO0hGUTjvxxBObBz7wgelTANtb3vKWSb9e9rKXTTrxKU95SvPKV76y4aAF0YdvetObElAC6IC5RVCpQbrkkkuau971rs1XvvKVNG8bbLBB889//jPNIxty4YUXrtHrs/qOZz/72c3nPve55vOf//ysHrHwcUvnI3/RqQHCb37zm+ZqV7vamjE/8IEPNA9/+MMT+v3Sl76U/v64xz2ueetb39pYwEceeWQSbkJM4G9961unqIB2pMiisAAAire97W3JE3Ctibv73e+evBaCBGD4OxJtMA6l/oIXvGDNu3jOrKnEIHmHn/3sZ831r3/9dG7DrW51q1m/1qodv2Q+AiBg0nbbbdeIhuVUAcJo8WHENt544xRdsR6/+93vNptuuunSyNq6ChDoMUaRI8SL5QjRb7e97W2TkbzgggsaHvYVrnCF9I9IAyBxxBFHNM95znNSlJVuRBy0+93vfulvaF0ACNtss01z5plnNq9//etT1BfYwRMOJTvwkIc8pPnQhz40UznbfvvtU1SmAoS12Tw1QCDQOUAwvFTAr371q+anP/1pEvCrX/3qCTCcccYZlwr9EWAKZ9ddd00C8bWvfS3d/5GPfCSFmIIIjLATJQVM5MY/kPXzn//8dPDMPKnEIHmf97znPc0zn/nMFPX43e9+17zzne9Mwg/l8wqAG4v/G9/4RkL/IjB48qhHPWqtzxHOJ6RSAAAgAElEQVQadyARRcCzcABHTvptUxxClfe85z3T+PiPzJV7eR0UEjI/nudAFd7ku971roTWL7744jQf+GkB4793FgKUHnra057W3P72t1/zaB6PyAivUujzSU960qXkYh7zUjIfARCAza9+9avNSSedlJRqEIBw8MEHNwceeOCav33wgx9MB+4AswBvHG7k7xTLYx/72HQtb4gXa4zHP/7x6W+U+2te85oERpYtbdElghBA/9xzz01pRLKJl+NIGhCAIGuUvzXrsJg2D0QrORA///nP05i77LJLGpIOkMbcZ599UtQRkV/yGf3kGVW8vdvd7pZ+iwiCOSWTQuw5eY8b3vCGa+mWWcvlpAgCg2+NPvnJT26OPvroNa/D+B9++OFJX4iGciw4YDvttFO6xpq88Y1vnORKxBV5Fh1wzDHHNHvvvXcyeMscQRAR3mSTTZK+MI95JARI8ptrrDG6E5j3vS9+8YuTDFqn7rGO3/KWtyS744AoMpSPRZ/RX6eeemqKTG+77bZJNjigeLr//vsn/u23337NM57xjDVzgK/ACd57xzzSPUpu2KLjjz8+Rdk4rXT4shyEtpAIQhsgEFp1COgHP/hBc/LJJyfjI6/EELZJKCnqFRh+EyYPZBIPPfTQpDBCObh2VL5tXQAI0iYU4Ec/+tEUOSFwvtFiRr/97W+TYT/qqKOSl2bhW9yuA5ooWR4SBcKzoBiBCf8tZ4l4DZCwhUUogQS8A04YwHPOOSeBL3wWpUEiGhQ247fzzjs3d7jDHdL7ieQgwOWQQw5pbne726U53GKLLdLvAIq/P+95z0vjUtCMI7DnueaJghc6nCd1AQhqYcimeRAJC4WSAwRGRlhd3l29AmXOaO25555JIVEsQrzAsHyxaJb0lzAxPuMD0EUZmS9KY5moC0C40Y1ulN7/lFNOaXbccccE+CnkXBHn33bzm988AVCyDSjgjfXtPqATAbDAwQ1ucIMk96KOakN4lGTyoQ996BrdYRzX8LD9NxKZc6/8NXAQAOElL3lJOmHV75HqpKv8t7C9dTIvmgQQvAcQSXdGitTfnLRJ7hhIsnqf+9wnrbEA964RObBWRVUR4/b0pz+9ueY1r5n0Kl4vM0AQ2qf3OBYMWJukUawl4DKAPZBOrsy7FCHdSoYYb/NLhugxzid+0k+cJboWuBD58g/dJK0AFATAIqf0Kf1mHRvfe/kbPntXengUHXDAAc2rX/3qBGro7dNPPz2B1De84Q1JXyyaFgIQIDJ5I8JNSWI0lGfhQ7EUqLQC49guuAmGMUwMJ4XKoFkMFBAh4FVTYtDiQQcdNBJkLDtAwBvfzhuH6uN9KcITTjghoWOCxKPliVJyDAslSZFCyww14EVBf/jDH05KGSLGZ8IrugJYUQxqOngkvA4LA2CwIEoBgutEKvCdMpaLB0w898EPfnBaKIymxUN5SZ1Q/DxL0QXGljILZD/PhdEFIABeIlLe9d73vnfziU98Ir1zDhCMZ+HzSBkVc/mKV7wi8cT9vhtI472K5oQSo9DIM/ChwJb3EwZynvyY9KxSgEDZiQzxpoR8RU6s29e97nXJsxpFAAIZFCHgHNAPlLq1TMb8HaCkI8g4madPKHGgS6SLMaB0RWMA3Uc84hHpUYwAECwi4XeGhLEJgPCjH/0oPYexpH8QZ+O4445L4GKexWglAKHNP9E4UTo677DDDkteKfliuHIik9b297///bX+zmNeFwCCtXHaaacl0B2O5TiZjbUFNOIPXgDswIBIAhmyfsmqca1TPCSfwKb1F/MuwiByYF2SyTzFYI1zqOiDAPX0s4gvvfjDH/5wZHRUDQlHiYyRZZEfYIF+5CwvmhYCEEZ9NISlgpZxN5kmh6cRSL59D6PzsY99bA1A8DvFbTKABR4LTwByfulLX7omHBTjLDtAEP7ieQcP4n2h/qgE542/6EUvSkowzo0nqAACBA39upYXL7xKOZvwKMIkjIwznlkcQcJ2ELJnA2klEQS8ptiDRA94OKIN4S363TO9K0XEYJrHIOAFcraI53mUcFeAwIjw7qVTGCe8ywECY0WxvPe9711LbBlLRgzgo9h4aRQYsAE4UXhhTCkJYXJKbNmoFCAwxuQ1Iobk0XcJ11Oi4wACYAD8I0AVcLKOecJ4AmAAG8aKa4AGuoLMiqRR4KJpwDO+8qoZS8CAc4LnAFxegyBCZu2QUQaU/JpX4Wepj3lSV4BAroAdMkUv0qNkC0hqAwQRMOsSIMppXQEIHBiRzy4AgTz5bgT8RYFh/v2MOS+eA0Zm/cOJotvoUJEAtoXhFnnIAQLekR+yLaUaJDJKl4az0JYhxZTkkVNgXHIKwJp/oGLRtBCAAGXF1kPeK7SU72yAfnm/BNhibxMj6D5eKY8rUKHJCaJYTOYee+yRvNOINKwrAEHkQLidx4QixSByELxT2Nk2Qjmv8IfCpCQtKCkGQownFAoloSZA7YKFEESY1XJA1aIBbYBAuTOSeYqBUs0VDgPIS6bI2ySCMC4y5FrGdZ7HhncFCMAPeYL+KQaKRCg9ahB4wXg6ihg4HqsojqiZSI56HMW1FIlojzSEf1Muo7ZULlpplAAEskbJ4U+bGHxzjE9t8jdh3NwgB8C07oXHhXhHER1iXhQdSzVyGIzF87N+eMzSl/SNaAQZbhcp2mUF/FHWopGRJhM6nid1AQiANhlmsHiioR/oD1FVadacRL7oRNGsnNYVgBAR5nEpBo6IiA+giR92H/lWc4noQ9G7UWTd0W/GEAUELOhcRGf5+yiA4HmcrXEkMhE1C/k15JG9A6QBUnaNDJPRVQsQRhUp5kwzCbwDeSIph3a+Ulia8WG4eNoWukkdFXGQZ4KiMT3fxrTsEQSLmLDG9sYACPl3MCi8fV5+FBXio2soCV5EeA/+RmHwKj7zmc808q2MFKHGw7x40OKxiPCUovdb/lzFNNIFOUAQtsuNovmJcGXMLaVkIbjX+1ocvIEgHiIj4N3H5ahnoaT7AATvIV/JAEU0S0RHkSIvzvvjc05C2njCGxbhotAVeyo0w19GjbJQUCYywcBFLc0svrvvmCUAQV2M3LbvCU/f86xthXTCsXgwCiAAAQBTUA4QAhRb63nflNimSObJGfAmGqVIEqAADoSOrRd6Bb/lmtsAwbhqFqQWhJKBNLI973koAQicoEhR+SYpvbzWgHMBYLYBt/ohgMf6XRcBQtTsWC/tCBv9IYInKio9BUQACPlOMPcA6ea6vT45UGSIfKrFkK7x3/SZ4k/1U2QJkM0jCOSJMyUKEbUJxqY/pRrotHZUlL6jfzkXniN6xVETYSXzFSCM0VAEH9pjoCBAKYdgLi+VQmYwhQFFGEy2hc47EwaKYjqTBkFTEP7bxActM0Bg1HmVDLpQKBoFEISjGROpGbsdELTrXuFWypjQSi9Qlii8d+E2+TSCK0QOKeMxFOs3+VpAzmJgEBg7IXIUwGQlgIDv6g9iMbnPjhHhPdEGCtAcmxuK2pyLbAjPMYzz3JPeFyBQRnaFiLggCgRAYPABU0A2tvQJUQKyZFV+k3KQ2/SdeEGWKTRRMOMyrt5rGWkSQIjogXfnWeXrzjxTrv7O8KrHyMlvKwEEaShGEbCKHR/kHCAQ9iVvlCu+Aw3+sSYYldgJ4brI747a5kgORb7cm6+tec5FCUBQUCl6INrIcLVBdXi1ZFTY3O8iJ9adVEu7cG5diSCYB9/gW/LtmmQLMNBMj5E1xxFByAECXYcnoq9sCyKL5JqRpoPopNgeH4YeqCJfAbhEWYEMIFKUhtfv/+m3cNhEDuhmzpAC0pxiN553jDqZmB92rZ0Cmqf8xbMWkmKYFEHwcgyVBU1xUhqMlv+WX4PmFZeEUXR97Iv13xCkCSYsFDHPoa1slxkgWMw8pfByxgEEfwcgfCejI+IgMkBhEj454Phd4RUeAQqMsoXF05WLo2igYYVkPDf3UjxqNyyc61znOmk+GHihOvdSuisBBPdBxsAaBYbfvEqABjCxcBhTuWPVuhQ/EEL5jwv/zWqB9AUI8T74A9QEQFBPQIExlLwcOUzPoPRVzvNQURTAhTdNVl3D41jW9IL3ngQQgFAGW/RAtKBNUTjI4wWmugCEfK1b12SMU0Apk83oF6JugKIHVBn7qCcAvvN89CiAIA/MOEiFAAmzbpw2Sq4nAQRRkqjPMh9toKWIj5yRP+BBJEVhHk+VbpS/b3ejXZcAgvcXHaGHRCQV+vH4/cMrtwalnKJIMQcI1hmbApCTT2F9sqpGRlSLUVQMLrJKR5EpQNGY9FrUgUlF2W1E1ugs6xyIoPOsd3pWqix22LTnGb85CeZJWsy6oXMDYBtv0TRXgMArgpYY+jw8uBITeApCtxa2RcDICeGEks3vpXAYyNhuZ+K1wB21FYaAESoCwHjOkyYZJOF9RgKvgiBX7wsV5/Uafmfk5a0JlkUv8hDeEm/UeJQihE2pEObYMuZ+hp6yJbDGxse8eJDgUi74ysMVuWDYzQMUDbxRWNHkKt6Z0mb8vLO584w8JCgHr8kJJUwZU2SiE/OmSfMRPFIhD8S089GUkjy3uhnXICAYD0UOzIH5EGnIIyMMGAMFtLk2tvtSVF3WyLz5NQkgULqApp0xo1r2kicAiqyR69y4UaYUfuwi8G1Rr5IXweKzKn0yD6CJVuXzQonzEsmUyCIif8B3HrplMEV7yGhEHukaoID+APzmme6KuZwEELwvPo0j0asAENYzkM7LNXf0w6h8ufWtdoic5inHecpXF4NknswphyO2s1tHeYjffEulWqP5jgdyIy2DF2GQefkBMEVf6DbRArrJuPphiEwoDAe4pFSlSKN7JZ0qguDf1j+5BlAV1eapn5yfUiCcIms+dK/vUv8QXX/nyf/2s7rMR9zbu1HSvD40uiUuYmGXfGOJQSoZp32N717pm2f9e593ds+k9+o7bul9s5qP0ueva9dNAgjz/J5ZyA7nQZGsyJzmOIugSQChzzvNgld93mOle/oYpGl1yDLwZRneYdS89JmPpQcIQwvt0ONVgzQ0R6cbr85HN/4tE0Do9uYrX21HiWilKJEwfLuIbchnTRprFgBh0jOX4fc+BmkZ3nt9fYc+81EBwpTSUA3SlAwc+PY6H90Yur4CBPUhQsx6KKizmdQitxvXul1dAUI97rmbxMzm6goQZsPXFUetBmkBTF/hkXU+us3H+goQcEExo3yxCnJ5aM3KFkEVIFSAsAi5az+zAoQFzEI1SAtgegUIgzF9mQGCgld70e2YmSYCoHhU4W+cjTEY8woHqgChAoRCUZnpZRUgzJS9owevAGEBTK8AYTCmLzNAiL3lttV6z75UAUJfzk13Xx+DNN0T690rcaDPfNQahCllqgKEKRk48O0l82HLkT3Xtofp8W/LVLRuteWMQbKDRMc1Oewg1ckafqmMt41JA592i2F7q+29ty3U78aIrX/2aiuW0zU0yJYo+XLPFw63/1+3Qs8QFtfQynZXW7/sxY7jcfW9yE/+423bimj7oKr9/LkrsbgLQPBdtoN5H3054ph3Xf7wMlp028JrW56tuIoF3WP7ou21sf0w3umCCy5I2yPxxTW23GrGZH87r19vBVt3bTeLLo54oAmNrbzev71V1d91CMUTW/xss6wRhIEXWsFwJQbJejH/Go/pb2DbqmhRvkY8yvZF8qd/ge3ZftdDx7ZE92nFHLLlTIQ4Hju2kZPBaLdd8Orr5SUl89H+8AoQphSFEoM05SPq7R04UDIfenjoW6A/hb3x9uZrZGKPuT4aDCCFRHnFKY3AgQYs9uLrssZ42+Osm2LszXdeiD3WjHmcpuk8eHu5KS8Ht2i2Ytwge7cf9KAHJcPPQHoX42vsgjSh0j2ToWNE9SLQjpuxtXXPcxhond0oQIbat9iPbc/2pMZAJQCBodd8S68LPUv0yQAO7BDQ0AsAAgqALdfqIaEnifSA73OPveTexbtGukCDNA27vDNw5LsAMgbDP0CBbxKix3f7ye2Txw/GIVoxmxfNwOxxB8IoQoZG7wO8BpYAu5pi6LCQBri0xCDpW6EPgWuBOrLE6Ptb9EAAPAHlaExmzZpT/WCsYf0M8lbN1oImfI711j+DTJI56xpgXa1UMh8VIAwsHSUGaeBH1uFW4EDJfAAI8tqMms6TvBLd9nj8GlE5M4Sx0R3RKY+MlaZIjHd0j4yTNnntFBhDRlFpq+pvPBeNvXjAOqsxmqUAgQF2bgcwQNkxlLwkyk1lvkZCTvPUVEtzIMpPm22ggjHVdta7a8E77ijmYGEJQPAcHQ41gdIMizdGQYt6aFpDqYu46Bzn78CMZj6UvwOTtMAFgPzmDAuGmhEQZdB5E8hyP/CkNbIzFjRPaqcYFBvqb+9sEwbAczVy0hlPMyVFiFrzirQ4/0Lzoej0CJxUgDBf1VFikAIgWH8AKPkl88CnNQUIkhsRtTPPPDPJFjk3tiiabok6GAL05pcckRGyojsv2bB+rW0dXp3lsFqpZD4qQBhYOkoM0sCPrMMNBBB0OIzzFXjIlA1DFh0ShaoZMUaRt8sTBgJsmwuvN7qqxbkCjDiFlhvgOG7YCXAlEQTKMo5Ilg7RgjhOjoxxdSUFFnhTOrx5d+ceBAnZxhkJKwnMJIAQnel444BUNO/yPEbesxnqOH0RsEIiAbw+7xkkeqBbnfSOexgB4Ec0gifI6xeREH3Q6roNEALYiRJEekO0BnADDHQFFX4GnpxwGiTaIm1UAcJ8VUeJQQqAANQ5LA3FCbQ6H5pPoEFX3YjUuYZ8MP5kEKAEBsxvtDi3ZsgsMKGFsg6M0nnL2nBvHjNTMh8VIAw8ExUgDMzQKYcrmY8wNEKPFIZoQLv/ff4awAOlxYPmkUd3T0aYN8+D52Xz+qM1eNwvasCTlxel0EoAgsNeRDhQHMftWPU47Ct/tzjkZxzbhNjbffrzaycBhFC4etWLiLQpeCeCQUEjoKJ92l1+nzbeahikTKQhePso5iI8vzZAkFoQ0RlFUjgB7tqHF4ng4H0FCFMuro63lxikAAj5KZWiUqJ7omaiaCIE4wioBEoBAmMA1oC4tWjtkQkHgQHaInurmUrmowKEgSWkxCAN/Mg63AocKJkPAIGx51EEiRr4//Z5An4XnualMoaMDG9H3lvIUwRBeFvvd2dTMI65lyKk6ZAZRVO8IOcahCE1doTA8xoEYXfXItEHRtwhRbz1NjGGFCEg0T7Xw7UUZ3j1o9g2CSDEwUi8ct8xDiDkpyrikwJK75V7fXEvXopGAFh4az6ElQEZxWZqDQCfNkAAUkQuHH41ikR7ABV1G4xEkPoFclEBwnxVR4lBCoAghRDnK+QAQSRKtAgQJy9tUq9D3tSjkA/gUwRP2krET7pQmk/KS5pvNVPJfFSAMLCElBikgR9Zh5sBQHDiptx9GGqPEKIXtndIlaI/nr1Dt2LHg1SDkDnPmhJzEhwPV2FiEAMtDSCfqpCOZwOIxLHJahqExscBBPcqXhSuF5IP8v8AgS18Dtgybn44ljy9e4GXfLdDm3WTAALlK8Tr3/ghJ4wYXWDHLgQAJAcIfpcHptyBqaDTTz89KWv1A2onhH4dgAUUIEWOwsyAhRQBACYFoTjNTgWtkx2uExEI90gxSMnYTaKA0TNVuCuORACbuhB1IhUgzFd1lBikSQCBXJE/65O8BNG7CogVNgKF0oB2qgCcgKzTbAEK8mneye5KkYj5cmYxTyuZjwoQBp6bChAGZuiUw5XMx6gIgnA3b0RNgt0McuIq7BlYhouiEu7k/TI+vF3jCGmqO7C1UAGVSnyAgdFjRF3Li6HAbNdTsCdVICUhbREnHY4DCAwzYOE6ldruBwa8o3EV9TGiIg2+XWGe3yleBXxqJ1aiSQDBvQw7QEJJ4wl+OHkPcPJN0jNtgCBH7PmKJaUMeIUiLPhKYSt6xB88VJBI0dtBAtQAWIBWRE+kdURVPMP8ADxqGyh86QMpCpEF7+PbvRvghOdO7YvdHBUgTLm4Ot5eYpAmAQTriDwA79YMeQIEpYysN7KIRKTUByFRQIBRagFoABhjV1DHT1ivLi+ZjwoQBp7yEoM08CPrcCtwoGQ+GCVbqPJQvyFPO+20tL0qjhC2714tgMgAcpwrI2mXARLCZJD8Lq3gPsZMNTYSJWDUefZSEcL1wufSAohCU5PA+AZA8EzvkBt22ymFR4GEqH/wOwPMe1ff4BkiEUG+URokIhXjWFYCENyLXwxvpGXUAzC+vDcAgSIXDQji2YsCMOBxD/BiVwOPHi9ET6IYUwTG+yo4cz3Pz7cqWhRBwHfpGH0iHO2r4BH5fsbCu0UdCRAT/BNRABw8twKE+aqOEoMUAEH/kdj+mqcYFOKqgwEOpA3IDSI7AHIcgx2pMGsFCAUibWW2NslG1PTMlwPL9bSS+agAYeA5KzFIAz+yDjclQJjEQF4sJSNa0C62Y7QUPPm7iMKoqmhb+UQkVGCPOjve7gghT793IUrQs0U6ItSf369AUoW/3yf1P4j7SgGC6307w633grBvCQnx68sgHaKqvE3Alvf2zuMKRfFKxCafC8WX/nHfKB4DA36X4lk01VbLw7RaJv/AsMjRSoW3i57vZX1+BQgLmJkKEBbA9BkDhOX6otm+TReAMNs3WX9HrwBhGICw/krIfL6sAoT58Hmtp1SAsACmV4AwGNMrQBiMlWMHqgChAoTZS9nkJ1SAMJlHg19RAcLgLJ1qwDof3dhXAUI3fvW5ugKEChD6yM3Q91SAMDRHC8arBqmASXO8ZKj5sJ1RxfyWW2458u0Vzqm8t6ugNB8/iQ1qF9QOrNS3YNIYXX+vAKErx7pfXwFCBQjdpWb4OypAGJ6nE0ccyiBNfFC9oIgDQ82H3QR6HzhfYBTZZmcbXV59XfSCYy7S5c12RS2BY7vWNOOV3lsBQimn+l9XAUIFCP2lZ7g7K0AYjpfFIw1lkIofWC9ckQNDzcckgGCXA49fRf9KbZpLp8uWLVskbZWsAKGUa+vGdRUgVICwDJJaAcICZmEog7SAV18vH1k6H7bs2RuvRTIwoCVydEjEmAAIOinq4KYpi7bBcea81sY6G7ovtlxpp6wxi05/O+ywQ2rU0gYPWiYff/zx6R4HyDiBUA95fQu8i74Bjoz2vHlQSQRBsydbP/UvAGQ0q9GpDvlNG1ytqrW69T1Btjg6xEoTI9sRHb17r3vda63P0sDGNbaFGjN6TrhIAyS8AZwi7XLOOeekFsx45ywNvRj0kXD0tbE0X5Ia0rlSvwltmc2rPhJ5R0l9/nXcc+qfPfVSRbOiChDGAwTzqRGXdaa9tjM6NM6yfViTMmvU4V5afVtTOemhoVEX2dDrYpdddllr27EtkVqqm2vNychMrEdyRb5ECfXyQLbjWp9OdLUtV5SQPOu54R31Hdl8880b25T169CkSZ8GfTfyNuf0gC6jZ511Vjp51HOX4ZCoChBmtcJXGLfUIC3g1VblI0vmwx55C1/HNV3WdD/UqIhiYOADIETXP0pLvYFmPueee25q59tOMTD6GvgAHuoWNF2yB5+ScPIjY6lREPCgBaxIAUVD6TCa0YCJcdNxkOKaB5UABIbdYVGUHJ486EEPSk1oKBx8cVoiJS7dopWyLo+I0tdq2ffhm34GzpOg1JGGUMCX/gh6SkizMOYMPUW+3XbbJSWu+U30fdChUUMlAED/BIoZcInGSoy+/weyNFwCtPAcsGMUABVNdzRx8ly9KPxuzsad8TDtPFSAMB4gROSMkTanWnRbl8A1I6sjIv6RjQCC+mEAEeRMWk4vDWc5OIPBevO7cZ3H4b812wIq9TXR9VTr8jjDBEAkLwFIyRx9oAGT5+q5oLeIda3ZkncARi666KIkM+SfbHqu52jmtffee6fxyDJgQV+oWYpTYqeVp773V4DQl3NT3FdikKYYvt7akQMl82EB8yx0RrRoNGBh2HQLjL7/IgiUAC+G18Cg6/TGYxA9cG3UIDA0Wi1LDfBkKTsGi7F3VoOzB3RU5GlQetojM3pOrONBASz+vqwpBgCBt+YQJECG8db6Vmtk3Rt5/hRofKNvYpApd/MhOqKzojMj8BeQoNAZb4aAsebdizQ4OROI4MmVAgQiwpuj1M2b+7Te9TfK3/McBLTVVls1J5xwQppH52rozKfTZLSSbh+p3VH0xl5eAcJkgCD6BPgBoNYOUOnsDRE1JFJFzgBKUSZrjFySQ7LncDPtu4EL/AYGOAHkSLQu2nZbp2TQ3DvzYxJAAOJ1RiXLgL62z8AAwOFv0RANOAAwARx64MQTT0zpR3IIhNMhdMkiIwkVIAy1ojuMU2KQOgxXL52SAyXzoS2wRcwgBVEEFIn7tS1maHjKPJEgLVv9P4OuRXIABErpvve9bzoxLg+DMjgOHHI9j5YyYqxCSVAuvBOGMo6SXsYahAAI3hVfkO/lkVPAOd35zndO7acd40yhUtQiBXgpchLfHkdun3/++UmpBgFUlLlwbylAoIgdxoTUhYj08DABjyARHe8uEmJ+RRrikCjXAD5a+lLoQ1MFCJMBgvbKImxIOsg6jHMWYj7I4bbbbptSUgy9iJQ1aM2JJET6AJh1LWBOToMADkXH1qPzUkoAgi6dHAVyS0eYS+mo/NhxABM4FdECSjyHvAdJnQDSnrvSwWlDy117vAoQZs3hEeOXGKQFvNaqfWTJfAhLy6NLEwRFL3eGwilxjAlA4KCkIEZFGsJC998BECiiUccax33aI1MYIg1C5qNomYsUAyAwvlGDwXti3EcR4yxHK5Vw4IEHrrlOyoWXiPdbb7118rjyMY3lrAr9+Rn8UoAQEQf3x6E97dMt4z0BF3ntUUTJA21DUwUIkwECUCjihtQSOJBpFEVNAC9eSk/qAVnTZM0poSJdUndqD0T8gtT4kGXrVyqxBCBIKbgPAa1SVCKBnIE2cRpEB0eRVIfnlrZAH4k2WNAAACAASURBVFoGjVcBwiy4OmHMEoO0gNdatY8smQ8hZvlDdQNBQpsUOe8S4gcQhL8dLxzEuPl/C50XEwBBERNgwUvlyQTxKHgglJfFyRjGIUOu4ZHIfzvimMJa9hSD9w0FJ1zPY8uPoPZN8v7Cv77b9/p2KRkel38UjvHI4sCs/Hht9+Oj1I+iyAAI+BiHTilCFBnIaxAADoAN+bt5bCtxhkRaR4pBKFr0I3LPMRe+bdLhVn0WVgUIkwFCHkmyDsxTHJoWPA8waY7IhOJEBYHWsX+ABlEHMkaOpAEA0SAg3Cmf1q8UobWeP9czpTHyGgT1BgFWyLY6AilKxbFB6muMqQ5HGs0prSIdQSJT1kqA6z4yNMQ9FSAMwcWOY5QYpI5D1sun4EDJfAhJKi6SB48DhEI5RF0CgKBwTuiT4aAc/M1/C7XzcgMgUAByjEKPGiwJR6qw5zFTYEKhCqaAAH0O5CSRIiteDOXCqzWed5IvnxeVFikK2+YAgZIUacn7Nki1GI/3Lsxvh4cccewQUHzIA5QDZqB5/movoiAzPLQ4GVKdgKIvCp/nxihQvBTyOICAbwCguQJeeG6iQ9JHwrt2XMhvAxkMRIAK45OFtlEaYh4qQOgGEKwT4FzuH0hEDt4yr/e///1TdEC6yjHiTvJEkVoyr6IEohF2DyhGtB7JjrQiuYn1xtv/7Gc/m4ppFREDJqKK4wCC55BNcgToA8HWuTQa8En+rXl1CvQDUED2RCHIfk0xDLGa1rExSgzSOvZJ6/TrlsyHxSrfqUJZVIAX4XhgIWYFUjwUBoYXqxJZMR7Fwwt1r2rp9i4GxkZYnQfBMDqaWQidAqPIeBeqmY3tb4weL1fEgdcjjAm4yOFTgO0tXbOalL4AQT0FUEQJirj4HvldEQPhYlEEOwQoZyFfwIoCRqIGlKwoDkUrjeM97C7AJ56gsf3bNZtttllK7fD6pGt4jisBBPllRae8R8DM/zM2jIHCUBEbPAdy7MDw/oABMAO0DE0VIHQDCIw52QEKFB+SHWuCsbUrxq4idTvAqcJYsqNuAfC0lq0zUSVgnbG2luxAsH6t2z333DOBXSDW3IhmSf2pF2LoVwIIogmiE+RTAaW0AtDpH3VG5NTfABt64HWve12KZIhcAM6LpBpBWAD3SwzSAl5r1T6ydD4YGp4kw4YoFIYkCp0UQfFibOcTImfwRBcoBjSqk2KELXkVPFcetnxqEIXHAz7vvPPSn3g4eSEdT0alMwUWWwVnPZElAEHeXpGV1EBeZKVOwP7y+B68waPYV64egHLmWSFKnYLPj23GY4ocz6JwNC9aFBYGsOyCwDsFj/imVoAhUQjJE2zz61Of+lSqdhf5YWDUiUiLBDEKxvZcQNE8R5Hc0DyvAGE8QJCqAxwZ+/z4c1E5hhiwM0dkSjpOFAEBiOY3UlwiQKKCtjAGAQW2DLsfGBCNUgQb5Hq1QWRETQ2vnxEFMsjVxhtvnKIRolw5eQ+OgKiFKIIdC+4LyvWA34EEYGHRVAHCAmag1CAt4NVW5SO7zofQIlrp/APGye/5FiXKh5FhBIUVg2y5Mmb7+nwy/G6sUR0YKbMhOjOWTn4JQJg01iQe4p/vHcdj3+yfcTzzG752PaNi0lxMeu6k7y79vQKE/p0UY45yUNleS+Z53O+TZMDvIXul8xnXjdILXfRA1+dNe30FCNNysMf9XQ1Sj0fUWzpwYNbzQZnwVhW6qUXgySy6AUoH9lzq0iEAwjTPXw33VoDQHyCsBvmY1zdWgDAvTmfPmbVBWsAnrdOPnPV8yFFS+PKhCgsf+ch1W/lVgDB7ca8AYd1eI7OXkPk8oQKE+fB5rafM2iAt4JPW6UfOYz6AA2mAriHvZWTsEABBqFX3RMVheQ44/175Wjs0tLZebVQBQgUIyyDzFSAsYBbmYZAW8Fnr7CPrfHSbuiEAgmJFWwQVY8VOhfZbKCZzcA0wMQTZYaIyXOHZslMFCBUgLIOMVoCwgFmoBmkBTF/hkXU+us3HvACCFtPaSce+9W5veemr7ZbQRlc0Z9mpAoQKEJZBRitAWMAsVIO0AKZXgDAY07sABNsZ7dqwZUxvAmcgoDyCIEoglWDbWTSVcY2tZLaPaXATpJ7DmPoiuN6BN+20jf4EmirZLuZ3TWkUhoociFboS+Fv41IbgzFqioEqQKgAYQrxGezWChAGY2X5QBUglPNqHlfW+ejG5RKAYOeGfg56IUglMNA6E2oao/FQAATNYZxm6RrdI/VI0F/AHvZ2ikHXRAoLAAA4XK/PgWdoSWv7maOd9db3LD0P7I33OxChyyLQ4TcNp2w5XVaqAKEChGWQzQoQFjAL1SAtgOk1gjAY00sAQhyPrZGUA3I0KdLxUeGhjoq60kXLakBAa1kNcDR8cuCVToptgOAcBMBCYyjRCCkDbXR32mmndGaDrngiBnaJaDgFIHim1tU63TlBr6YYBhODmQzUxyDN5EXqoIkDfebjMv8B1Vu0WhFvHzmqAKEP12Z3T52PbrydBBAUFdIHUgM6yAUx0ICALnNxUqXOd3nRoC6K0g1SBDlAoHLsAgEEAIIgrZb9DQBwSI4uelovez7yfO1ydXbUxroChG5zPe+r+xikeb/janpen/moAGFKCakGaUoGDnx7nY9uDJ0EEKLvg7MqHKcbZBeBvL/WxwoPRRCE/52GF+QgKudT6LToHITYxeD8BWcsqCvIu1NGh8nYRhpd8EZ1lqxFit3meRFX9zFIi3jP1fLMPvNRAcKU0lEN0pQMHPj2Oh/dGDoJIMQx2A5UAhKCdJHU92CfffZJR2ADCO9///ubnXfeec01ighFFJzhkEcQvva1r6V+CH671a1udakXFq3Qvtp5GcDCqDa6FSB0m+dFXN3HIC3iPVfLM/vMRwUIU0pHNUhTMnDg2+t8dGPoJIDAqxfiVzgIFPD6EeOuUFA3SekAAEHI36FIQUCA66UDcoBgzA033LB54QtfmA7TCXKy5mmnnZYKHR3i5NhfkQoH5yAARMTCNVIPiiCH6qvQjWvdrl6tKds+BqkbZ+vVXTjQZz4qQOjC4RHXVoM0JQMHvr3ORzeGTgIIRgMC5P1333335oADDmi++c1vpiOwHV3tFD67CaJI0c4DJ+A5QllxoWJFJ9m1ixSdnKimwBHR22+/fQIc/ttRzK5VCGnr4x3veMd09gVA8JjHPCade+F0TSfx2UHhmF9pjS222KLbh8/x6goQ6i6GOYrb2EdVgLCAWagGaQFMX+GRdT66zUcJQDCiOgMevx0LSIGizolSBFIIjkxmrBlz/w88MPj77bdfKkhsAwRHX+uEqCgxToMUkdBMKY6LPumkk1Ikwc4F5LhmR/J6pm2R22yzTSqCpPikHJaVKkCoAGEZZLMChAXMQjVIC2B6BQiDMb0UIHigfggaJUk3jGtMpLBQQyQ1BJGOcO+pp56aIgXtzoeKIC+88MI0XuxWaH+c1IY6hI033nitnzxLpEEKYpnPxagAoQKEwRbsFANVgDAF8/reWgFCX87N5r46H9342gUgdBv5/1/tIKdjjjkmpRv0TlhtVAFCBQjLIPMVICxgFqpBWgDTawRhMKbPGiCIEFzxildM2xkVMZ5yyimDvfu6MlAFCBUgLIOsVoCwgFmoAGEBTK8AYTCmzxogeFFFjNIBCgxXI1WAUAHCMsh9BQgLmIUKEBbA9AoQBmP6PADCYC+7jg5UAUIFCMsguhUgLGAWKkBYANMrQBiM6RUgDMbKsQNVgFABwuylbPITKkCYzKPBr6gAYXCWTjVgnY9u7KsAoRu/+lxdAUIFCH3kZuh7KkAYmqMF41WDVMCkOV5S56MbsytA6MavPldXgFABQh+5GfqeChCG5mjBeNUgFTBpjpfU+ejG7AoQuvGrz9UVIFSA0Eduhr5nUIDgCNerXe1qQ7/jejeeg2c0a9luu+3Wu29bFz+ozke3WdNG+Z73vGdqa1xpNhx44xvf2DzsYQ9bdfr0wx/+cOp6+d///d+zYWwdtRMHzIeOqI98ZDlgG3sWg97r0V+901ussovPPPPMdH79jjvuuMq+fDk/t85Ht3nRLvkBD3hAc+Mb37jbjfXqYg5Qyg6ZWm369F3velc6tXPzzTcv5lW9cHYcMB8veclLhgEIzmyvyG/yZNWQ9mQezfOKOh/duF1TDN341efqmmIo91j78LfeU8aBQVMMFSCUMb0apDI+zeuqOh/dOF0BQjd+9bm6AoQKEPrIzdD3VIAwNEcLxqsGqYBJc7ykzkc3ZleA0I1ffa6uAKEChD5yM/Q9FSAMzdGC8apBKmDSHC+p89GN2RUgdONXn6srQKgAoY/cDH1PBQhDc7RgvGqQCpg0x0vqfHRjdgUI3fjV5+oKECpA6CM3Q99TAcLQHC0YrxqkAibN8ZI6H92YXQFCN371uboChAoQ+sjN0PdUgDA0RwvGqwapgElzvKTORzdmV4DQjV99rq4AoQKEPnIz9D0VIAzN0YLxqkEqYNIcL6nz0Y3ZFSB041efqytAqAChj9wMfc9cAcIRRxzRfOYzn1nrGy5/+cs3m2yySbPXXns1d7jDHdb6TTexD33oQ83uu+/ePOIRj0i//eQnP2me8IQnrMgHTTZe/vKXp2v+/e9/Nx/4wAeat73tbc2FF17YXOYyl2lueMMbNk996lOb+9znPmvGeeUrX9l86lOfaj74wQ82G2ywwVrjf+xjH2te9apXNd7HvdNSF4N02GGHNTr9ve9975v2sevk/TpO3vnOd26+9KUvXappjIY9p59+evOe97xn5Le59zGPeUyzzz77NDvssMPY7y+Zjy9+8YvNi170orFjbLTRRs373//+kb///e9/b3baaafGczbbbLPmuc99bvO73/2u8f7oj3/8Y/Otb32r2WqrrXrP0VlnnZXGfc1rXtPc4ha36D1OyY1dAcKrX/3q5pRTTkk8sM4XRXvvvXfzj3/8o3nLW96SXuH+979/0hPRlMccb7PNNlO93pOf/OTmWte61oqyUvKAUoDgnY8++ujmF7/4RVof9ORDHvKQNY/4z3/+0+iG9853vrMhh7e73e2agw8+uLnyla+85hry52/f+c53mmtf+9rNox71qGb77bcvec3BrykxSL///e/Tdz7rWc9qXJ/TX//61yRnmi1p8NOX3v72tyd7oFFQKf3gBz9obnSjG13KfpTe77rf/va3zQUXXJDeP/TGC17wgmbLLbfsMsxg15bMR/thYzspTuqDoNOiNq0eGkbYhH7lK19pCDJDrkNb0A1ucIPmpz/9aTLKmO8eAOHxj3/8mmu+//3vN+eff35zl7vcpaGk0e1vf/sGGLnkkkuaPfbYo3n3u9/d3PrWt07P9ZwTTjghgQUK+xnPeEa6B+h4xzvekZT1hhtuuNY3Uyieed555zW3vOUtp2Z+iUHyEO9K4Cid5zznOVM/d10cwHdbpBbNf/3Xf631Cfvtt1/z3ve+NynHUeQe3f6AO9eOo5L5IDMUL9m6znWuc6mhrnGNayQ5G0UXX3xxQ+F/9rOfTXLKMP36179urJc//OEPCTSQrxe/+MW9p+jjH/94c7/73S8BqTvd6U69xym5sStAYIC/+c1vJkN87rnnljxiJtfc5ja3acwFXYLI0+c+97k0J0cddVRzyCGHpPU/DZGPjTfeuDEf01AJQDj11FPTnHvmXe9616RHAYbDDz+8OfDAA9Pjjz322Ga33XZL113vetdrjj/++GR83HvFK16x+dOf/tTc4x73aL797W+n67773e8mJw7Y3Xnnnaf5hF73lhgkwB+P2ZJ2C2Dfg3ecv0984hO93sFNABN7wE6U0I9+9KPmZje7WZKfHHyV3BvXAAfsC+BzwAEHNGyjbznxxBOTzlgElcxH+72mBggXXXTRWj3Gv/rVrzZbbLFFQre8ZfTLX/4y9Xp/5jOfmQT+pJNOGolqoasXvvCFCSTc9KY3Xetd3/zmNyePxT9veMMbUvQAYTylcM455zQ//OEPEwBZRoAA0etLDhSJsqw2Ev2xQBjOpz/96Z0/fxYAQUQr99BKXqoNEPJ7AAWAg/e/PgKEs88+O0UGRQF5saeddlo6x2ER1AYI+TtwFOiLdQUg/POf/0wOE0PJOF3hCldIn8MwAp4iVIzlVa961QQgRJgAInrUmTmAwi677JKMrCgbUABkIADTmNZPjDuv+SoxSMsIEAAsunoagMAZ5hSLalWA0DrUiXAy8j/72c+SLD74wQ9OyIkCtbCFmUUY2jQOIIgeQMwW0SgP89Of/nQKA0JrwmnLCBCAGp4N4SM83tUBLs9+9rObm9zkJsk7EDV561vfmha8axwABf3GQTqME4CFl0JWd7/73VPUhBcYdPLJJ6cwJS8PUMOL+973vulnCBpIE3KLyAp+Pu1pT0v/bL311ul9gK/f/OY3CbXz+oVzeSO8809+8pPN1a9+9eShCPdf7nKXS2NTSq997WuTQmNERErufe97r3mvv/3tbwkgGMf3HnPMMekeIWtGlXLjlUv9ILJiTilBixWvKL8hIwglAAHPhDelpoBe/Kb4IoJAAcS7esePfOQjKYpAMUuFUeT+xmB94xvfSOFFAClPQQCPz3/+85svfOELaU7daz6WLYLwwAc+MHmrDM6mm27a3O1ud2vIWxBvnrx6d/OIR2SQDPF0xxEH4sgjj0yeujQlo0ephkH717/+lfhHZsjmnnvumVI61kBEEHifeEj+gDP6h9cs/SjV8OMf/7h56Utf2tAVALrryVOsAzrG2gvnI57B4Zh1BOHPf/5zMvD4a00F0RHkSxgez4EDMpKnTqx9f6czHv7wh6fvD54YJ6JR7fvmARKGBgiAEX4AqObp61//erPttts27EaeLv7oRz+adJUzcsiAyJ7UTEQQrFfpOxEna48si0pKZ+Ddvvvum9a7e/2NrNC95E/amm4UxaErr3vd616Kla41n1Jxt73tbdM68d70H53gO7wjvUY/55H2SXI6zbyVzEd7/MEjCCZD3lQOjTG08DCGscCUSE1AtO0agHEAwSRSuhYGQZ9EmM4IEiAKJycLiRKbd4rhoQ99aDKmQtf4EukNwikKwnASSAoMMLj5zW+eFr1QFYG8ylWukv4uT884U5r46d9Q+GUve9lkPClnyvhe97pXUg6MkpoMilKUxW+QcaRwIlwcYUjGnafoJE/514MOOigJsDmlsL0jvgp/+m/3qRuQR6SoLBxGxCKgcB/72Mcm9guZMnyUoWc7vMZi807kwKKUYmAspGMAwlCcFjRgQpaGBAjCjqPys3jNcHg+BYxfu+66awK8YRDPOOOMNSkGiohcim4dd9xxaW551gDToYcemsLdZJeiMGdkD4+sCetFrhi/PUMEzlh4sEwAgZzxcEVcGOsnPvGJCdSarwjDmvM73vGOCRRxAsgPeSb3eNRei+QCj535AkBaI/6fXNAfkYpiyEUsyLT5ICfWhTBwGEPAwdpwDyBgjUlJek+AgDdHpih7NSJy0pS4b8BrwBmA59wAgp5nbqy5WQOEUfpMfQUQSfakXhkb61AkLic8wQtrki4B3r/85S+vuQQ/yTNdAsDOk0oMUpcIgnkHgsiTOiQG9vWvf30CjeTQ332ndSQNbX1xAsgEJwtAIMfskWvVZ4jKcE5EdsmENCZgRgYBEaCNnhOlFhGnL8iRd6GPvH+7zg3PpRm9C50oEiQy7rmiRebJeBwwOiV0SUQdxsnptHNXMh+DAwQK+0pXulISXIsVyhIOg5j233//9PEUI0MgekCJhBcF5eU0DiA4oY+CpWhdM4kAhDe96U0rXjZPgEAoGEXGg7AFQGDoKSJEWHj6PKkIwUvfyIdTZAobpV0IFsMGEEDAYWgJHQHkseUgilDIFTOy/l0CEIAGzzaviEfHk8eziFZQNuaF8vJcAI5xi9oC95hzng+i3HhCn//850fOSw4QfBdPOg9hq0OB2IcECOMEJJSpSIz3Ak4oYkQGRTbaAIHyGJVioJwpFWMGURoMIjkAwBg0ioJiQMAW0LVMAIGcRvhanlt0AAhiWJ1WiAIg8OQpRBRKnZEddSQ6Aw5wMHBRYIiX5DS+H3iyBlyHAtSOAgh0TTvF4LneN69J8s5y+2RYRIsnCNSEfJJVAIeHOm+AQJcC1niuZko0gxGz1slNTtaVdSm9ytjxWK2fnBhD+jDA+iT9OdTvJQapD0AQkYqixUh70YkMOmeDwwUw0JH4BTQBnAACoErOAPQopHet+Re9AerbKQZggd6OZ+APQKGmDE85Qm0al2Kgp+lFcxJpU9FWumaSnE5T+Oz9Suaj/R1TRxCiFiAG9v+KwCA8yJzXQXFCVQppkImRV8OgnMYBhKhrsFCianklIY4UA+PV9lpMJqU8T4DAi6JoIE5oMwCCyEicmAlMAQeveMUrkmIK4gUhyJfyY/x5t4wlIME44znB5ykBAfnxqqHYKRAKsgQgSDtEesizoXHKZ1T05i9/+Ut6B2mIvKBOiI6Rs1jJAbARXvOoucsBgigIIJDXt3h/BmFIgMCQjCoCZCiiloXnRhkEjSpSxPtRACGUn7kCoIKALYCQEQL6gChGIdaSKAXFv0wAgREV/hTWj7QSr0xUydygAAjC3IAq8t8cAkp21JHogCCFaV5zHlOaDLjIF7luy44ojfXUjiC0AYJrrBfvyXkJ4nVbc0LNFC85ABZyJSySwHDMGyCYezJgTUjBoXEAAfikR/DBGuWEAa85mS96jwGdJ5UYpD4AIZxN30IezW1EeoBJdoQOCSJH+JcXKdJJgIE0J/BER9NhIhJtgMCRE2kSiTV+rptFz+jVth0cBxDoePMaFFFZqYdJcvqUpzxlqukrmY/2A6YGCAwJwUQQGwMYXmQYrXFf1Q57jQMIgbSgL6H4NgnHUTAmEiBZthoEwkqoCSEaVQQjvDpua517GCYLnffKm/bN+CwVYWxgiHKgrCnzIAaOErEQIOk2QJCCcF+eYmCYQ+kbxzOAulHbMy26lbaLGh+AiKrgAIntOcwBgnn2Pb45rrcIydmQAGFSDQJFzSj6hqCopRDdiF0M4wBCRIXGyT/lRikAhEB0UHhFywIQGFkAD0gdRbxzhj4AQg6+IxowDiAAn64fRUC13LAaJiktNTJBIlQiCZMAAkeE9ziOgERpBblmc80rDBK1JLvzBAjC5lIgao1EZ0KXAtzWcTvFIIojYov3nA1rRDovKNbNInYylBgkeowTB7yJJuUExFkb0tJ2P0U0qp2eZpxF6nwr+8PTz3dEAIF0Jl2Ff6Is9Iv1h4ALa3UcQAA626Ar3tO68Fy2L6fSIsUACN5xkpy2I+5jhXrMDyXz0b51aoDQ3sWQP0DoVEW3hRw5b7/L7TFKQpV5L4VxAAHaM6kEw71tgg4JEeP5vOc9b+kAAu9E+iAq20cBhAg1U1LypUGRPyP4PE7EaEK/UhbCbZClkBvlQJB5wEGKuYTOvve97yVvnleUV+dGdCMHCJ6jyCsoQnEiOUGUGEQtVCsNAjzkOwI8w7wBJRC6aIe/tbc3xng5QIgQO+9Cfh55H0BlngAB4FQzwMiEhxARE/nuSQAhUkRym3m1PxkG9ig16wIQoijDM/dMuc9lAQgUt6JD35yDT0qQEY0tj30AAr6osQFygyhxURv5YHJmfIW5eBJEFtAkgBAGSCEsIBcE7HiuCIGQPF3Ea8+3oNE50j7zAAjeU/oOMLcWRVvytYI/1q53jR0KvgUfGDA1V4yiKEi+dmNLbx7V6WpY+l5fapB44dYa7z2nWPOxEyAAAgAtTYeixoKOtV6sKZGhPBUNaKn9AhDCYZJK4JTRmdY04xwR6rZ+VlskvUV+8m3RZFQULdZt/u5dAYL5A5RWktN2lKLrvJTORz7uzAACpQf9EfJRhsHkEF5CEAZxpW2OkfNkrIAKgoB4FtE4x1gmfJkiCFCwqIaFq4ALjQIIEYpV3BL1E+GdR/iTsaQkGBwUeTDfS+B5O3gu5AjZ8iyEenm9gAf+KDaMBWcMRYUU4EoAgZelgAvfKVKGnwIzJzxfz7XIRXeE4NRc8CiBEhEmEQHPyUO80hjupRQtjBwgMAo8S6jf4kbChMDIPAFCFDx5D4VLvlvKR9pmVA1CeDz5HAJP5p/xNCeUEcODR+aE4WWAAbVoFMOjEVJfBoDAcJlf3wGs5p4SfigEwwuyJr1FxrtEENQrAM5CuIrGkMgOjz5kkpEWpWIcRVyiRmVcDQIDQU54iN6X4jdn3itSenZJ8MiAMQbXHAE/1iZihKQbzMmsAQI+ipLY7WJtR71LrqjJjTVm/XpH38VTJo8RicUvRXxSe/QrEpHgTNAl46J3XQ1N6fWlBsl64ET6Ho4eAq7xATCiQ8xPAAS1GFGPEjyIKJZUnm+lAxlv9/obGfZ3DqTC4TzSKkrFg49IBT1GL3EMODhRR5fX20QdjHcMfZzzhX4jt/QG/TGuD0JEEDi5k+Q03+1QOgf5daXzMReAoNjHwqPUQ8nnD+YRWBRQL+aglQACxG/RW/y8aaFyhs+ip3iNx3ihZQIIaiZEBwhqKNdx+2wj9w4EMfTAj28MEBVKDWAg/JQY8KXAC8iiYBRzCZNShBYXLxx6pnAJqXyuCIG5oTgALZGBlQCCdwA0GDSGnyFUKQ2UiE5YnCIk0K/FLiTvWtELz+WlybPzCIMiShALNQcIrolv5R2Ze9/CWxgSIFC47UZa8X4MOj6KzthSRbbwwZygaMrD44wUg1C8eXMdPgCFlDWFZr4oKnOF7wyiamveMiMrZYGH5MR8MwjLABCkCMij9203ssEHBZyqtJ/0pCel7+wKEPDKHHsOHnMs8JhhwyveGV4DTeZDzQaFzfEAmEdFEMyXcLHrFUvSM8ajtAFVa8Lz/F3ky7oMfeU6cgqwMdwiHLMGCOY8tjIDYm1PEfBibCKyFLURALv1aN2TY+ubs4Rf0jO8WPe2XAqPZQAAIABJREFUIyN9jEufe0oNkrkgQyI65tQ/9AdZUL+jAy2eBEDwLnQg3cU45ztNOB3WHvmIXjxkjI0AEKQWrEP8JqucLMAX70ReRRjCMaPPRDbUhZFtdRzqaTihZJRsGi+vGQs+AaeiEnSX1Jg5GNUoKQcIQNEkOe0zD3FP6XwMAhAIq4ll/EcpWYuYAPP82ttAvIBJi4I8ixkJYfqHsYi6hjZDeJfRJ8DC5p0qvolQtOstaMbTu7VzQwwNMMGwQYfT0qTOfQwaRZMXzTCwvGnoclQraMaCEuMhATvQMzIOQ45HFg9B5zHkeVMKQY8JCwwY4JURuiBGVmqAYpXm4YEw5ICF8YS6GKd8P7Z7LSBgx/gWm3Bv7ulA3RYw42ZhSDcIwQMGUj/tSl9eIhQOvUee19zmfPIuFDelyZgq7mNEV2pVOmk+fEu860pzHzJooTOOjL15EB0AuHgbvFr/bS4oEAT84ZOFD/CSP7JoHzZlRE7NWd6KXDTBWuD1MIB4R0Z5FLNuqjWpk6Lct+iWYsGI2uV8C3kSBSJLIiLAQuRTgSERMR5t3q8jHwOPefjWpogFeTVGvjYoZGDL7wyCf1sjIae8Qs8HlCll64vyZigZTc9QKY7HxmUMyHxexJw/w32x62EUMOqiNyZ1UqQP2uH1fHzpuUjRekeyxBAKs5O7PH1LrwJIeAkAk7U85djlvae9totBApLoD+uHrgGI1Jnk7x4AgX5TZ4EHjC8e5KCKbqNvyAcQwJm0fqMDK9tEj9JzZJLccHLIquJYepasuYejFTIm4u1ekQWRHLogtzttfln3nF+2TCqYs8wxypsAqjWhdyM9WyKnfeely3zEM3qnGPq+5Pp2X4lBWt++eZm/p85Ht9mZBBC6jVavHsWBSQBhfeVaH4O0Ei8CIOS7GNZX3s3iu/rMRwUIU85ENUhTMnDg2+t8dGNoBQjd+NXn6goQhjnNsQKEPtL3/++pAGE6/vW6uxqkXmyb2U11PrqxtgKEbvzqc3UFCMMABDU50kR2x0XNRp/5WK33VICwgJmvBmkBTF/hkXU+us1HBQjd+NXn6goQugEExZX6Eqgta9eQjeO/Yl9FwqUHUqlDUsypDkVtjUZFCrFj+2SfeV7pHnUNCirV2tjppfByVE3P0M/Nx6sAYZbcHTN2NUgLYHoFCIMxvQKEwVg5dqAKELoBBFt8FaLmfVBWmiVFjYoGFUNHsfCkWY0Os4CCXSsK7RVI2849CwIO7Fay80FBpQLJUcX7s3h2jFkBwiy5WwHCArjb/ZEVsHXjWQUI3fjV5+oKEGYLEKJbpt4IpQDBbgE7cOxks4to1gAhesnYyumZ4xrG9ZGv0nsqQCjl1IDXVYM0IDMHGKpkPmxVsvdZP3+hPi1sbSlEtsjaRmUBC3Hm26yEMW1bst3S3mdbPeMo7Xh1fR1sWbPFTmMTBxxFpzU5VHv7bV0NsjfflivPt3009lrbRmxLHq/INlZekq18thbbuqVPRB6iFJa1nVBPC1umvPuoDm9tFpcABPvsbSnjadk+aOtsbMvym213ttR5ZpzB4Dm2G/LU7C2XM25vjXWN93UNb9GY+YmDPEk8sOUxQs0q2G3101zKfOC1/gn6MRhLIxxbnzVuco6Bfh32w+vomm9ptMXW9lXbcPXqiMZCA4jgpYaoAGFlgCD8rrbA9m59KsiZdZVHEBh0c22Ltx4ugIDtg7YYm2fbCG3p1BfCVkWkHwvZJC/WkO2i0SjLvMfpwtZdGyBYq7ZZ2+pqy6ttzaNOI80n2/Zmsu4Z1kKcv2JN2+JIluknkQS9GtpkvdA9+GBLtB4c+rCUpk0myW4FCJM4NIPfSwzSDB5bh5wiogPN269vQdo3Tnkw7Po6yEvq4iifaUFHV0TXxu8WLkPPc6EIdHNDDmLR94OxtJefYrLn2Zj6Gegl4Npome0eBtZ+b3uwNWbRVIpHY2880vNDPwyKD0jQW0JvCADFuJQQz0nfBopEDtWebiFXQChvDTuKZSUAgWGXExYapai9rwZDFI4DvPR00D7a/vM4mc6zvLN3xDf9M3yTDpxx5gglr8e+ngn2vds3zpjHqaDRUdIcRa8V+8aBOgAAPyh3BgXgY2gYff+vCZIwLn5Q9noFRHc9zXf0AvFcvSz8rrdGfkzykAusAoTxAAHI00pbDxRzIOQP2JKVAAjAnGZawIDulpqY6Qpp7ZBf7b7NrbVjXZA16QKN3KxtawHYFNIHMPROiA6Mo1IMgAg5jnoEoNw6tuZH1Q3QFZwNPWB8g3XgXb2Dgso4C4e8ug6I1Q8hJ7okmtHRL4CJ79TXwzsO0QWzAoQhV3XhWBUgFDJqTpeVzEeE+zRAOfjgg9NitKg11KE4eMgiCAy+zp28AkqMMXE9T54x4u1C+5STbooUCqOmoQplRKGIQFAQDGopQGD8NBnjIXmmFsDekRHUmMXzPEt0wvsACdGtjSH1uyiDBjBayK5EpQCBt6WZEy8Nb2w545HFgVf4gS9aJ/PyGWTnBJgP/AZ6RFQYArzWhts3AGCMNe8s+uQDEQ53KgUIvg9owhtAzH0ahfkbsOB5jATjYm4ALgqaAQGqGA1RiDjud2hRrQBhPECI1sfmBfBkKHVVBBIBBE3SGEnyZT1pVgZMu4bMaOLVTjEAsYCxAkRRNfIaB/7FmQ3jAAJ5VURobFEzoFgzNGAWIBFNyMl7GdN7ROdT4MDa1D0RuLF+RQ29C9AK1LZJZNLR0cBINLaLI8mjxf20clkBwrQc7HF/iUHqMWy9pScHSuYjAIIwXpwDwsBa4LzuQOu69fm7KIEwJsUhf8iQ8FB5u1FoJEQqHKhNa74FC0AQSYi2sSURBCHU8LLjmGvnFQiTB+kkRwkam7ETDtUZM0i4noKjkFbKd3YBCNIY0dlRCBgQYchz8r26hwrJ8uZ4dZQr5e/9ouNdzAGvK+8sx3viMemsVwoQzAkjgeSVzZO5ADyCADnvLhKio55IA28uCPDhCQIWQ1MFCOMBAmNozoT8Q07jDBQAAdDEP1EfqaAguw6ku3jlwLNoUNQgiEqYRwCbMTY2wAH4x/kdK0UQyLBokg6/omfAI+A96rCkOKuEEyA9EBSnmJJBjsEkgIAH9BGZJMsAND4omgScpV6mpQoQpuVgj/tLDFKPYestPTlQMh+ME8+aQbDoeQErGVGL0yIVLrfQ40AfBidOD2W8GUYGOaccjDgkqwQg6P/uWiRcKl+ZH+aUjy/kLv86joRqeWHjqAtAoMSira/oQH5qYD4+44y/QI6US1wn3Cs9QFEDXpRwPqYx1FbI2VKSpQAhIg7uZxh4bOPO7ABc4uyXNk9EIBiloakChPEAAZgWncvPuwB6GWlzYW1Gq/lR8wJMAgc5QHCdVuXC+9olI0BVvU8JQPBcNSnWu+eLJlj3Tsxtpxji+HdynZ85FAe3ieIBM5MAAqCj3si1IiSIHAM3Q52lUQHC0Cu7YLwSg1QwTL1kIA6UzAejrV99bszj5Dfh/Xz7UZyiR0mIAvBIeM7CjvLnjJ+cvxCjdISFnhcV8UCE53nzogCMn2cEUQgKFPMaBP9PGaEIjwMWIhlB8pPAjecq2BNCzesNvLf3EA1Z6ZjYLgDB90d0RbgeqMqPa/dunkuJ4iHjj1+KxfArjtx1KI054PHFd8d38eSBIfwKgJDzFCDjleU1CACHiADydwZZqsNBTUHqGyhzoWyn65nD/PCw+LahCsJyca4AYTxAkELj6ZORoNgSyFCTtzirRU1LEHCP1PuQpxwgiD4BAv4B3IEN69saVuvi95UiCKICUmLkDsglt+Tc2SqHHHLIWprKe3g/0YY8YhXrFuAF9icBBOk540tNcBDUI4hC+GZF0SIU01IFCNNysMf9JQapx7D1lp4cKJmPUQAhjpOW54wK4/DeeQGKluQaHeLCiKEIIzL6UhUMGgUSZ9EzSP7O6AgfCpPKK/JyedMUkQIrxn4cQFD8x4OiSBk1Rpny8o4UoOiBlIQiRWkQJMTqegaaoV2p+rovQKAQpTVEU3g6yM4N4/HehfkpOrUKsUNAmJfiU4fgW3j+ABKliOJUQ2FWp7TGiZ+RtqGw5YDNyziAYBx8Ed2h1BW84TMjhA+q2hVNUuZxeI+xGBBGRkpnaKoAYTxAkKrj7ccR4Tx2sixlByDgnX/IDSAOeLpG2uq4445L8m1+zV1EjaxHv0ddg/mUkrN+gWhrbRxAUNMjkmRNqU0Brq0nwMLJrWQ+J79Z42qQABVyj0QvnOIrtSVtNgkgiKL4logeGCNOkMQfjsa0VAHCtBzscX+JQeoxbL2lJwdK5mMUQFDYRAlY5MZg3BlzxlihkYXP4+Qhy31SSELpdiT43W8UiNMPRRKcIEfRyY+qoLY4hSwpi9jRIGfJUHrmOICADbxjxlYRpaI+nrFCQEVTngmwMMSAjHQIL1sO0/ZB961EfQGC0CelBrDwkBhxSlHEQNhXFAFIoWAVN/IEbVdEvpWxVvEtAuJUU+8BQAFEAJOx/ds1ijAVcIk4AFq2PK4EEOxQAeikMcyF/xfCZmBUw1P+ChiBHDswvD9ggIdAy9BUAcJ4gGB3EIBpHcm32xXDCAMBsYtBNI1M86ZFy2wntK0VgAQSImpk3qwBxbMABZkC1q0FkQRyo5bAmrQ2XDtqF4M1pFYlwLdiVvIjkjBqO6wx1FKQd2tTLZMTctUuRIRtEkCgS6KOCWiiY+gS+gaI9q7TUgUI03Kwx/0lBqnHsPWWnhwomQ+GiILgsbaJEuJtIIseeo+iQ8aLxx9epv3Own9R6Eip8UB4pzwLhoEhsi8/SFGfPLhr7TSQfgAYjMm7UW1PGeQFie7liSj04y0xyrwb9wcJm1NOnuv3URXXo1haAhC8r90KgEwejYiKc94fYtSlByJPK1IC1IgsILsWgKS8PwPAQ8l7b4ZCrUdetEhRyu0CaqIHvCpGgvEQUVAIiV+Ua07C1HaZULDACWUrLRIEJBrbc9Vo2GViC+ksqAKElfsgmEvG1BpQcGr3ELkgP+YXycMDu1F0K18vfB+koA+IRMCq+ReZinUo8qfmRc0OgCp1wGhLbVi/HADFx+EUALOAuXXKGVC3AtyPI8CVbojtyaJT1mQQAMDQa5Q0assihwTgIacIcPXfoh5SJEDRtFQBwrQc7HF/iUHqMWy9pScHhpgPXg0a1weeseIZj/udUjGG30fl/+P3kkZGORtKxx333FEsLQEIk6ZiWn5R4v4Z995+8+2lffnjfSfxa9JzJ3136e8VIEzupDhprvA6rgGARxUVm0/rLdbctPMb93dZp3TDuPcrkZdJa6lkjHHXVIAwDfd63juEQer56HrbCA7U+egmFkMAhG5PXH1XV4AwGSCsPqmY/xdXgDB/nqd8teKrcVunFvBKq/qRdT66TX8FCN341efqChAqQOgjN0PfUwHC0BwtGK8apAImzfGSOh/dmF0BQjd+9bm6AoQKEPrIzdD3VIAwNEcLxqsGqYBJc7xkqPnQi8CCGrcLQFWzIjd92zVhGYIUR9riZ2/3vGgIgGA7JT4p+rKrYhQpBrMFNO82N+03qk7PC0CnHW9W91eAsNwAQUGidRfbXu2e0UdDkaTf7JhQKJsf3DYrWZnluBUgzJK7Y8YeyiAt4NXXy0cONR92FqiCtnVvFMVe63ar4L5MVb1vlwKjF30F+o7V5b4hAEL0wre1K7Yytt/Bdi/98+3CGIIocdsYhxpviHcaN0YFCMsNEOxGsoPFLgPbnc2XgliNyQBfW2Ptctl5551nKSYzH7sChJmz+NIPGMogLeDV18tHDjUfkwDC0MwTjWBcbfVaHwHC0PyyndJ5EBUgDM3Z4cbrY5CGe3q/kWxD1ChJxMCWx/WJ+szHZf5j70iLVivi7SMMQxmkPs+u9/QHbBr9aOBjv7QUgQYoe+2115o2ywCCpjn2QNsz7Qhox7fGXnkGSkMXY+hfYHuS5iqa8ihadeZ7NACKt7Q/W7c3vRX0ChChAArszxae13DJM/33EIezlMhHaQRBMxjfqh+DPgU8Kw2a9EWICII95vrd62BnT7iGNdGrQcdFv+ed6IRutbzWkVL4Vm8CB2AFUdbWl94RGjBpqawHgja2FLi506PBqX2iL8tKq1WflhokLcvt83cYGLmxJvwb+W9pJFsX9S6x5dA6JHux/dDak7oiW3pu6JehM2oOtMmMhlh6C1jbGmnpk0F+NUQi0zpsuo+8kUPdSqUQ9TDwHnoSIOsVeJASFH3QV8W3rnSeyzLIZul85O9aAcKUM1cBwpQMHPj2kvmIPumaozj1UK6R4dOxT65ceJES0T5VExXGh1Fn4DU+Yswc3cqQG0trXx3bnLVAqVBQGre4Xlth4+oU5zr7pHVK01wIkBB211BFkxdtnrVU1eFviN7rJawtAQgUt3cPfml1TEn6TrUYARA8D7/wFEjQPCZazUoxAE2+H0UrWs2TNKfSMEq6Jo621TjG8xgB/HfWhGeKGqhlAL5cq7kMcOeZy0oVIIxPMWgP7rRDtStkjKEHMmPdRE8DDZQYaQ3CdFsEEqz1aLsMHOiQybBLB2iGpEspAw6cqjHQEIuskJvorqi5mOZkgL//BlI1BXO9bqgALDAfLcO16gbidU7VBEyjNM7GUCcuzlKGK0CYJXfHjF1ikBbwWqv2kSXzYYHrNMiwUd4o2hk7SU5uG0DQqU+XN/3f5SYpCh6HVq08ngAIzlrQbTE/VZBXw8DxfCk8nq9WwVoL65KGHvnIRybD6BkU3DKmGChgPMILveIpasRI62anrSwFK9ISBzThkSYzzpCgsEUK2gDBmMBRXrToOGgpAwpdpIURELmIQkTASQ99QIIBqSmG5V7mJQaJAQekrSlgEBi1Pnj15j8AArAexcCMPMOsqyKgrYNnOyWgbbrujDoo6r6pTXI8A9cAAI4BIAEIAAhki4yLCAKwIgPIOwRAcK2iXAADkVcpCboBiF3pYLRFz1bJfLTfsUYQppy1EoM05SPq7R04UDIfeqYLYVr0QVGcpHpZu2QAQfg6z0PqCc/LiF7uARB41DxYYcu8Xa8jjx03C4iIDFAswulBjCggwbAuaw1CnFan9a2e9EERhRE18d35YTlxjZ0gAYBygBBKGJ+1sw4SpRECFm2J46RFEvTPR3iFZwyJyEQFCB0WxgIuLTFI1hsZArLJC6NsfQYxuHb15CegihBIDwAHcegXgJ8bZ+vWOgUmAQuHo4lABUUkiyxFBGESQHAYG9Av2qdIOcgakV7o0nFxAdOR0iDSqByTUqoAoZRTY64rMUhTPqLe3oEDJfMB7VskwodBPAFeLe9ErhNAEG7M+73zQlQ2UzwUUgAE0QjezjjiqUgr8Kij13r72mUFCHHePXCU88K5DEK2ahGcPQEgAAMPeMAD1nyaGoQ4l8JBSZFicHgVZTuOAAFzwUOM9rnta2uRYodFsaBLSwyS+ZWuk/t31gkjz6CTEXU//h/oPuOMM9Z8BbBpbKkAESb3jiL3kiVnHziHgwyOolKAIIVBL4icOTxqXaOS+Wh/UwUIU85yiUGa8hH19g4cKJkP4UW5d/nEoDCElA2PZlQEwW9C3wACbyMAguJCeXJ5SGHzIJGDjTbaKKUZ/F2YND/3XnjzsMMOS8V7QMkyphgCOO26665pG1gQ740Cd6gUIDAqgqCoUMomagsCIDjQxiE8igyFgYN4ieo/ADh/l2+W2uBdIgVoDvKRsxaKrhGEDgtjAZeWGCTet3VCHqQaHOYFhCtuVQTIyDPwF1988ZovkI7jxYsIOHBtp512SnKSn9UhSuWIb/eSU/+W3guSGhNBFLEQTSxJMYgSSp95P+s/iKMhvQA0hKwugN0TH1kyHxUgTGRjtwtKDFK3EevV03CgZD4oF7lJBYfynfLsit5U6UsByJsDCLwP/y+fybirigYuzj777FRPEACBQRPCpNR4KcKNkZsEPITMFSIqZMyLmbyHFt0AhxMN5UqjOGsaHnS5d1KRYpw6qaAyCjKNH2fVqxeQgwUQ1CdQlELCQAE+Sq34tnYNgmuFkqVgACgGwFyIGihuVElu3zkQobocAQaK2tRsAGX+zsAse2i3FimOD2lbN1Jvtvcy6NYcj150Sq+LSBvEupAaUCQMGIjMkTN1DAC4glnXi26Ra+krcgfYkxugNk4KVWcEJHg2OS0BCKKLQC6Z9z7WvffxrqIe/r7MOxkqQOiiGQe6tsQgDfSoOkwBB0rmg3IRLrSNTiU+hcKwUwCMGYMTRYqMFw+DJ8yQ82KlCtq7GHgRiugoKwpHpTUvl9ISTgcUjCMk6v+NJUyupkEeljckDMpo8mrk9edBkwCCd+DxU6w8NEqGp8e703lORCV2MVCUgIKdHGoEAAUeISPQBghyuCImqsEVJxrPvCj+tP2T4sUPwER0BoCIjnbyy4CbgjHFoeojgK9lpQoQxgMEXrx0H2NObqwPNT08dHUGARB45nYNiMAxxNJ9olpIFEskzjZE8kD2AE3/ZviBe6BCsTDASs44B7ZXqjMqTTHQD6IQdAa94Phncuh9OA125CwzVYCwgNkpMUgLeK1V+8jS+eDVH3300anISZGgcDUFEApJFTMvw8L3j+17PNiopNbvIPbk256FeCQiExSQ6xRd5fv6hUHtqz7nnHPSMyk8tQlBigD9xkuhHOdBJQDBe+AXMECBU47e2/sj3yUvK6Li+yl4PNl3330TmEJtgOBvQIHtoIAUYCF0G3vN/S56oYbB9k+gTW8IUQVz5DcgDbASQpbmWFaqAGHlojhAWa8RQFSUjmxFW+MoUiR7ZIjsWVdtOVHb4x9pO2tP7wKGPwggP+qoo5L8mg/bY22vRfojkFeyBVgceuihSR8AAMiOCukyuyWQKJmaoSiAbD9rWeWwAoQFzEypQVrAq63KR85rPnj+vFbeNK9lXaVSgDDt99nOSMmKpKw2qgChvGq+LRujdjGsNvkZ6nsrQBiKkx3GmZdB6vBKq/rSWc+H0DcPhsejYInHEtvw1kXGzxog8PT32GOP1DhJFEBaZ7VRBQgVICyDzFeAsIBZmLVBWsAnrdOPnPV86Jew5ZZbpmIq4fEIO66rTJs1QLB1TbgYOFCnIW2z2qgChP4AQapNbYuQfqXpOFABwnT863X3rA1Sr5daxTfV+eg2+bMGCN3eZv28ugKE/gBh/ZSIxXxVBQgL4Hs1SAtg+gqPrPPRbT4qQOjGrz5XV4BQAUIfuRn6ngoQhuZowXjVIBUwaY6X1PnoxuwKELrxq8/VFSBUgNBHboa+pwKEoTlaMF41SAVMmuMldT66MbsChG786nN1BQjjAYKGV3qGqFPRzEizLNtl7V6wvVifBFsU9cKw9TAnPUYUv+rPoTeB7ZH5eQy2z+q6qE8B46hYNhoZ6WeiT4JeChoeIX0StE2320bnRb0Y9NrQi8M72kqrX4OeHLY529bspFZN1lwfpHBZPxXvb6ukhmjLcIhTBQh9Vu+U91SDNCUDB769zkc3hlaA0I1ffa6uAGE8QIgzSHRRVNCqcZb+AnpovO51r0sNuhhw/UH0wWDAFbzGOR8KhvVPcI/GWs5s8LtGXPqWMMyMuJ4bepkw9jp/xjHTjmr2TBRnhGis5Brzpo+Ha+zGoVv0KHE0tVbOwIM+HMCBro+6rNrOC+DY7aSAGbDQ20GDJ23XF0kVICyA+9UgLYDpKzyyzke3+agAoRu/+lxdAcJkgKBxkeZkccS6szh0FPU35ARH3j7PXEMjgIKhtt2Y8Xb8uEZI2oH7TXt0BlqEQVtvkQr/LwKgkZemZADEJIAgWgCUaLoELOi8KHIAiAAeog46hQILujO6zrMdXKb5l/fxzC222CL9vshIQgUIfVbvlPdUgzQlAwe+vc5HN4ZWgNCNX32urgBhMkDQklv7c+TQI+eiMMQ5AQQ8eKF/hljEgZHXutw5KJE+OPnkk9Opov7tniAtmXVNlLKw5bYEIIhG6CLKsAMv5hJA0TE0SORB90ZbnwEFTdQc7BQE5Dh50nP1TlkUVYCwAM5Xg7QAptcIwmBMrwBhMFaOHagChMkAQQvkTTfdNPFQy3ORgVEUpzwCD87giNNRhe91NnXsOnChPbKoAe89CGBwFgND7cyPEoCgHbMD1pAW6rqmOjsFCGiTE1mdIzKKAA3PzWsVZi95az+hAoR5c7xpUl5KXsupfJUWz4E6H93moAKEbvzqc3UFCJMBghqCOGnRoWcnnnhiqivIiQfPwDq4ScMyEQOFiAyzFASw4HRQJ0NKWfhvdQlBCgsdguZYcaexOmwsf65nKnTMaxDUPagrQE5+VA/hkDH1EUHAjd/c53ySk046ac0JpK5xsqt3rTUIfVbPOn5PNUjLNYF1PrrNRwUI3fjV5+oKELoBhDgIzeFMahHCOCsmdKzzQQcdlA5By2sUHLKk9sD6t+PBqaoOUTryyCNTegCgUCwoXcCT59DZXaCWwImP//73v9cURo4DCN7DuAy9okdRAfUP0gueb2eEegRRBCkMoECxomPJFTPWFEOf1bOO31MN0nJNYJ2PbvNRAUI3fvW5ugKEbgBBYaCCQBEDBt4JjnYtOOjr9NNPT8emO8FTAaD1bvfA/vvvn4oPRQ8cmR5pit12263Zcccdm8MPPzwZdZ6/CEUACgWM0hHSCI585+2vBBC0V3c8taOd1RaIRIheiDLstNNOaYuko6i333775nGPe1wqnARC9tprrwQaFkk1xbAA7leDtACmr/DIOh/d5qMChG786nN1BQjjAYLtiAxpvpsAj3n8DHvk/3nt+gpEnYICRYWAogxok002af73f/837SAIOuKII1KUAYkuqGtQ5BgEbChiBEgc93zsscemfgw5QJBysHMiJ1sXRTLcpweDd/T/QY50l8pAfhcRccDboqkChAXMQDVIC2B6BQiDMb0ChMFYOXagChD6d1IUorc7QPX/qC2CPH7EXQbHAAAgAElEQVTpgXEnqvrNNRtssMGaXQ75RPndM7ruLpBauOSSS1Yc13OlIYCEZaAKEBYwCxUgLIDpFSAMxvQKEAZjZQUILQ70MUizn43V+4Q+83GZ/4BCLVqtiLeP6FSA0Idrs7unzkc33laA0I1ffa5erfq0j0Hqw996TxkH+sxHBQhlvB17VTVIUzJw4NvrfHRjaAUI3fjV5+oKEPqnGPrwu94zmgMVICxAMqpBWgDTa4phMKZXgDAYK2uKoaYYZi9MUzyhAoQpmNf31goQ+nJuNvfV+ejG1woQuvGrz9U1glAjCH3kZuh7KkAYmqMF41WDVMCkOV5S56MbsytA6MavPldXgFABQh+5GfqeChCG5mjBeNUgFTBpjpfU+ejG7AoQuvGrz9UVIFSA0Eduhr6nAoShOVowXjVIBUya4yV1ProxuwKEbvzqc3UFCBUg9JGboe8ZFCA40KJS5UDlQOVA5UDlQOXA+sEBZ1BoFV1KY7c5fvzjH0/tJyutzIFjjjmmOeecc9Y63avybHEcqPPRjfdayzoe178rzYYDt7jFLZpPfOITq06fOpvg0Y9+dDqjoNLiOWAe9tlnn2EAgr7WTq6qtDIHakh7uSSkzke3+agphm786nN1TTGUe6x9+FvvKePAoCmGChDKmF4NUhmf5nVVnY9unK4AoRu/+lxdAUIFCH3kZuh7KkAYmqMF41WDVMCkOV5S56MbsytA6MavPldXgFABQh+5GfqeChCG5mjBeNUgFTBpjpfU+ejG7AoQuvGrz9UVIFSA0Eduhr6nAoShOVowXjVIBUya4yV1ProxuwKEbvzqc3UFCBUg9JGboe+pAGFojhaMVw1SAZPmeEmdj27MrgChG7/6XF0BQgUIfeRm6HsqQBiaowXjVYNUwKQ5XlLnoxuzK0Doxq8+V1eAUAFCH7kZ+p65AoRLLrmk+de//rXWN1z2spdtNthgg+Yyl7nMWn93nevHkeuvcIUrpJ//+te/NhtuuGHzX//1XyMvnzSW+y5/+cs3f/vb31bkbzzT81YiY/mucdTFIHnW3//+9+ZqV7va0HO/zoz3m9/8prnGNa5xqfkNebriFa848lv+85//pDkdYj5Chsjq5S53uUs9zzy1f/vHP/7R/PGPf2yuec1rrnV9yFnI7zozEf/3ol0Bwj//+c8GL8bxbtL34601ao2XEP5aq6XXl4xZcs2Qz+0CEPCXjiDneDyK/P7vf/876cy2rnW932KtjJLvku8f4poSgxTruv08MuL7x9mBId5vtY1RMh9tnoxtlDRpm6MGGLoytem2t71tc8oppzSbbLLJmp8+8pGPNA960IPGzsdNbnKT5oc//GFjcRCKD33oQ81DHvKQkdcfd9xxzaMe9aixY93pTndqPvaxjyUjtBJpAvXd7353pIHI7zvppJOa7bfffhCA8IQnPKH51re+1Xzuc59bbbKZvvc73/lOs9lmmzVAQtvQ7rvvvs173/ve5pe//OVI3lxwwQXNjW984+ZVr3pVs99++001H8cee2yz2267NQ9/+MOb97znPZcai0J/7nOf2zzrWc9a89s73/nO5qCDDmouvPDCNX+jqK985Ssnub344oubceBmmSe7K0DYY489mne84x2p4cprX/vaTp/GGFD4Ggd973vfK7p30003bf7yl780P/vZz4qu94w3velNqUHPla50paJ7Rl2kBwww85Of/KT3GHFjKUB4y1ve0tARDDwify996UvXGEl/f/azn928/OUvT79bD1/60peajTfeeM07/vSnP23o4N/97nfpby94wQua5z//+SOBxNQfNmGAEoP0q1/9aq33z4cEkt797nfXRksDTVTJfLQfNTVAeM5znpMWIsT6zW9+s/nwhz+cPG6e9VOf+tT0vAAIT37yk5vrXe96l/rca13rWs3ee+/dCSAccMABzVWvetVLjQVs7Lzzzun5QV/+8pfTOzAK0fyJgbIYA2G/6EUvGrmIKMQb3OAGUxkkN1vcvKA3vvGNzWMf+9iBpnzdGobSBpDOOuusS7340572tOb4449vfv7zn4/8qFkABMbqk5/8ZGPh5DQKINzjHvdIoJfCCnre857XHHrooel/jzzyyObpT3/6ujUhTdN0BQg3vOENE0hilH7xi190+t55AISXvexlzYEHHpgM5NWvfvVO75dfPG+AwOgDBNaItfDWt741dWfdfffdEyBD5OuVr3xl85KXvCSBgMc85jEJmAJPopLANdAAqH7wgx9sdMM94ogjEkg45JBDevOi740lBikAAsB517veNT1KhI+eOOyww9L/f/azn23ufve7932Net//caBkPtrMmhogXHTRRWuFzE347W9/++bPf/5z89vf/jZFBAIgfO1rX2tud7vbjZ2wLhEEyH4lw50/hEcBDJxxxhnNXe5ylzU/EcQACAz4qHDdJOkqTTGIyGyzzTbNH/7wh6k8m0nvs6y/4zXDy0vaddddO7/mLACCl7j+9a+/VlTA39oAQcTj2te+dgI2d7jDHda8O+NKUfPapEjM8bpGXQDCiSee2Dz4wQ9uXvjCFyaD8653vSsZtFKaB0BgVER/1iWAIBIlXUCWzj777DURA86JiCnn69e//nVz3eteN60df6Or6ECRUFE1ztdRRx2VIgzkkdOFHvrQhzbmDZibBjCVznF+XYlBCoAw6owA30HHiyKJ9laajgMl8zFzgOAB0CsvXggSMqwAoWl4NjxkRuYHP/hBSltAzHglTC3t4N8U7te//vXkGTBevIh73vOead541w984ANTOgagoTAOPvjgtZT0nnvumbxiwI2SkKrh3VIoQvwPeMAD0tkREX79/ve/39z3vvdNc3X/+98/jS/H/KMf/SgpGgqGN0MpibLwVkRCbnOb2zTSLxFW592IHjGmnus+3xzkexjeH//4x+m7XE9x8Q4ogRe/+MVJTkR70Fe/+tUU8aEEeUf3uc990nsMmWIQAfBcRs+7B3lPfOWJIvykmH1b0Le//e3m1re+dSNdgSciWl/4whcSCFyXqAtAIK+ihORCqkg04fOf//zYz/3973/f7LLLLmkuRWv+53/+J/EyTzEwXA6POe+885IhJAuibHE2RDvFQB4e8YhHNOSWYSVLZJNxdQ6HOVMrwpOWEuIYnH/++SlM7b2BFO8tteTbkRSG+T3zzDNTFPPmN795upbzMI8Ug/UmrepbcgdGJIG8S3VYs1tttVX6bu8XxBnzPdbO/e53v7S+eN9B9M0d73jH5rTTTlujR+YlnyUGaSWAQH6AGnouIovkBHCiA80lgGQu49wgukyU2jx++tOfTv+mP+lR/KF7pS6kF1/96levmX92imx65nWuc50kD8AmvXm3u90tyezb3va2NawzHzvuuGPzvve9LzkNH/jABxIw9Z50q1Q33UCnjyKy/qQnPak5/fTTk14BEEUopVnJ/CyoZD7mAhAIqVC/iSGYARB48qM+fvPNN0856S4RBIw0kW2iKNpIuSSC4D3bEQSTZlGuRKURhHvf+95JyCgxxuWWt7xlGpZh4R3zxrbYYovkKfAEhHCFE08++eQ1RpXxoeze/va3p3s9m4LmLXlXAnvCCScko0eZu1fokiBaIISakqZAN9poozQGhY//73//+xOoI+y8GP8W1qNYKfd73eteSWlTutD8U57ylGbLLbdMBp338vrXvz55la6zMHmZvi3ypRSgsSwMAENqSgjUO1IAeQ0COVBDYn7xQtRF3QHQMyRAoDyFYIG0z3zmM2uUcxsg8Mo+9alPNV/5ylfWiMK2226bvpOBwx/KHbiiKNYlKgUIjJQ1uv/++yf5ogzxjizc9KY3HfnJQB3QBKC6BugSZQmAAOTSB6IvZNmcH3744SnSR9FaxzlAYMi9L35T7mQYyJOHB9IYWvl2IXn6gWG0Ljyb0bAGEFkS3WRIrTMpPx6s72FwpY3MLbAyD4Awinlk3rcy/uSODrV+fGNOeOzbrWM611oCdIJcH7n8PpG7aWS5xCAFQGB8GW0k2ojv5onRpr8f//jHJz1gLs2L2gxkbbqWDiQXeEYm6aZnPvOZST85jEwE0PgcMzJj7buOfAGx9KZ5p+8/+tGPJnl0HaeIoxKOQKTIAQrAlE4y1tZbb52cMbrQ+0ivc6IAgFHkfvL4mte8JulawE/KCEhw/yyKM0vmYy4AweLjRUZoaFKRot932GGHTgBhnOASKMo7pxKAMGq8kmKqEoBAsClXRkYuOwAChRSFcBSU6AEDE6ef8bopQWiUEsRPfGVUKU8omnFzH6PmHx7T0UcfveZzCB3j7x2g7xKAoIDMgosqaoJloYkqWGiI4ecZAiue+7CHPaxRyBcg64lPfGJ6N4AHAW6AiEU1inKAwJsHdgAVChtFYeGQAEHKy4KnhIEWSJ4yzQECL4VS8j1ATZCoBmUT3+P7FccybAG+plGu87q3FCBEvUXMybnnnpvmlDc/ak4pTgYfkAAoUKRqYl0BlRTqqaee2gDQKO6zhq3lHCBEnv6LX/xiUshIFMF8mR+goZ1ikK/3fPMSu4fk6s0pMAHoXuUqV0kRL6AiyHrlCS4CIFj3+OE7GRgeLPlnJNu7s+hNc8EpU5NlTtpF0CIhojKii/OkEoO0UpEi/cOQMvDq2qJAlv6M6A8dKHpgnq3PAAhh/EOHcsjoP8RBwitA9EY3ulH6J3dmAFeRHEBLRIEOI4ecO3IWUQZzJIrKqAPQgFpEZtUqiYy105LBf8DD9+U6RfE9nen9xu1gmWb+SuZjLgBBGIcSILyMfwAEiiQmNn8RITMT1iWCwEjm1bsxnudSGDmVAIRRhXOMhjDySlQCEBj9xz3ucclrIegBEPI6CkWab3jDGxIKzQ1M7BThCfDAhO0teJ6DlIDwOAEPnvOKhH+DKD3I+Rvf+EZC5iUAwaLNq/WNx0MGcNpEmCleC0pYN8h7ABBRh2JORDCg6lGUA4TYIWNsyht5H4Z8aICgJkYkQ/iRJyEN5HsixSAtc6tb3SoZitiZE9EQcxa8BuAoBUZH9GRdoVKA4NsZWdGA8G58qzUSUZT8mx1vLNwrMgMUI2DL9eQECCXrPDeAON8BQuaFZs2/YsHYxWANSTPlu5iMScbJhuhaGyDEOwAAOZlDf+Pp8eDMO5AXZM7/9Kc/zR0gAC8MDx3x5je/OXmVSBidgWwDBDrA2mcQOQ/kkeHLic4RVelSLzKE/JYYpAAI1pIIJePLTnBIAD4AIYh37+/5/LMZ5s4c0uEBEPKaMrLFyZLODMIT+sy6VgjaLoS0E48DQO/QfaJR9LLrpEbJLh0HnNBtHAsRxCBAl41aSV9xUIBAcwfkeR8Rr/UeIPhQQs6YCfOs9hoEio33RBkii58CIgiRo4I2GRgGf1TfBb8RQmMo9GNsw2uwaChtKJeyiHycZ0VhGaXB2LYBgnoHXnqeYrBIKdsgStr75nn6+I1CE9aUWhjV30GKALrm2fjecfvZc4AARAA0Cl0DLEU+chYAgTKhaBk13hfFEAABaPMN5gy5FjD1PoxSTgwoZSJcuK5QCUCQAhO+Fm3J54/3zmsij23vVMjY39p1GdJGnAEAgQEBICjbdkjVc3jN3i8AAgNOl4zbdgyItwECAOhZ5rdNjIpIBF1lneQKnrFiPOYZQfCejCCjBxDk3ynlIaoSPRLiW6QSgSSpRusYHwHzIODNvLW/bx7y2QUg5EWK5huopOPYEhEU5PuiZqr9/kBAyAujbowgv5lnaeQ2QKBDAS8AH4gIYrjJgKgpQCvaK51Bv0qzSekw7NJjAAIe5wXMMY7t/QHy8neWjhVFkC7hIIto+TYpuPUaIPB0GQt5M+gQ81Y7QKDkhKae8YxnjAUIQmSMEoPNmIYxgo4JnwUD1RKo+F1Im+ITIaCk8Zpiyb0leTWenkUD1TK+/h1bRMMbXgkgyOdJOfCmY9eH0KeFYgELJTOijHyQxe2Z2223XVLaiiDJw7idIjlA4NXxHixe0REEbQM3swAIxrfQfQfFQsmaDwVvogq+OfolAAY8NSFJ+fJRi57s8zjWBSoBCAyoeQYUclBkPskmUOS3nAADUSWh7b322iv9FNX6kWKwHsgNuYrtx6JcCr/IOeOXpxjImwiGqFT0OWEcrRFKlpzGOoprPJts+/8AIe4h96KD/lv42Vzn8wkQRS582nks6YMAaOMtkG1t5VFAz48eIrxraR3k/fDeepfLlq4B4hVYxjqTbpRGYdCA/HlSX4DgHcmTOTVnnCvOTdT95JFFMiUsby7pRfLcBSBICQBlUecQ/CEPHFwAi0MgmgTcSuHSTVIDZC12Z5FpwCycO/PJ2SDDHKic3CNFTKcDbuaKHOIXoLJeAQSengXgAy1CQip3A437eBQAgUEbJaRR5BUpBqE1hiUnSpoyikZJGDmqp4IJyps0GaMkxdBWcPFsAtRu6pO/16QUQ+TIIifm3lERBIvaglCIyBMSamJoFHoKqUHHlCY07O/eixGmFIW0gQv8kC+DRPHAsyFnEQUGNopHKRj5NOFK6Ny7rQQQFNMI9fGmFey4j/IHNGIrEu9ZmMw3WNB+l0fjFVncctF5vg1S9lwIWxQlBwjGtahEVQACssUbpQhmBRDMC2+WEhIlYCwYMO9G5hRwIhExOdEcvIQ8WAsAmFoLvFgXaBJAiBy/dav+oE2iY+pQKMTYWhfXMHLWtOgVHWH+yE8ABN4ZYMBTFnEQIVOPoP5EyFmNQg4QohgMYAHY6ATG1M4cRWuUOgABSPAAGQxKm4x7T2CELAGr1ovxPccasWasEWvd+qKso2Bs2nmcBBAYDOuGTFkX7eJr70Em1f+YD9eRS9+gkDnSODxkzhlPV82I/Ls5MC/C4X22cU/z7dMABM+NuiPfRC6AVKlAc2Z9mkupE8WMrqUnuwIERto95JQsmX/RU2sYCAWCw+gDYvQkueMoRHQzdpuQSXaPfuQQAmv0H7CZk2fR71Lw3pv9E70k9yJnAIK1MDSVzEf7mVP3QcgH9KGYyQBFc48cIIz7YAtIEV0AhFHXUSRQ9KROivmWmBinBCCMezeTRrGNo0kAgSBTft49aBRA8BtgZMcBPgTxKBh9Qmmng4rraHFtwVMsxsN3Spqw42V+P8VOSI1LYQiTIfcL2/LAAiDYScFA5ykG1xJ8BTkWJWL8KWwG0fOAkOjeFr8Le0LfQnTtToNkxIICYrxbu5MinluQ0VXOvELzswQI3hvi997mDfhijKJtbRQ84bW/jWpjS7Hgr2vnrZD7KJRJAEEelQEOb6j9DAaYzMSOpfx36QdzG5X3lJ9IDZmNTorWD4MWMo9n7gn5a29zdD0gkLd5Zzh5jZQqMELpkxtKGhAG9MhNyJJnUM7hwAQgjXbw9Ji5ZajnkWII4D5u/iIP7jr8CH76DpGsfDux7cMBqmMd0g952rGPnPS5p8QgrbTNkUzQH/RKROXoCQ5LPpcii1FD1hUgkFugjEOTHwcAgNGneTdO+o/cRAFtzhNglIMQ+pGO4BRpUjWKOEZ2S+T6lL6jE+nTcdsj+8xD3FMyH+3xewMEeeX2+QpxFkM7z0ygKcxxRNCjsDA3bvn1Fi1PdNJYcV1+r/f0vpjezu+Pe17czxCu1LJ1EkBQ1GKM2NdtXMItZOWb20bEe1IEAAXFKyqQvzM+8nQsGmMaIzdU+EOwLRihU7mtvCI2Ij2MIGMo1OVdfKPr5P1dE8WBwQd/g2wtVMiaR5mfP+C5IkjqISgjiowc+Jtq9NjCFOP5Dvd4jjnz3f4/LzD1PO9pPN/hGhGUldD1pPnw/JChUfJAKUkz+DaG/v+1d/eslhTdF8DnyU38GKb6JcTAlzFQFFEE3xAjwURERWEQDAQNDIzEwcQXcAJBEDPHxNBME8HPIEbz8Gv+e/79tPfcW9Wnzuk7Z1bBMPfeU13dZ1V17VW7dq2NwDCQSmEA710nFRAHq7z6Xvu80Me49iKCUO/5ru9TmMzf4flzwwJB9Q7adinDPh9fxgJCwKNgH5dRqDFvbCrL+lb83hMkjiGfxzBY3ek7RKTiYoxrUew+814Z9/NrjAleHwbLe+H7eE+X78GaPrnIg1Dzwa625/MEPI1JBIvng3dgPofoD3MaogRHBH6rPCEtBqnGT80/Swxq7vbOVyCr99OWCWKnL636CwPjRZvLecR4mr+zMPJ7zZ3uwwtq3mTskdTlAqCedf4sy/nR/KdduJ83dvQ5Au3dKE0R7Xr+Q80dLf0xjCCseVFO8ZoWg3SK3/uyfqf0R1/PXEQQ+lpL7bMQuIggnCpqawzSqWJxGb7Xmv5Y7UG4DF/4MjxDDNJl6IX/f4b0R19/hCD04bWmdghC0j2vGTejrwlBGI1oQ3sxSA0gHbFK+qMP7BCEPrzW1A5BCEFYM25GXxOCMBrRhvZikBpAOmKV9Ecf2CEIfXitqR2CcLkJgsBw8VqVRl4cgqPhYlx8JobK6aV5HNmacbD1NSEIG/RADNIGoJ9zy/RHX3+EIPThtaZ2CMLlJghOyDnF4LRZHesV1Ehh0bFcx2Rpc9RR5zVj4DJcE4KwQS/EIG0AegjCMNBDEIZBubOhEITLTRDmHVf5QngM5sdHDz9KDn+HEITDY/yvO4QgbAB6CMIw0FsIgjHuCCKhLlodNP1JxZpMCRMRQHNMzTluIjZ1zNlxPBK1ZILpWMiL4Jx+HRt2vJFeChlxWh9UQX1eao0U65xRpxJaR3XlzaDZQdvEkVQCSLQ86KMQDnONidDxWMmdHAl2JFcWUqtEx+FcR6DGNXQOCDXRSqBKeIgSgnA+QaDvoo+JrhGK49avtOl+dmRav0kG5+ghYSLHpusYoqOzxOUIdjn+SqeAVsZcoMixV+PBWCU8RdDPuHG0kICbY9QEmVxHg4VEt+OOxLQoUXqOkmJ2lBF5cOSb94GOhzF3iAyMI8djCMJINBvbCkFoBOpI1dIffUC3EAQiWURdnEN35pzIiwyJBLBM3IgBvQt16OVTOfV3n9MfkIXQpEqpjnQ2sqHQPCAuw4WrrjwjzqNTNaW1QU2Vgl6lCHcNASvS3c6L02gosuG5kAhGgqAWfX06CISuiD0RG/JcdBMkOqM+KJ0548O40EFgoA6RiTMEYTdBQOhIqyOH9E70hf6rpHOlb0C3gpE2hsh4IwneddoEpeZJv4Jhtx1AC6YkvCs5njFlrOp7OhKEjKjQUvZEHv2MKJLhFpNAgIl6LF0CCcFcW5lmjVeiScSTjGcy+FQeL3MJQdigd2KQNgA9HoRhoPcQBFK+lOcUCn6ki+dZLiv/gknchE4sZp7IyeqMN0E9Qj5WbPNcDdqy6qvENT0EgQBS5RchPMOLIa+JgkxQWyQcxANh8p8rclZOCavWZSbEEUCHIOwmCFbgyBtRNB4BJA1xtKpHAoogEDGqnAYMNcNMMIn4FfXS5ZZA5a+hTIhA8FLVPfSpMSAIEZFABBAE3iyeLMJbpLt5BhTPUARBXaS3lEARS2MLiUBsL7N6agjCiLe5s40QhE7ADlw9/dEHcA9BMJlWngCr73Lbzu8oZ4YkNrYKkASTqZWhCXce5EU3n4t/PvFrh9sXwbCKbCUIVnPllaAwyptQyXTq2XgmuIC5huUw4IWYu6BJ4vJIjJBWXvZACMJuguC0AG8UtUdjh1GeJwRjcCmelqImbHkIjBPkgJeAHL4to7lx1s8IAYVOxILniherSkl7IyXlQbiIIBiPlDnJ3Us7vhxbZ0mv972Nh60dgnBYfM9sPQZpA9DjQRgGeg9BmOfTMOHuMqYy3nHNWlFZvTkmpljVk60WQ4BgWK1bBc6lzHkZeBXI6LYSBHk9kA3FPREGWQztMy+L7Jzc2GcVssVWkKNLCMJugkByWDyJfid/zMgz6LaWZGj0u9X93LNji4CxsxUg4ZtrzyquFZ9ga0zGRrL3Z5VWgmALQ/yCNM2SYd1pJQRhgx4LQdgA9BCEYaCvJQi2GngH7OvPi5W/Cd4xMa5jbn0kgLfByl3WOkaYl0GAI5Ih+LGKvWgJoHgriiDMiQljIFnPPAahsp1qg6cAEVm6nG0piJMQlGZyt8ct/qCKZ7JHfYgseiEIuwmC/uL1Qc6MF0nBHC+Ut0MQICPPwM9z+YgzsYrnEZDP4OrVq5P3Z56zRn/acnItouF/Aa9VjFvbBjwWtpZathgeffTRaXx4vnkywiLDxtVWeS9aJoQQhBaUBtcJQRgM6J7NpT/6AFxLEJxi4KYXtCVYS7HPy1jLDmpCFtwocly8gmIVyHNgUjeBC2g0QWtHIVDDMJiwxSnwRFhdCmQ0ybvO58jBLoKgHatFJyycahB0qC7jb79bIKX/eTZEqDNATluIWxDUyG09uoQg7CYIPFGIpj5g0K34rej1l/FQ2wYVtGhrgGCRsSCGwBaC/hR4Kr5Efd4n49rpFd4GpFIwpL4V36JIdIUkuLfAxhaCIPZB0KugR88j7sDzeFak2N8v80mGEITRb3ZDezFIDSAdsUr6ow/stQRBUKC0yiZFxxft94odYMAFIlppMfQmUp/bn2Wc3c9Kzu/2nInTcN2KG7AVYb+ZYRfrwAiY0BmOSumrnr+fRxC4kpEWEzdj4n5iFLijtSdl8CeffDKdaBDM5kikif7mzZtT8NroEoKwmyBYxT/11FOTMXesUB/JqmmFLs6gCIKVuT5FFo05ZPTJJ5+cusppBCTTMURHVQXT8lr5n+EX52Ic8G4hrcaPPne80pHd1i0GBMFYcozSthgvmmO0nkdWRoT3MpcQhA16JwZpA9DPuWX6o68/WgjC9evXp4lZMNk8EIvb99NPP50+s/IzQdr3Lx0EKznuVxO+v/ncmfL5KouBsMpDOBjnV199dTLsVRht8QVWeiZ73gExDI6kiSAX5IaULFXuRJk7QWGVyWiQ0bVarfLdd99N2x22HZCGF1544fbqsg/Bi2uHIJyvg4BQ6lN9IXD0kUceuS1rXAv9tZEAAA+kSURBVEGKtoiME4YZsSxNAug76kjfwD9bU1bzxhnDXwWBdeoGAdEf4lZ4sxReLoG0xhBi8f7770+ktk7sCHjlGXNaQhHnYtxXAOTyXhePiG1qhCBsgHsM0gaghyAMA72FIAy72V3aUAjCeiXFs04x3KXDaO+vHYKwN4T9DYQg9GN2yCvSH33ohiD04bWmdghCCMKacTP6mhCE0Yg2tBeD1ADSEaukP/rADkHow2tN7RCE9QRBHIItJy79lP0QCEHYD79VV8cgrYLtYBelP/qgHUUQHFcTn7Arits+sZiBQxwj7PvGx68dgrCeIBy/t457x3ovHNGcH9M8xFOEIBwC1QvajEHaAPRzbpn+6OuPEQRBMKJTB04GvPTSS2c+gJMFAr/kVRhVBLeRa77sJQQhBGHXGHWigrCXAOCSdj7UeA5BOBSyMUgbILvuliEIfbiNIAglb0zASEKds4oIdGfVeRFGFITDmfRR7Y14pl1thCCEIJxHEJyycUxTxtFDlhCEQ6K7o+0YpA1AD2EbBvqxCMKwB/6/hngPeCRCEEYjO669NQZp3N3vjJZ4EEIQ7oy+WvWUIQirYDvYRemPPmhbCQJFQ2p0pJEJF1GikzPBz+VBkH2PWNLvv/8+CRBRQpQ+VyGL6/w6zYQq0vxKxUxVsepL8lSF1C5dBe1J5exZCehQ3SO1S5rX39x319ZGHxqHqR0Pwm4PgmyLNC2Mpxs3bkySy8aIDJuEkEh0i2+hjyBBkgyhikyd0ogTwHIUkly3/BvEuRS6GbQvEElbYIww9czXX399+py2Brf+jz/+OOVXUGhuGKPkngVGlr6GZ2TI6SG4nkw4uWeaC5I3EU7yLhij9ECMedkmqXlq++WXX56e5axSBEEwJsElY9uzejeMaSJP2jfe33jjjdtN1PNTJyUe1lLWELb/3BIlsSh364BuAXlZJwZpDWqHuyb90YdtC0H45ptvJlU7KnQm2cqrQOJW3oQiCO7MoFO8Y8hJLle6Z1sMtgQqi14lTWIciN4wDrYoPvroo2ly1KY8DuSPCdcgEUSRiB2pi7BImiOzHxlm3+Oylrt1Pm0xSE4n2JaCETEiglr6mfQ10ySuhYoi42zcMaLIAnlkQl0ElKhqkvNGGCV80tZDDz00JXySpZMKp3HCqFeab2TXOEMwxAAo6sv/wShL4awd9yCYJMMkI00xEUl49tlnrzzxxBNTAiiZI807yO0zzzxzBaEgRU6pkxQ5sTDvAiXGZSmC4O8UPr1j3hn1kWe5SbTDU0a1UfEOifmhOopQtAY3tvTH8vlCEPacVWKQ9gRw8OXpjz5ALyIIsu2ZKOnOU46TY0H57LPPJvXB77//fjLwVjEmdas/E5bJnXQu5Tua90uCYNI30VYeBm2aHH/77bfpPiZbZMGkb0WlmNStzKyerCCzxdDX18eu3WKQiiAglJIgKVbjFDWNpSJ+glspJDKijL5xReobWUQqpH1GZH1u5U4dc76vz6g+8MADk5IiVUV5OFoJQpEOYxo58RyVpIzHwAqfB4NSo7FqpY/UKt4f3hHj2n2XxrwIQuUfqT7iUfPe+V4ffPDBFMBozHunePEQZe/egw8+2NytLf0RgtAMZ1vFGKQ2nI5VK/3Rh/RFBOGff/6ZJipu02vXrt1uvCYpk6FkOAiCvArPPffc7Tpcq4y5iXFOEBAAngGrPBNhFROghDrkbq3gTPTcy1y3y5IYhL5+3qJ2i0EqgjDPZWDcWEVbpc8LL4CcCgwjcoqkIqykmY0l/xurthrIH8ubgBRUkXvBFoLxyAPVQhAQjdoWMx6NS+SFZ2NZSD1b8ZNwnmcK5WUrglAy5HVtEQSZTefbawJ65SaxVeIfQoBAeW4eFqTB91i2d14/t/RHCMLgNyUGaTCgezaX/ugD8CKCYOVm0uXOnx/DqsmS2/XDDz+cCIL8BrwAVUzAVmpIRp06sJLzM7etlZW2z5po7UXbZrBCO0tbIQShr5+3qN1ikIogII2VaVFOBO71ypUwf3YreC57q3kE4fPPP5+8AmIWkAXE9YsvvpjiUuQAqfwJ2pAsDIlgWBGQJUGQDdKKfL7F4Pevv/56egT3sO3FQNsaW5ZKQ21L4N577/2fj41h2w27CIL4Cu9SFbkibFXIUSLOxxafmBwEmvdEgjOxEj2lpT9CEHoQbagbg9QA0hGrpD/6wL6IIDDojDh3rkm7susJ6LKas5IRLIYgIBBzL8PDDz88BRia1OYehL///ntKw2zifeyxx24/sJWa1RLiYCJHOPyurvLLL79M+9UmdxNnthj6+vrYtVsM0lkE4a233pq2kxjkuUFlwCVV4saXjRFZqJU674KYAEbaatu9GWTjqArSIM6lCAIvA3JRbSAbvBa7CAJS4nmQ4CIN2hZMaJzb0rBVoB2xCFXEDiDaEo3V+1OflQcBWbGlVoWHDUEWYKnYSvE+IRLigCQjU6entPRHCEIPog11Y5AaQDpilfRHH9gXEQStVUAhI28C5PY3SYqgFsmtVCS1oCmR2z6zN2tStje7jEGwZ2sCNEELuDIpi2Ew6UsRLeWz7I8MiEnbXi4DwI2LNCAovBBS+Iok73G19iG0f+0EKe4+xXAWQUAEjTPBrrJ9Mqq2Fa5evTplXrSNJQ5Adk+kgYKnYENj2akEZNb4sop3qkYwnzFlPPEAGGvc9wISnUgwRmWSlHJawOMugmAkGIvIAaMvuFF8AsJiRe/ejLb3w2rfSQgxNP7mWXjdlt6wIgg+F29gLNuSQL69N3X6QZCi76Ft38G47y0hCL2IDagfgzQAxIFNpD/6wGwhCFo0ISMDtQIqF6/VTJ1iYNylV1Z87pjYzz//PMUQLAkCYiC6nDehioneysjE63pR3ybj+T0rzkE0u/TQCnesWIfLWkIQ+giCfmS433zzzf/pewacYTaeeKoICxkb/iGQ0jvb6yfnbbwxiPOxw/g6DVMpy3kjENqqY2vAcdzzCAIj76glA83YG6f+eQcYecQAWZjrcyCvvCECfZelCELF3NR3cQ/PIpi3iuBMWxtIg9MYvSUEoRexAfVjkAaAOLCJ9EcfmK0EQSyAiVP0Nm8B425vVDE516RqAuX+FRzmaFgFGP7000+TkmIdc3SdYER7xoITuXk9S20n1LdASqyoTLLuOd/bNelWpHuddOj79sepHYKwmyA4RsiNjoDOI/zL6FpVM6I1nsq4+5yx//XXXyeSacXNEzVfofM0IQDGiOh/BGLuabIaF/vgHsiBuBdt1rO4r7iGZTyB6/7666/pXXDE1nHfebvG9Z9//jl5wXxmXIsbOKt4r8oLhmTweIi94IVbnnj48ssvJw8GvJbvSctIDkFoQWlwnRikwYDu2Vz6ow/AVoLQ1+q/azvGJjp97jHYt8075foQhEgt7ztWvTf333//RDSQojUlBGENanteE4O0J4CDL09/9AF6aIJghWSVZSXH82BVdreVEIQQhH3GvNMNgjB56sRn8IasKSEIa1Db85oYpD0BHHx5+qMP0EMTBEccHUuztyrI7DJvBfQh1147BCEEoX20/LumY8E0HQTlznUdetsMQehFbED9GKQBIA5sIv3RB+ahCULf05xm7RCE3QSB8UMgCQXZ+7dKFnMiwHVNEbNCcMg/cQXiWxzFnRduet4ssuAls7zmXnfaNSEIG/RYDNIGoJ9zy/RHX3+EIPThtaZ2CMJugkDdkEIgHQHHAWkKCCoU6LqmaEfAq+ORTsGU+JEARScFBDcKjKTNIWC2cn+sudeddk0IwgY9FoO0AeghCMNAD0EYBuXOhkIQ2rcYSCbTFhhNEORpmIty8TRw2Tsuy4txlmrj4UfGce8QgnBcvKe7hSBsAHoIwjDQQxCGQRmCsECgxSDZTiDHLbmRY3zUCB1VpBoo74Cjiv5GJpmOgFwHFBCXRw/r1rs8CEuCoL6juVQXCXCRZz710tIfSwySzXHPURGCsCeAgy9Pf/QBGoLQh9ea2vEg7PYgOP5KGZFw1ldffTUtuMQhUEMUuS8ugTSyOnIrIBTGrNiCpWyxvukhCOrLREqLA1k49RKCsEEPxyBtAHo8CMNAD0EYBmU8CCs8CHOCIHZgvsVQCcHmcQLvvffeFNRIypty57L0EgT5PH744YeJlJxFOA4/Oo53hxCE42F9+04hCBuAHoIwDPQQhGFQhiAMJgjkiskm23KwFfD2229Pstrn5d3oJQhiD3gjxD2ceglB2KCHQxA2AD0EYRjoIQjDoAxBGEwQNEd++MUXX7zy7bffTqt85EAcgu2Hkl2e37aXIJBClqNB3oNTLyEIG/RwCMIGoIcgDAM9BGEYlCEIByAIthlkRZRlUZyCbI7IgaDCp59+eq8tBunLZSWVzdE8fuolBGGDHg5B2AD0EIRhoIcgDIMyBGEAQXB6QSIk+QakSpbwy6mFjz/+eGrd34koSRNNM2FZWj0IyIHERwjIH3/8cUVmx1MvIQgb9HAIwgaghyAMAz0EYRiUIQgDCMIrr7wyGX+Swo42OoIow+Hjjz8+bQXcuHHjyj333HPl5s2bU/bGVoLgJEllVJQNkQS4jIi8EbYs7oYSgrBBL4cgbAB6CMIw0EMQhkEZgrCCIEiZTE3xnXfeuZ1u2c+ONgpKdFLh2rVrUyChct9991157bXXziQHPpeu+d13373y/PPPT9kPpXIu70M9ni0LJyYIJyEbd0sJQdigp0MQNgA9BGEY6CEIw6AMQVhBEA6Pfu5QCIQgbDAWQhA2AD0EYRjoIQjDoAxBCEE4/GDa4w4hCHuAt/bSEIS1yB3muvRHH64hCH14rakdJcX2XAxr8M01bQiEILThNLRWDNJQOPduLP3RB2EIQh9ea2qHIIQgrBk3o68JQRiNaEN7MUgNIB2xSvqjD+wQhD681tQOQQhBWDNuRl8TgjAa0Yb2YpAaQDpilfRHH9ghCH14rakdghCCsGbcjL4mBGE0og3txSA1gHTEKumPPrBDEPrwWlM7BCEEYc24GX1NCMJoRBvai0FqAOmIVdIffWCHIPThtaZ2CEIIwppxM/qaEITRiDa0F4PUANIRq6Q/+sAOQejDa03tEIQQhDXjZvQ1QwmC5BgpQSAIBIEgEASCwGkgcP369StPPdVO2P5z69atW6fx1fMtgkAQCAJBIAgEgVEIhCCMQjLtBIEgEASCQBA4IQRCEE6oM/NVgkAQCAJBIAiMQiAEYRSSaScIBIEgEASCwAkhEIJwQp2ZrxIEgkAQCAJBYBQCIQijkEw7QSAIBIEgEAROCIEQhBPqzHyVIBAEgkAQCAKjEAhBGIVk2gkCQSAIBIEgcEIIhCCcUGfmqwSBIBAEgkAQGIXAfwGxgi3Ghuc2qQAAAABJRU5ErkJggg==;fillColor=#60a917;fontColor=#ffffff;strokeColor=#2D7600;" parent="kqk9PrzO4SxZUDdawp0W-1" vertex="1">
                    <mxGeometry x="10" y="910" width="292.28" height="240" as="geometry"/>
                </mxCell>
                <mxCell id="D1iThEawHDq5ufX6zuD0-4" style="edgeStyle=none;html=1;fontFamily=Helvetica;fillColor=#60a917;strokeColor=#2D7600;" parent="kqk9PrzO4SxZUDdawp0W-1" source="D1iThEawHDq5ufX6zuD0-3" edge="1">
                    <mxGeometry relative="1" as="geometry">
                        <mxPoint x="100" y="900" as="targetPoint"/>
                    </mxGeometry>
                </mxCell>
                <mxCell id="D1iThEawHDq5ufX6zuD0-3" value="Define API routes" style="rounded=0;whiteSpace=wrap;html=1;fontFamily=Helvetica;fillColor=#60a917;fontColor=#ffffff;strokeColor=#2D7600;" parent="kqk9PrzO4SxZUDdawp0W-1" vertex="1">
                    <mxGeometry x="40" y="770" width="120" height="60" as="geometry"/>
                </mxCell>
                <mxCell id="D1iThEawHDq5ufX6zuD0-5" value="Path&amp;nbsp;" style="rounded=0;whiteSpace=wrap;html=1;fontFamily=Helvetica;fillColor=#60a917;fontColor=#ffffff;strokeColor=#2D7600;" parent="kqk9PrzO4SxZUDdawp0W-1" vertex="1">
                    <mxGeometry x="311" y="903" width="64" height="33" as="geometry"/>
                </mxCell>
                <mxCell id="D1iThEawHDq5ufX6zuD0-6" value="/recipies" style="rounded=0;whiteSpace=wrap;html=1;fontFamily=Helvetica;fillColor=#60a917;fontColor=#ffffff;strokeColor=#2D7600;" parent="kqk9PrzO4SxZUDdawp0W-1" vertex="1">
                    <mxGeometry x="313" y="938" width="65" height="35" as="geometry"/>
                </mxCell>
                <mxCell id="D1iThEawHDq5ufX6zuD0-7" value="&lt;span style=&quot;color: rgb(240, 240, 240); font-family: Helvetica; font-size: 12px; font-style: normal; font-variant-ligatures: normal; font-variant-caps: normal; font-weight: 400; letter-spacing: normal; orphans: 2; text-align: center; text-indent: 0px; text-transform: none; widows: 2; word-spacing: 0px; -webkit-text-stroke-width: 0px; background-color: rgb(24, 20, 29); text-decoration-thickness: initial; text-decoration-style: initial; text-decoration-color: initial; float: none; display: inline !important;&quot;&gt;/recipies/:id&lt;/span&gt;" style="rounded=0;whiteSpace=wrap;html=1;fontFamily=Helvetica;fillColor=#60a917;fontColor=#ffffff;strokeColor=#2D7600;" parent="kqk9PrzO4SxZUDdawp0W-1" vertex="1">
                    <mxGeometry x="311" y="979" width="65" height="35" as="geometry"/>
                </mxCell>
                <mxCell id="D1iThEawHDq5ufX6zuD0-8" value="&lt;meta charset=&quot;utf-8&quot;&gt;&lt;span style=&quot;color: rgb(240, 240, 240); font-family: Helvetica; font-size: 12px; font-style: normal; font-variant-ligatures: normal; font-variant-caps: normal; font-weight: 400; letter-spacing: normal; orphans: 2; text-align: center; text-indent: 0px; text-transform: none; widows: 2; word-spacing: 0px; -webkit-text-stroke-width: 0px; background-color: rgb(24, 20, 29); text-decoration-thickness: initial; text-decoration-style: initial; text-decoration-color: initial; float: none; display: inline !important;&quot;&gt;/recipies&lt;/span&gt;" style="rounded=0;whiteSpace=wrap;html=1;fontFamily=Helvetica;fillColor=#60a917;fontColor=#ffffff;strokeColor=#2D7600;" parent="kqk9PrzO4SxZUDdawp0W-1" vertex="1">
                    <mxGeometry x="313" y="1023" width="65" height="35" as="geometry"/>
                </mxCell>
                <mxCell id="D1iThEawHDq5ufX6zuD0-9" value="&lt;span style=&quot;color: rgb(240, 240, 240); font-family: Helvetica; font-size: 12px; font-style: normal; font-variant-ligatures: normal; font-variant-caps: normal; font-weight: 400; letter-spacing: normal; orphans: 2; text-align: center; text-indent: 0px; text-transform: none; widows: 2; word-spacing: 0px; -webkit-text-stroke-width: 0px; background-color: rgb(24, 20, 29); text-decoration-thickness: initial; text-decoration-style: initial; text-decoration-color: initial; float: none; display: inline !important;&quot;&gt;/recipies/:id&lt;/span&gt;" style="rounded=0;whiteSpace=wrap;html=1;fontFamily=Helvetica;fillColor=#60a917;fontColor=#ffffff;strokeColor=#2D7600;" parent="kqk9PrzO4SxZUDdawp0W-1" vertex="1">
                    <mxGeometry x="313" y="1067" width="65" height="35" as="geometry"/>
                </mxCell>
                <mxCell id="D1iThEawHDq5ufX6zuD0-10" value="&lt;span style=&quot;color: rgb(240, 240, 240); font-family: Helvetica; font-size: 12px; font-style: normal; font-variant-ligatures: normal; font-variant-caps: normal; font-weight: 400; letter-spacing: normal; orphans: 2; text-align: center; text-indent: 0px; text-transform: none; widows: 2; word-spacing: 0px; -webkit-text-stroke-width: 0px; background-color: rgb(24, 20, 29); text-decoration-thickness: initial; text-decoration-style: initial; text-decoration-color: initial; float: none; display: inline !important;&quot;&gt;/recipies/:id&lt;/span&gt;" style="rounded=0;whiteSpace=wrap;html=1;fontFamily=Helvetica;fillColor=#60a917;fontColor=#ffffff;strokeColor=#2D7600;" parent="kqk9PrzO4SxZUDdawp0W-1" vertex="1">
                    <mxGeometry x="313" y="1115" width="65" height="35" as="geometry"/>
                </mxCell>
                <mxCell id="D1iThEawHDq5ufX6zuD0-11" value="Path method" style="rounded=0;whiteSpace=wrap;html=1;fontFamily=Helvetica;fillColor=#60a917;fontColor=#ffffff;strokeColor=#2D7600;" parent="kqk9PrzO4SxZUDdawp0W-1" vertex="1">
                    <mxGeometry x="384" y="905" width="64" height="33" as="geometry"/>
                </mxCell>
                <mxCell id="D1iThEawHDq5ufX6zuD0-12" value="/method" style="rounded=0;whiteSpace=wrap;html=1;fontFamily=Helvetica;fillColor=#60a917;fontColor=#ffffff;strokeColor=#2D7600;" parent="kqk9PrzO4SxZUDdawp0W-1" vertex="1">
                    <mxGeometry x="384" y="942" width="65" height="35" as="geometry"/>
                </mxCell>
                <mxCell id="D1iThEawHDq5ufX6zuD0-13" value="/method/:id" style="rounded=0;whiteSpace=wrap;html=1;fontFamily=Helvetica;fillColor=#60a917;fontColor=#ffffff;strokeColor=#2D7600;" parent="kqk9PrzO4SxZUDdawp0W-1" vertex="1">
                    <mxGeometry x="384" y="981" width="65" height="35" as="geometry"/>
                </mxCell>
                <mxCell id="D1iThEawHDq5ufX6zuD0-14" value="/method" style="rounded=0;whiteSpace=wrap;html=1;fontFamily=Helvetica;fillColor=#60a917;fontColor=#ffffff;strokeColor=#2D7600;" parent="kqk9PrzO4SxZUDdawp0W-1" vertex="1">
                    <mxGeometry x="384" y="1026" width="65" height="35" as="geometry"/>
                </mxCell>
                <mxCell id="D1iThEawHDq5ufX6zuD0-15" value="/method/:id" style="rounded=0;whiteSpace=wrap;html=1;fontFamily=Helvetica;fillColor=#60a917;fontColor=#ffffff;strokeColor=#2D7600;" parent="kqk9PrzO4SxZUDdawp0W-1" vertex="1">
                    <mxGeometry x="386" y="1071" width="65" height="35" as="geometry"/>
                </mxCell>
                <mxCell id="D1iThEawHDq5ufX6zuD0-16" value="/method/:id" style="rounded=0;whiteSpace=wrap;html=1;fontFamily=Helvetica;fillColor=#60a917;fontColor=#ffffff;strokeColor=#2D7600;" parent="kqk9PrzO4SxZUDdawp0W-1" vertex="1">
                    <mxGeometry x="389" y="1115" width="65" height="35" as="geometry"/>
                </mxCell>
                <mxCell id="xw8DrhPYE5sxg0RoewrM-0" value="Define API routes" style="rounded=0;whiteSpace=wrap;html=1;fontFamily=Helvetica;fillColor=#60a917;fontColor=#ffffff;strokeColor=#2D7600;" vertex="1" parent="kqk9PrzO4SxZUDdawp0W-1">
                    <mxGeometry x="41" y="767" width="120" height="60" as="geometry"/>
                </mxCell>
            </root>
        </mxGraphModel>
    </diagram>
</mxfile>